<svg xmlns="http://www.w3.org/2000/svg" xmlns:xlink="http://www.w3.org/1999/xlink" xmlns:inkscape="http://www.inkscape.org/namespaces/inkscape" version="1.1" width="1440" height="810" viewBox="0 0 1440 810">
<defs>
<clipPath id="clip_0">
<path transform="matrix(.24,0,0,.24,0,0)" d="M0 0H6000V3375H0Z" clip-rule="evenodd"/>
</clipPath>
<clipPath id="clip_1">
<path transform="matrix(.24,0,0,.24,0,0)" d="M0 0H6000V3375H0Z" clip-rule="evenodd"/>
</clipPath>
<clipPath id="clip_2">
<path transform="matrix(.24,0,0,.24,0,0)" d="M0 0H6000V3375H0Z"/>
</clipPath>
<clipPath id="clip_3">
<path transform="matrix(.24,0,0,.24,0,0)" d="M0 0H6000V3375H0Z"/>
</clipPath>
<clipPath id="clip_4">
<path transform="matrix(.24,0,0,.24,0,0)" d="M-1290.4421 2834.0687-81.84436 1825.1257 470.74293 2487.062-737.8548 3496.005-1290.4421 2834.0687Z"/>
</clipPath>
<clipPath id="clip_5">
<path transform="matrix(.24,0,0,.24,0,0)" d="M0 0H6000V3375H0Z"/>
</clipPath>
<clipPath id="clip_6">
<path transform="matrix(.24,0,0,.24,0,0)" d="M0 0H6000V3375H0Z"/>
</clipPath>
<clipPath id="clip_7">
<path transform="matrix(.24,0,0,.24,0,0)" d="M380.48258 3915.6717 1575.323 2890.4739 2136.813 3544.8756 941.97256 4570.073 380.48258 3915.6717Z"/>
</clipPath>
<clipPath id="clip_8">
<path transform="matrix(.24,0,0,.24,0,0)" d="M0 0H6000V3375H0Z"/>
</clipPath>
<clipPath id="clip_9">
<path transform="matrix(.24,0,0,.24,0,0)" d="M0 0H6000V3375H0Z"/>
</clipPath>
<clipPath id="clip_10">
<path transform="matrix(.24,0,0,.24,0,0)" d="M589.2472 2429.912 1184.9027 3113.822-163.698 4288.394-759.3535 3604.484 589.2472 2429.912Z"/>
</clipPath>
<clipPath id="clip_11">
<path transform="matrix(.24,0,0,.24,0,0)" d="M0 0H6000V3375H0Z"/>
</clipPath>
<clipPath id="clip_12">
<path transform="matrix(.24,0,0,.24,0,0)" d="M0 0H6000V3375H0Z"/>
</clipPath>
<clipPath id="clip_13">
<path transform="matrix(.24,0,0,.24,0,0)" d="M-138.91802 4139.688 1055.9225 3114.4903 1617.4125 3768.8917 422.57197 4794.0895-138.91802 4139.688Z"/>
</clipPath>
<clipPath id="clip_14">
<path transform="matrix(.24,0,0,.24,0,0)" d="M0 0H6000V3375H0Z"/>
</clipPath>
<clipPath id="clip_15">
<path transform="matrix(.24,0,0,.24,0,0)" d="M0 0H6000V3375H0Z"/>
</clipPath>
<clipPath id="clip_16">
<path transform="matrix(.24,0,0,.24,0,0)" d="M-138.91802 4270.459 1055.9225 3245.2613 1617.4125 3899.6627 422.57197 4924.8605-138.91802 4270.459Z"/>
</clipPath>
<clipPath id="clip_17">
<path transform="matrix(.24,0,0,.24,0,0)" d="M0 0H6000V3375H0Z"/>
</clipPath>
<clipPath id="clip_18">
<path transform="matrix(.24,0,0,.24,0,0)" d="M0 0H6000V3375H0Z"/>
</clipPath>
<clipPath id="clip_19">
<path transform="matrix(.24,0,0,.24,0,0)" d="M-138.91802 4270.459 1056.3926 3244.858 1618.0313 3899.4327 422.7207 4925.0339-138.91802 4270.459Z"/>
</clipPath>
<clipPath id="clip_20">
<path transform="matrix(.24,0,0,.24,0,0)" d="M-138.91294 4270.4548 1055.9057 3245.2755 1617.3854 3899.665 422.5668 4924.844-138.91294 4270.4548Z"/>
</clipPath>
<clipPath id="clip_21">
<path transform="matrix(.24,0,0,.24,0,0)" d="M0 0H6000V3375H0Z"/>
</clipPath>
<clipPath id="clip_22">
<path transform="matrix(.24,0,0,.24,0,0)" d="M0 0H6000V3375H0Z"/>
</clipPath>
<clipPath id="clip_23">
<path transform="matrix(.24,0,0,.24,0,0)" d="M-1192.4572 3231.5899 16.140625 2222.647 432.44129 2721.3275-776.1565 3730.2703-1192.4572 3231.5899Z"/>
</clipPath>
<clipPath id="clip_24">
<path transform="matrix(.24,0,0,.24,0,0)" d="M0 0H6000V3375H0Z"/>
</clipPath>
<clipPath id="clip_25">
<path transform="matrix(.24,0,0,.24,0,0)" d="M0 0H6000V3375H0Z"/>
</clipPath>
<clipPath id="clip_26">
<path transform="matrix(.24,0,0,.24,0,0)" d="M-639.1252 3666.533 488.3836 2725.2835 836.8461 3142.7017-290.66264 4083.9512-639.1252 3666.533Z"/>
</clipPath>
<clipPath id="clip_27">
<path transform="matrix(.24,0,0,.24,0,0)" d="M-639.1114 3666.5216 489.41926 2724.419 838.78927 3142.9244-289.7414 4085.0267-639.1114 3666.5216Z"/>
</clipPath>
<clipPath id="clip_28">
<path transform="matrix(.24,0,0,.24,0,0)" d="M0 0H6000V3375H0Z"/>
</clipPath>
<clipPath id="clip_29">
<path transform="matrix(.24,0,0,.24,0,0)" d="M0 0H6000V3375H0Z"/>
</clipPath>
<clipPath id="clip_30">
<path transform="matrix(.24,0,0,.24,0,0)" d="M3164.1197 4047.3985 4306.3596 2963.9034 4899.7785 3589.496 3757.5386 4672.991 3164.1197 4047.3985Z"/>
</clipPath>
<clipPath id="clip_31">
<path transform="matrix(.24,0,0,.24,0,0)" d="M0 0H6000V3375H0Z"/>
</clipPath>
<clipPath id="clip_32">
<path transform="matrix(.24,0,0,.24,0,0)" d="M0 0H6000V3375H0Z"/>
</clipPath>
<clipPath id="clip_33">
<path transform="matrix(.24,0,0,.24,0,0)" d="M4507.7019 3085.6353 5210.5217 2512.4139 6340.8557 3898.3028 5638.036 4471.524 4507.7019 3085.6353Z"/>
</clipPath>
<clipPath id="clip_34">
<path transform="matrix(.24,0,0,.24,0,0)" d="M0 0H6000V3375H0Z"/>
</clipPath>
<clipPath id="clip_35">
<path transform="matrix(.24,0,0,.24,0,0)" d="M0 0H6000V3375H0Z"/>
</clipPath>
<clipPath id="clip_36">
<path transform="matrix(.24,0,0,.24,0,0)" d="M3574.3543 4170.691 4712.926 3083.3414 5308.4558 3706.9249 4169.8845 4794.2746 3574.3543 4170.691Z"/>
</clipPath>
<clipPath id="clip_37">
<path transform="matrix(.24,0,0,.24,0,0)" d="M0 0H6000V3375H0Z"/>
</clipPath>
<clipPath id="clip_38">
<path transform="matrix(.24,0,0,.24,0,0)" d="M0 0H6000V3375H0Z"/>
</clipPath>
<clipPath id="clip_39">
<path transform="matrix(.24,0,0,.24,0,0)" d="M3581.3157 4301.2766 4719.887 3213.9268 5315.417 3837.5103 4176.8459 4924.86 3581.3157 4301.2766Z"/>
</clipPath>
<clipPath id="clip_40">
<path transform="matrix(.24,0,0,.24,0,0)" d="M0 0H6000V3375H0Z"/>
</clipPath>
<clipPath id="clip_41">
<path transform="matrix(.24,0,0,.24,0,0)" d="M0 0H6000V3375H0Z"/>
</clipPath>
<clipPath id="clip_42">
<path transform="matrix(.24,0,0,.24,0,0)" d="M3581.3157 4301.2766 4720.335 3213.499 5316.0227 3837.2479 4177.0036 4925.025 3581.3157 4301.2766Z"/>
</clipPath>
<clipPath id="clip_43">
<path transform="matrix(.24,0,0,.24,0,0)" d="M3581.3206 4301.272 4719.871 3213.9425 5315.3908 3837.5145 4176.84 4924.844 3581.3206 4301.272Z"/>
</clipPath>
<clipPath id="clip_44">
<path transform="matrix(.24,0,0,.24,0,0)" d="M0 0H6000V3375H0Z"/>
</clipPath>
<clipPath id="clip_45">
<path transform="matrix(.24,0,0,.24,0,0)" d="M0 0H6000V3375H0Z"/>
</clipPath>
<clipPath id="clip_46">
<path transform="matrix(.24,0,0,.24,0,0)" d="M6248.327 3927.9947 5266.7785 2697.0455 5774.6809 2292.0479 6756.23 3522.997 6248.327 3927.9947Z"/>
</clipPath>
<clipPath id="clip_47">
<path transform="matrix(.24,0,0,.24,0,0)" d="M0 0H6000V3375H0Z"/>
</clipPath>
<clipPath id="clip_48">
<path transform="matrix(.24,0,0,.24,0,0)" d="M0 0H6000V3375H0Z"/>
</clipPath>
<clipPath id="clip_49">
<path transform="matrix(.24,0,0,.24,0,0)" d="M5733.605 4232.05 4797.2409 3100.4805 5216.162 2753.8267 6152.5266 3885.396 5733.605 4232.05Z"/>
</clipPath>
<clipPath id="clip_50">
<path transform="matrix(.24,0,0,.24,0,0)" d="M5733.5935 4232.036 4796.3806 3099.4415 5216.3928 2751.8848 6153.6057 3884.4796 5733.5935 4232.036Z"/>
</clipPath>
</defs>
<g clip-path="url(#clip_0)">
<path transform="matrix(.75,0,0,.75,0,0)" d="M0 0H1920V1080H0Z" fill="#ffffff"/>
</g>
<g clip-path="url(#clip_1)">
<path transform="matrix(.75,0,0,.75,0,0)" d="M0 0H1920V1080H0Z" fill="#ffffff"/>
</g>
<g clip-path="url(#clip_2)">
<g clip-path="url(#clip_3)">
<g clip-path="url(#clip_4)">
<path transform="matrix(.6205652,-.5180506,.5180506,.6205652,-309.70613,680.17648)" d="M0 0H467V256H0Z" fill="#004580"/>
</g>
</g>
</g>
<g clip-path="url(#clip_5)">
<g clip-path="url(#clip_6)">
<g clip-path="url(#clip_7)">
<path transform="matrix(.61350139,-.5263969,.5263969,.61350139,91.31582,939.76119)" d="M0 0H467V256H0Z" fill="#004580"/>
</g>
</g>
</g>
<g clip-path="url(#clip_8)">
<g clip-path="url(#clip_9)">
<g clip-path="url(#clip_10)">
<path transform="matrix(.55842706,.6411656,-.6411656,.55842706,141.41933,583.1789)" d="M0 0H256V505H0Z" fill="#fea200"/>
</g>
</g>
</g>
<g clip-path="url(#clip_11)">
<g clip-path="url(#clip_12)">
<g clip-path="url(#clip_13)">
<path transform="matrix(.61350139,-.5263969,.5263969,.61350139,-33.340326,993.5251)" d="M0 0H467V256H0Z" fill="#004580"/>
</g>
</g>
</g>
<g clip-path="url(#clip_14)">
<g clip-path="url(#clip_15)">
<g clip-path="url(#clip_16)">
<path transform="matrix(.61350139,-.5263969,.5263969,.61350139,-33.340326,1024.9102)" d="M0 0H467V256H0Z" fill="#004580"/>
</g>
</g>
</g>
<g clip-path="url(#clip_17)">
<g clip-path="url(#clip_18)">
<g clip-path="url(#clip_19)">
<g clip-path="url(#clip_20)">
<path transform="matrix(.56919547,-.48838149,.48838149,.56919547,-33.339105,1024.909)" stroke-width="20" stroke-linecap="butt" stroke-miterlimit="4" stroke-linejoin="miter" fill="none" stroke="#fea200" d="M0 0H503.7926V275.92189H0Z"/>
</g>
</g>
</g>
</g>
<g clip-path="url(#clip_21)">
<g clip-path="url(#clip_22)">
<g clip-path="url(#clip_23)">
<path transform="matrix(.46751286,-.39028184,.39028184,.46751286,-286.1897,775.58157)" d="M0 0H620V256H0Z" fill="#0248a9"/>
</g>
</g>
</g>
<g clip-path="url(#clip_24)">
<g clip-path="url(#clip_25)">
<g clip-path="url(#clip_26)">
<g clip-path="url(#clip_27)">
<path transform="matrix(.57574918,-.480638,.480638,.57574918,-153.38674,879.96517)" stroke-width="20" stroke-linecap="butt" stroke-miterlimit="4" stroke-linejoin="miter" fill="none" stroke="#0248a9" d="M0 0H470.42597V174.45313H0Z"/>
</g>
</g>
</g>
</g>
<g clip-path="url(#clip_28)">
<g clip-path="url(#clip_29)">
<g clip-path="url(#clip_30)">
<path transform="matrix(.5864932,-.55633017,.55633017,.5864932,759.3887,971.3756)" d="M0 0H467V256H0Z" fill="#004580"/>
</g>
</g>
</g>
<g clip-path="url(#clip_31)">
<g clip-path="url(#clip_32)">
<g clip-path="url(#clip_33)">
<path transform="matrix(.65889349,-.53739508,.53739508,.65889349,1081.8484,740.5524)" d="M0 0H256V505H0Z" fill="#fea200"/>
</g>
</g>
</g>
<g clip-path="url(#clip_34)">
<g clip-path="url(#clip_35)">
<g clip-path="url(#clip_36)">
<path transform="matrix(.58460959,-.55830928,.55830928,.58460959,857.845,1000.9658)" d="M0 0H467V256H0Z" fill="#004580"/>
</g>
</g>
</g>
<g clip-path="url(#clip_37)">
<g clip-path="url(#clip_38)">
<g clip-path="url(#clip_39)">
<path transform="matrix(.58460959,-.55830928,.55830928,.58460959,859.51577,1032.3063)" d="M0 0H467V256H0Z" fill="#004580"/>
</g>
</g>
</g>
<g clip-path="url(#clip_40)">
<g clip-path="url(#clip_41)">
<g clip-path="url(#clip_42)">
<g clip-path="url(#clip_43)">
<path transform="matrix(.5423902,-.5179892,.5179892,.5423902,859.5169,1032.3053)" stroke-width="20" stroke-linecap="butt" stroke-miterlimit="4" stroke-linejoin="miter" fill="none" stroke="#fea200" d="M0 0H503.7926V275.92189H0Z"/>
</g>
</g>
</g>
</g>
<g clip-path="url(#clip_44)">
<g clip-path="url(#clip_45)">
<g clip-path="url(#clip_46)">
<path transform="matrix(-.3796853,-.47615887,.47615887,-.3796853,1499.5985,942.7187)" d="M0 0H620V256H0Z" fill="#0248a9"/>
</g>
</g>
</g>
<g clip-path="url(#clip_47)">
<g clip-path="url(#clip_48)">
<g clip-path="url(#clip_49)">
<g clip-path="url(#clip_50)">
<path transform="matrix(-.47814337,-.57782259,.57782259,-.47814337,1376.0624,1015.68869)" stroke-width="20" stroke-linecap="butt" stroke-miterlimit="4" stroke-linejoin="miter" fill="none" stroke="#0248a9" d="M0 0H470.42597V174.45313H0Z"/>
</g>
</g>
</g>
</g>
<path transform="matrix(1,0,0,-1,0,817.92)" d="M-309.70689-21.122763H112.97754V379.88819H-309.70689Z" fill-opacity="0"/>
<path transform="matrix(1,0,0,-1,0,817.92)" d="M-286.1928-77.34728H103.782779V284.48228H-286.1928Z" fill-opacity="0"/>
<path transform="matrix(1,0,0,-1,0,817.92)" d="M-182.24352-211.29456H284.378V234.74112H-182.24352Z" fill-opacity="0"/>
<path transform="matrix(1,0,0,-1,0,817.92)" d="M-153.3911-162.49628H201.32042V164.06369H-153.3911Z" fill-opacity="0"/>
<path transform="matrix(1,0,0,-1,0,817.92)" d="M91.31501-278.89918H512.8343V124.20462H91.31501Z" fill-opacity="0"/>
<path transform="matrix(1,0,0,-1,0,817.92)" d="M-33.341108-332.66319H388.1782V70.44061H-33.341108Z" fill-opacity="0"/>
<path transform="matrix(1,0,0,-1,0,817.92)" d="M-33.341108-364.0482H388.1782V39.055604H-33.341108Z" fill-opacity="0"/>
<path transform="matrix(1,0,0,-1,0,817.92)" d="M1264.0255-124.80898H1621.4939V267.8182H1264.0255Z" fill-opacity="0"/>
<path transform="matrix(1,0,0,-1,0,817.92)" d="M1081.8475-255.24648H1521.8045V214.94002H1081.8475Z" fill-opacity="0"/>
<path transform="matrix(1,0,0,-1,0,817.92)" d="M1151.1277-197.7791H1476.8757V157.47261H1151.1277Z" fill-opacity="0"/>
<path transform="matrix(1,0,0,-1,0,817.92)" d="M759.38796-303.5996H1175.946V106.58148H759.38796Z" fill-opacity="0"/>
<path transform="matrix(1,0,0,-1,0,817.92)" d="M857.8442-332.70768H1274.0286V77.91626H857.8442Z" fill-opacity="0"/>
<path transform="matrix(1,0,0,-1,0,817.92)" d="M859.51498-364.0482H1275.6992V46.575746H859.51498Z" fill-opacity="0"/>
</svg>
