<svg version="1.2" xmlns="http://www.w3.org/2000/svg" viewBox="0 0 3735 2543" width="3735" height="2543"><defs><linearGradient id="P" gradientUnits="userSpaceOnUse"/><radialGradient id="g1" cx="0" cy="0" r="1" href="#P" gradientTransform="matrix(2393.876,314.554,-314.554,2393.876,1846.712,1274.725)"><stop stop-color="#326ccf"/><stop offset="1" stop-color="#0c1322"/></radialGradient></defs><style>.a{fill:url(#g1)}.b{fill:#232323}.c{fill:none;stroke:#a8a8a8;stroke-miterlimit:10;stroke-width:10}.d{fill:none;stroke:#a8a8a8;stroke-miterlimit:10;stroke-width:5}.e{fill:#a8a8a8}</style><path class="a" d="m3735 2543h-3735.5v-2543h3735.5z"/><g style="mix-blend-mode:color-dodge"><path class="b" d="m4536.3 1936.5l-409.7-409.6h-160.3l-92.6 92.6h-241.4l-65.9 65.9-1.7-1.7 66.7-66.6h241.3l92.6-92.6h162.3l410.4 410.3z"/><path class="b" d="m3549.7 1683.7l-4.3-4.3 77.6-77.6h240.5l94.1-94.1h100l429.9-430 4.3 4.3-431.7 431.7h-100l-94.1 94.1h-240.5z"/><path class="b" d="m3854.5 1590.6h-146.9v-2.4h145.9l93.8-93.8h102.3l387.4-387.4 1.8 1.7-388.2 388.2h-102.3z"/><path class="b" d="m2215.5 2637.4h-6v-207.2h6z"/><path class="b" d="m2089.7 2690.4h-2.4v-468l-51.8-51.8v-200l37.8-37.8h49.7l26.1-26.1 1.7 1.7-26.8 26.8h-49.7l-36.4 36.4v198l51.8 51.8z"/><path class="b" d="m2051.2 1868.9l-58.6-58.6 1.7-1.7 58.6 58.6z"/><path class="b" d="m2075.3 1868.9l-58.6-58.6 1.7-1.7 58.6 58.6z"/><path class="b" d="m2099.4 1868.9l-58.6-58.6 1.7-1.7 58.6 58.6z"/><path class="b" d="m2123.5 1868.9l-58.7-58.6 1.8-1.7 58.6 58.6z"/><path class="b" d="m2147.6 1868.9l-58.7-58.6 1.7-1.7 58.7 58.6z"/><path class="b" d="m3092.5 2632.1l-512.6-512.6v-105.5l-347.4-347.4v-140.3l-85.2-85.2 4.3-4.3 86.9 87v140.3l347.4 347.4v105.5l510.9 510.9z"/><path class="b" d="m3365 2673.6l-663.3-663.3v-89.8l-336.8-336.7v-110.5l-80.3-80.3h-50.8v-2.4h51.8l81.8 81.7v110.5l336.7 336.7v89.9l662.6 662.5z"/><path class="b" d="m3375.8 2642.5l-642.8-642.9v-91l-329.6-329.6 1.7-1.7 330.3 330.3v91l642.1 642.1z"/><path class="b" d="m3341.9 2692l-668.2-668.2v-92.3l-351.2-351.2 4.2-4.3 353 353v92.3l666.4 666.5z"/><path class="b" d="m2172.3 973.5l-4.3-4.3 166.6-166.5h235.4l813.6-813.6 4.3 4.2-815.4 815.4h-235.4z"/><path class="b" d="m2171 1014.9l-1.7-1.7 174.4-174.4h245.1l550.8-550.7h349l331.5-331.5 1.7 1.7-332.2 332.2h-349l-550.8 550.7h-245.1z"/><path class="b" d="m2171 1062.9l-1.7-1.7 123.2-123.2h185.3l0.4 0.3 72.2 72.2h360l345-344.9h591l144.6-144.6h318.4v2.4h-317.4l-144.6 144.6h-591l-345 345h-362l-0.4-0.4-72.2-72.2h-183.3z"/><path class="b" d="m2671 924.2l-4.3-4.3 408.6-408.6h203l109-109 4.3 4.3-110.8 110.8h-203z"/><path class="b" d="m3294.2 1191.9h-412.3l-85.8-85.8h-264.8l-28.9 28.9h-228.4l-30.7-30.7h-73.1v-6h75.6l30.7 30.7h223.4l28.9-28.9h269.8l85.8 85.8h409.8z"/><path class="b" d="m3029.6 1350.4h-319.9l-106.1-106.1h-321l-113.3-113.3 1.7-1.7 112.6 112.6h321l106.1 106.1h317.9l66.8-66.8h400.6l146.6-146.5h695.7v2.4h-694.7l-146.6 146.5h-400.6z"/><path class="b" d="m2492.5 750.1h-96.9v-2.4h95.9l193.5-193.6v-325.4l285.4-285.3 1.7 1.7-284.7 284.6v325.4z"/><path class="b" d="m2476 720.8l-1.7-1.7 183.2-183.2v-322.3l250.8-250.8 1.7 1.7-250.1 250.1v322.3z"/><path class="b" d="m2620.8 528.6h-2.4v-229l-136.1-136.2v-233.5h2.4v232.5l136.1 136.2z"/><path class="b" d="m2467.3 613.5h-6v-283.1l-168.1-168.1h-192.1v-6h194.6l0.9 0.8 170.7 170.8z"/><path class="b" d="m2963.7 1016.2l-4.3-4.3 322.2-322.2h585.7l137.7-137.7h333.3v6.1h-330.8l-137.7 137.6h-585.7z"/><path class="b" d="m3007.8 1014.9l-1.7-1.7 291-291h594.5l132.5-132.5h337.7v2.5h-336.7l-132.5 132.4h-594.5z"/><path class="b" d="m3052.9 1014.9l-1.7-1.7 260.3-260.2h605.4l128.1-128.2h316.8v2.4h-315.8l-128.1 128.2h-605.4z"/><path class="b" d="m3097.6 1016.2l-4.3-4.3 228.6-228.5h612.3l127.5-127.5h300.1v6h-297.6l-127.5 127.5h-612.3z"/><path class="b" d="m3139.7 1014.9l-1.7-1.7 198.5-198.5h616.5l131-131h277.8v2.4h-276.8l-131 131h-616.5z"/><path class="b" d="m3541.1 1017h-326.5v-6h324l71.9-71.9h717v6h-714.5z"/><path class="b" d="m3475.2 1199.9l-73.9-73.9h-482.6l-57.9-57.9h-365.9l-64.4-64.4h-143.3l-60.5 60.5-4.2-4.3 62.2-62.2h148.3l64.4 64.4h365.9l57.9 57.9h482.6l75.6 75.7z"/><path class="b" d="m2805 1635.3l-314.9-314.9h-256.3v-6h258.8l316.6 316.6z"/><path class="b" d="m3007.4 1320h-277.2l-108.7-108.6h-315v-2.4h316l108.7 108.6h275.2l64.8-64.7h393.9v2.4h-392.9z"/><path class="b" d="m3294.7 1628.6h-427.2l-120-120 1.7-1.7 119.3 119.3h425.2l217.1-217.1h346.4l94.5-94.5h410.1v2.4h-409.1l-94.5 94.5h-346.4z"/><path class="b" d="m4329.3 2187.8h-340.3l-173.2-173.2h-173.3l-348.8-348.8h-497.6l-315.4-315.4h-246.9v-2.4h247.9l315.4 315.4h497.6l348.8 348.8h173.3l173.2 173.2h339.3z"/><path class="b" d="m4283.9 2524.4l-480.4-480.5h-177.5l-345.7-345.7h-497.2l-320-320h-137.9v-6h140.4l320 320h497.2l345.7 345.7h177.5l482.2 482.2z"/><path class="b" d="m3840.5 2553.5l-267.5-267.5h-237.9l-217.3-217.3h-173.6l-348.5-348.6v-70.9l-157.9-157.9v-70.4h2.4v69.4l157.9 157.9v70.9l347.1 347.2h173.6l217.3 217.3h237.9l268.2 268.2z"/><path class="b" d="m3559.5 2058.1l-306.5-306.5h-453.2v-6.1h455.7l308.3 308.3z"/><path class="b" d="m3953.3 2610.5l-356.2-356.1h-237.8l-219.6-219.6h-177.7l-285.4-285.4 1.7-1.7 284.7 284.6h177.7l219.6 219.7h237.8l356.9 356.8z"/><path class="b" d="m3803.4 2620l-243-242.9h-220.6l-141-141.1h-154.3l-99.6-99.5 4.3-4.3 97.8 97.8h154.3l141 141h220.6l244.7 244.8z"/><path class="b" d="m3183.2 1512.1h-293.5l-86.9-86.9 8.6-8.5 83.3 83.3h283.5l152.2-152.1h374.1l125.4-125.4h456.2v12h-451.2l-125.4 125.4h-374.1z"/><path class="b" d="m4309.4 1823.1h-468.1l-71.5-71.5h-266.2v-6.1h268.7l71.5 71.6h465.6z"/><path class="b" d="m3772.3 573h-382.9v-6.1h380.4l164.7-164.6h427.3v6h-424.8z"/><path class="b" d="m3466.3 522.2h-2.4v-77.3l73.9-73.9v-72.4l338-338 1.8 1.7-337.4 337.3v72.4l-73.9 73.9z"/><path class="b" d="m3500.1 522.2h-2.4v-62.9l75.2-75.2v-71.7l376.6-376.6 1.7 1.7-375.9 375.9v71.7l-75.2 75.2z"/><path class="b" d="m3547.4 486.6l-1.7-1.7 127.4-127.4h97.5l245.4-245.4h72.5l134.6-134.6 1.7 1.7-135.3 135.3h-72.5l-245.4 245.4h-97.5z"/><path class="b" d="m4110.4 2619.6l-173.7-173.7v-181.4h-77.6l-142.3-142.3h-197.1l-299.1-299.1h-355.3v-6h357.8l299.1 299h197.1l142.3 142.3h81.1v185l171.9 172z"/><path class="b" d="m3849.8 2290.5l-142.7-142.8h-198.6l-294.4-294.4h-348.8v-2.4h349.8l294.4 294.4h198.6l143.4 143.5z"/><path class="b" d="m3405.1 2169.9l-225.6-225.5h-240.6l-34.7-34.8 4.2-4.2 33 32.9h240.6l227.3 227.4z"/><path class="b" d="m2992.3 2573.2l-438.3-438.4v-105.9l-189.3-189.3 1.7-1.7 190 190v105.9l437.6 437.7z"/><path class="b" d="m2516.5 2656.7h-2.4v-299.1l-196.7-196.7v-82.2l46.9-46.9v-105h2.4v106l-46.9 46.9v80.2l196.7 196.7z"/><path class="b" d="m3010.7 2658.4l-333.7-333.8h-92.4l-239.7-239.7 1.7-1.7 239 239h92.4l334.4 334.5z"/><path class="b" d="m2608.7 2272.7l-151.9-152v-115.2l-54.7-54.7 4.3-4.2 56.4 56.4v115.2l150.2 150.2z"/><path class="b" d="m2875 2581.4l-199.3-199.3h-98.7v-12h103.6l1.8 1.8 201.1 201z"/><path class="b" d="m2709.4 922.9l-1.7-1.7 226-225.9h72.7l97.1-97h178.1v2.4h-177.1l-97.1 97h-72.7z"/><path class="b" d="m2891 972.6h-294.4v-2.4h293.4l214.5-214.6 1.7 1.7z"/><path class="b" d="m2886.3 923.3h-138v-2.4h137l251.2-251.2 1.7 1.7z"/><path class="b" d="m2719.9 523.1l-1.7-1.7 198.9-198.9v-120l269.3-269.3 1.7 1.7-268.6 268.6v120z"/><path class="b" d="m2749.2 734.7l-1.7-1.7 405.9-405.9h309.3v2.4h-308.3z"/><path class="b" d="m3463.2 255h-248.6v-2.4h247.6l302-302 1.7 1.7z"/><path class="b" d="m3308.7 221.1l-1.7-1.7 36.5-36.5h85.9l192.6-192.5 1.7 1.7-193.3 193.2h-85.9z"/><path class="b" d="m3346.1 1635.3l-4.2-4.3 187.3-187.3h335.8v6h-333.3z"/><path class="b" d="m3463.9 1636.1h-81.1v-6h78.6l103.2-103.2h275.5l152.6-152.6h103.6v6h-101.1l-152.6 152.7h-275.5z"/><path class="b" d="m4252.8 1760.6h-215.9l-47.1-47.2h-152l-43.2-43.1h-129.5v-2.5h130.5l43.2 43.2h152l47.1 47.1h214.9z"/><path class="b" d="m3989.1 1660h-82.6v-6h80.1l53.4-53.4h150.2v6h-147.7z"/><path class="b" d="m3682.2 2645.5l-193.8-193.7h-173.1l-135.4-135.5 1.7-1.7 134.7 134.8h173.1l194.5 194.4z"/><path class="b" d="m4252.8 1109.4h-781.9l-44.3-44.4h-475.7v-6h478.2l44.3 44.4h779.4z"/><path class="b" d="m3580.5 1014.9l-1.8-1.7 43.4-43.4h680.1v2.4h-679.1z"/><path class="b" d="m4316.7 1071.3h-436.8l-39.1-39.1h-159.4l-31 31h-173.1v-2.4h172.1l31-31h161.4l39.1 39.1h435.8z"/><path class="b" d="m2610.3 202.1h-12.1v-94.3l175.5-175.4 8.5 8.5-171.9 171.9z"/><path class="b" d="m3548.4 908.8l-1.7-1.7 45.6-45.6h434.8l69.6-69.6h180.2v2.4h-179.2l-69.6 69.6h-434.8z"/><path class="b" d="m4266.1 912.8h-490.1l-18.1-18.1h-156v-2.4h157l18.1 18.1h489.1z"/><path class="b" d="m3157.2 1472.8h-250.9v-2.4h249.9l145.1-145.1h371.7l126.7-126.7h430.2v2.4h-429.2l-126.7 126.7h-371.7z"/><path class="b" d="m3140.7 1440.2h-234.4v-2.4h233.4l116.7-116.8 1.7 1.7z"/><path class="b" d="m3095.1 1411.9h-47.6l-18.9-18.9h-99.3v-2.4h100.3l18.9 18.9h45.6l75.5-75.5 1.7 1.7z"/><path class="b" d="m2522 531.1h-6v-233.2l-212-211.9h-97.6l-120.1-120.2 4.2-4.2 118.4 118.3h97.6l215.5 215.5z"/><path class="b" d="m2564.8 570h-2.4v-285l-339.5-339.6 1.7-1.7 340.2 340.3z"/><path class="b" d="m2870.9 896.6h-78.9v-6.1h76.4l199.6-199.6 4.3 4.2z"/><path class="b" d="m3821.4 649.1h-539.8v-2.5h538.8l154.9-154.8h319.7v2.4h-318.7z"/><path class="b" d="m3758.9 532.3h-164.8v-2.4h163.8l299.6-299.6h280.8v2.4h-279.8z"/><path class="b" d="m3750.8 510h-128v-2.5h127l298.8-298.7h289.7v2.4h-288.7z"/><path class="b" d="m3740.2 295.7h-69.3v-6h66.8l227.2-227.2h82.9l55.4-55.4 4.2 4.3-57.1 57.1h-82.9z"/><path class="b" d="m2736 404.8l-4.2-4.2 70.6-70.7v-96.7l287.5-287.4 4.2 4.3-285.6 285.6v96.7z"/><path class="b" d="m2553.7 780h-206.1v-6h203.6l444.1-444.1v-108.2l0.9-0.9 141.4-141.4h83.1v-122h6v128h-86.6l-138.8 138.8v108.2z"/><path class="b" d="m2270.7 1492.9l-155.8-155.8v-243.9l-100.7-100.7 1.7-1.7 101.4 101.4v243.9l155.1 155.1z"/><path class="b" d="m2165.6 1324.6h-2.4v-151.8h2.4z"/><path class="b" d="m2714.5 1439.3l-158-158.1h-302.3l-54.5-54.5 1.7-1.7 53.8 53.8h302.3l158.7 158.8z"/><path class="b" d="m2193.4 1534.7l-196.6-196.7 4.2-4.2 196.7 196.6z"/><path class="b" d="m2142.4 1571.9l-51.8-51.9h-91.7v-2.4h92.7l52.5 52.6z"/><path class="b" d="m2100.6 1578.5l-29-29h-117.6v-6h120.1l30.7 30.7z"/><path class="b" d="m2072.8 1495.1h-57.8v-6h57.8z"/><path class="b" d="m2000.5 1809.4c0 3.9-3.2 7.1-7.1 7.1-3.8 0-7-3.2-7-7.1 0-3.8 3.2-7 7-7 3.9 0 7.1 3.2 7.1 7z"/><path class="b" d="m2059.1 1868.1c0 3.9-3.1 7-7 7-3.9 0-7-3.1-7-7 0-3.9 3.1-7 7-7 3.9 0 7 3.1 7 7z"/><path class="b" d="m2083.2 1868.1c0 3.9-3.2 7-7 7-3.9 0-7-3.1-7-7 0-3.9 3.1-7 7-7 3.8 0 7 3.1 7 7z"/><path class="b" d="m2107.3 1868.1c0 3.9-3.2 7-7 7-3.9 0-7.1-3.1-7.1-7 0-3.9 3.2-7 7.1-7 3.8 0 7 3.1 7 7z"/><path class="b" d="m2131.4 1868.1c0 3.9-3.2 7-7.1 7-3.8 0-7-3.1-7-7 0-3.9 3.2-7 7-7 3.9 0 7.1 3.1 7.1 7z"/><path class="b" d="m2155.4 1868.1c0 3.9-3.1 7-7 7-3.8 0-7-3.1-7-7 0-3.9 3.2-7 7-7 3.9 0 7 3.1 7 7z"/><path class="b" d="m2024.5 1809.4c0 3.9-3.1 7.1-7 7.1-3.9 0-7-3.2-7-7.1 0-3.8 3.1-7 7-7 3.9 0 7 3.2 7 7z"/><path class="b" d="m2048.6 1809.4c0 3.9-3.1 7.1-7 7.1-3.9 0-7-3.2-7-7.1 0-3.8 3.1-7 7-7 3.9 0 7 3.2 7 7z"/><path class="b" d="m2072.7 1809.4c0 3.9-3.1 7.1-7 7.1-3.9 0-7-3.2-7-7.1 0-3.8 3.1-7 7-7 3.9 0 7 3.2 7 7z"/><path class="b" d="m2096.8 1809.4c0 3.9-3.1 7.1-7 7.1-3.9 0-7-3.2-7-7.1 0-3.8 3.1-7 7-7 3.9 0 7 3.2 7 7z"/><path class="b" d="m2156.9 1907.5c0 3.9-3.1 7-7 7-3.9 0-7-3.1-7-7 0-3.9 3.1-7 7-7 3.9 0 7 3.1 7 7z"/><path class="b" d="m2475.6 613.5c0 6.2-5.1 11.3-11.3 11.3-6.2 0-11.2-5.1-11.2-11.3 0-6.2 5-11.2 11.2-11.2 6.2 0 11.3 5 11.3 11.2z"/><path class="b" d="m2530.4 532.8c0 6.2-5.1 11.2-11.3 11.2-6.2 0-11.2-5-11.2-11.2 0-6.2 5-11.3 11.2-11.3 6.2 0 11.3 5.1 11.3 11.3z"/><path class="b" d="m2744.1 402.6c0 6.2-5 11.3-11.2 11.3-6.3 0-11.3-5.1-11.3-11.3 0-6.2 5-11.2 11.3-11.2 6.2 0 11.2 5 11.2 11.2z"/><path class="b" d="m2112.4 159.3c0 6.2-5.1 11.2-11.3 11.2-6.2 0-11.2-5-11.2-11.2 0-6.2 5-11.3 11.2-11.3 6.2 0 11.3 5.1 11.3 11.3z"/><path class="b" d="m2010.1 1335.8c0 6.2-5 11.2-11.2 11.2-6.2 0-11.2-5-11.2-11.2 0-6.2 5-11.2 11.2-11.2 6.2 0 11.2 5 11.2 11.2z"/><path class="b" d="m2211.8 1538.5c0 6.2-5.1 11.2-11.3 11.2-6.2 0-11.2-5-11.2-11.2 0-6.2 5-11.2 11.2-11.2 6.2 0 11.3 5 11.3 11.2z"/><path class="b" d="m2028.8 1492.1c0 6.2-5.1 11.2-11.3 11.2-6.2 0-11.2-5-11.2-11.2 0-6.2 5-11.3 11.2-11.3 6.2 0 11.3 5.1 11.3 11.3z"/><path class="b" d="m2080.4 1492.1c0 6.2-5 11.2-11.2 11.2-6.3 0-11.3-5-11.3-11.2 0-6.2 5-11.3 11.3-11.3 6.2 0 11.2 5.1 11.2 11.3z"/><path class="b" d="m2113.9 1576.4c0 6.2-5 11.2-11.2 11.2-6.2 0-11.2-5-11.2-11.2 0-6.3 5-11.3 11.2-11.3 6.2 0 11.2 5 11.2 11.3z"/><path class="b" d="m1967 1546.5c0 6.2-5 11.2-11.2 11.2-6.2 0-11.3-5-11.3-11.2 0-6.2 5.1-11.2 11.3-11.2 6.2 0 11.2 5 11.2 11.2z"/><path class="b" d="m2160.7 1439c0 6.2-5 11.2-11.2 11.2-6.2 0-11.3-5-11.3-11.2 0-6.2 5.1-11.3 11.3-11.3 6.2 0 11.2 5.1 11.2 11.3z"/><path class="b" d="m2825.1 1420.9c0 10-8 18.1-18 18.1-10 0-18-8.1-18-18.1 0-9.9 8-18 18-18 10 0 18 8.1 18 18z"/><path class="b" d="m2596 2376.7c0 9.9-8 18-18 18-10 0-18-8.1-18-18 0-10 8-18 18-18 10 0 18 8 18 18z"/><path class="b" d="m2206.5 1576.4c0 9.9-8 18-18 18-10 0-18-8.1-18-18 0-10 8-18.1 18-18.1 10 0 18 8.1 18 18.1z"/><path class="b" d="m2621.6 201.7c0 10-8.1 18.1-18 18.1-10 0-18-8.1-18-18.1 0-9.9 8-18 18-18 9.9 0 18 8.1 18 18z"/><path class="b" d="m2818.7 1634.5c0 6.2-5.1 11.2-11.3 11.2-6.2 0-11.2-5-11.2-11.2 0-6.2 5-11.3 11.2-11.3 6.2 0 11.3 5.1 11.3 11.3z"/><path class="b" d="m2917.5 1907.5c0 6.2-5 11.3-11.2 11.3-6.2 0-11.3-5.1-11.3-11.3 0-6.2 5.1-11.2 11.3-11.2 6.2 0 11.2 5 11.2 11.2z"/><path class="b" d="m2811 1748.5c0 6.2-5 11.3-11.2 11.3-6.2 0-11.2-5.1-11.2-11.3 0-6.2 5-11.2 11.2-11.2 6.2 0 11.2 5 11.2 11.2z"/><path class="b" d="m2415.5 1948.7c0 6.2-5 11.2-11.2 11.2-6.2 0-11.3-5-11.3-11.2 0-6.2 5.1-11.2 11.3-11.2 6.2 0 11.2 5 11.2 11.2z"/><path class="b" d="m2622.1 2270.5c0 6.2-5 11.3-11.2 11.3-6.2 0-11.3-5.1-11.3-11.3 0-6.2 5.1-11.2 11.3-11.2 6.2 0 11.2 5 11.2 11.2z"/><path class="b" d="m2958.3 2134c0 6.2-5 11.3-11.2 11.3-6.2 0-11.3-5.1-11.3-11.3 0-6.2 5.1-11.2 11.3-11.2 6.2 0 11.2 5 11.2 11.2z"/><path class="b" d="m3418.4 2167.8c0 6.2-5 11.3-11.2 11.3-6.2 0-11.3-5.1-11.3-11.3 0-6.2 5.1-11.2 11.3-11.2 6.2 0 11.2 5 11.2 11.2z"/><path class="b" d="m3572.9 2056c0 6.2-5 11.2-11.2 11.2-6.2 0-11.3-5-11.3-11.2 0-6.2 5.1-11.3 11.3-11.3 6.2 0 11.2 5.1 11.2 11.3z"/><path class="b" d="m3514.8 1748.5c0 6.2-5 11.3-11.2 11.3-6.2 0-11.3-5.1-11.3-11.3 0-6.2 5.1-11.2 11.3-11.2 6.2 0 11.2 5 11.2 11.2z"/><path class="b" d="m3922 1657c0 6.2-5 11.2-11.2 11.2-6.2 0-11.3-5-11.3-11.2 0-6.2 5.1-11.3 11.3-11.3 6.2 0 11.2 5.1 11.2 11.3z"/><path class="b" d="m3354.2 1634.5c0 6.2-5 11.2-11.3 11.2-6.2 0-11.2-5-11.2-11.2 0-6.2 5-11.3 11.2-11.3 6.3 0 11.3 5.1 11.3 11.3z"/><path class="b" d="m3873.7 1446.6c0 6.2-5.1 11.2-11.3 11.2-6.2 0-11.2-5-11.2-11.2 0-6.2 5-11.3 11.2-11.3 6.2 0 11.3 5.1 11.3 11.3z"/><path class="b" d="m2245 1317.4c0 6.2-5 11.2-11.2 11.2-6.2 0-11.2-5-11.2-11.2 0-6.2 5-11.3 11.2-11.3 6.2 0 11.2 5.1 11.2 11.3z"/><path class="b" d="m2181.4 1101.3c0 6.2-5 11.2-11.2 11.2-6.3 0-11.3-5-11.3-11.2 0-6.2 5-11.3 11.3-11.3 6.2 0 11.2 5.1 11.2 11.3z"/><path class="b" d="m2680.1 923.9c0 6.2-5.1 11.2-11.3 11.2-6.2 0-11.2-5-11.2-11.2 0-6.2 5-11.3 11.2-11.3 6.2 0 11.3 5.1 11.3 11.3z"/><path class="b" d="m2804.4 893.4c0 6.2-5 11.3-11.3 11.3-6.2 0-11.2-5.1-11.2-11.3 0-6.2 5-11.2 11.2-11.2 6.3 0 11.3 5 11.3 11.2z"/><path class="b" d="m3081.6 691.6c0 6.2-5 11.3-11.2 11.3-6.3 0-11.3-5.1-11.3-11.3 0-6.2 5-11.2 11.3-11.2 6.2 0 11.2 5 11.2 11.2z"/><path class="b" d="m3225.9 1014c0 6.2-5.1 11.3-11.3 11.3-6.2 0-11.2-5.1-11.2-11.3 0-6.2 5-11.2 11.2-11.2 6.2 0 11.3 5 11.3 11.2z"/><path class="b" d="m3305.4 1188.9c0 6.2-5 11.2-11.2 11.2-6.2 0-11.3-5-11.3-11.2 0-6.2 5.1-11.2 11.3-11.2 6.2 0 11.2 5 11.2 11.2z"/><path class="b" d="m3400.7 570c0 6.2-5.1 11.2-11.3 11.2-6.2 0-11.2-5-11.2-11.2 0-6.3 5-11.3 11.2-11.3 6.2 0 11.3 5 11.3 11.3z"/><path class="b" d="m3400.7 404.5c0 6.2-5.1 11.2-11.3 11.2-6.2 0-11.2-5-11.2-11.2 0-6.3 5-11.3 11.2-11.3 6.2 0 11.3 5 11.3 11.3z"/><path class="b" d="m3680.1 292c0 6.3-5 11.3-11.2 11.3-6.3 0-11.3-5-11.3-11.3 0-6.2 5-11.2 11.3-11.2 6.2 0 11.2 5 11.2 11.2z"/><path class="b" d="m2022 991.7c0 3.9-3.1 7-7 7-3.8 0-7-3.1-7-7 0-3.9 3.2-7 7-7 3.9 0 7 3.1 7 7z"/><path class="b" d="m2171.4 1172.8c0 3.9-3.2 7-7 7-3.9 0-7-3.1-7-7 0-3.8 3.1-7 7-7 3.8 0 7 3.2 7 7z"/><path class="b" d="m2207.5 1225.8c0 3.9-3.1 7-7 7-3.9 0-7-3.1-7-7 0-3.8 3.1-7 7-7 3.9 0 7 3.2 7 7z"/><path class="b" d="m2171.4 1324.6c0 3.9-3.2 7-7 7-3.9 0-7-3.1-7-7 0-3.9 3.1-7 7-7 3.8 0 7 3.1 7 7z"/><path class="b" d="m2603.6 971.4c0 3.8-3.2 7-7 7-3.9 0-7.1-3.2-7.1-7 0-3.9 3.2-7 7.1-7 3.8 0 7 3.1 7 7z"/><path class="b" d="m2715.6 922.1c0 3.8-3.1 7-7 7-3.9 0-7-3.2-7-7 0-3.9 3.1-7.1 7-7.1 3.9 0 7 3.2 7 7.1z"/><path class="b" d="m2755.3 922.1c0 3.8-3.1 7-7 7-3.8 0-7-3.2-7-7 0-3.9 3.2-7.1 7-7.1 3.9 0 7 3.2 7 7.1z"/><path class="b" d="m2755.3 734c0 3.9-3.1 7-7 7-3.8 0-7-3.1-7-7 0-3.9 3.2-7 7-7 3.9 0 7 3.1 7 7z"/><path class="b" d="m3145.8 670.5c0 3.9-3.1 7.1-7 7.1-3.9 0-7-3.2-7-7.1 0-3.8 3.1-7 7-7 3.9 0 7 3.2 7 7z"/><path class="b" d="m3288.6 599.5c0 3.8-3.2 7-7 7-3.9 0-7.1-3.2-7.1-7 0-3.9 3.2-7.1 7.1-7.1 3.8 0 7 3.2 7 7.1z"/><path class="b" d="m3288.6 646.9c0 3.9-3.2 7-7 7-3.9 0-7.1-3.1-7.1-7 0-3.9 3.2-7 7.1-7 3.8 0 7 3.1 7 7z"/><path class="b" d="m3601.3 530.4c0 3.9-3.2 7.1-7 7.1-3.9 0-7-3.2-7-7.1 0-3.8 3.1-7 7-7 3.8 0 7 3.2 7 7z"/><path class="b" d="m3630.1 508.2c0 3.9-3.1 7-7 7-3.8 0-7-3.1-7-7 0-3.9 3.2-7 7-7 3.9 0 7 3.1 7 7z"/><path class="b" d="m3221 253.3c0 3.8-3.1 7-7 7-3.9 0-7-3.2-7-7 0-3.9 3.1-7 7-7 3.9 0 7 3.1 7 7z"/><path class="b" d="m3314.4 219.8c0 3.8-3.2 7-7 7-3.9 0-7.1-3.2-7.1-7 0-3.9 3.2-7.1 7.1-7.1 3.8 0 7 3.2 7 7.1z"/><path class="b" d="m3472.1 329.1c0 3.9-3.1 7.1-7 7.1-3.8 0-7-3.2-7-7.1 0-3.8 3.2-7 7-7 3.9 0 7 3.2 7 7z"/><path class="b" d="m3472.1 522.2c0 3.9-3.1 7-7 7-3.8 0-7-3.1-7-7 0-3.9 3.2-7 7-7 3.9 0 7 3.1 7 7z"/><path class="b" d="m3505.9 522.2c0 3.9-3.2 7-7 7-3.9 0-7.1-3.1-7.1-7 0-3.9 3.2-7 7.1-7 3.8 0 7 3.1 7 7z"/><path class="b" d="m3553.6 485.7c0 3.9-3.1 7.1-7 7.1-3.9 0-7-3.2-7-7.1 0-3.8 3.1-7 7-7 3.9 0 7 3.2 7 7z"/><path class="b" d="m3112.4 756.5c0 3.8-3.1 7-7 7-3.9 0-7-3.2-7-7 0-3.9 3.1-7.1 7-7.1 3.9 0 7 3.2 7 7.1z"/><path class="b" d="m2968.5 1014c0 3.9-3.1 7-7 7-3.8 0-7-3.1-7-7 0-3.8 3.2-7 7-7 3.9 0 7 3.2 7 7z"/><path class="b" d="m3013.9 1014c0 3.9-3.1 7-7 7-3.8 0-7-3.1-7-7 0-3.8 3.2-7 7-7 3.9 0 7 3.2 7 7z"/><path class="b" d="m3059.1 1014c0 3.9-3.1 7-7 7-3.9 0-7-3.1-7-7 0-3.8 3.1-7 7-7 3.9 0 7 3.2 7 7z"/><path class="b" d="m3102.5 1014c0 3.9-3.2 7-7 7-3.9 0-7.1-3.1-7.1-7 0-3.8 3.2-7 7.1-7 3.8 0 7 3.2 7 7z"/><path class="b" d="m3145.8 1014c0 3.9-3.1 7-7 7-3.9 0-7-3.1-7-7 0-3.8 3.1-7 7-7 3.9 0 7 3.2 7 7z"/><path class="b" d="m2961.5 1061.5c0 3.9-3.1 7.1-7 7.1-3.9 0-7-3.2-7-7.1 0-3.8 3.1-7 7-7 3.9 0 7 3.2 7 7z"/><path class="b" d="m3484.3 1061.5c0 3.9-3.1 7.1-7 7.1-3.9 0-7-3.2-7-7.1 0-3.8 3.1-7 7-7 3.9 0 7 3.2 7 7z"/><path class="b" d="m3586.6 1014c0 3.9-3.1 7-7 7-3.9 0-7-3.1-7-7 0-3.8 3.1-7 7-7 3.9 0 7 3.2 7 7z"/><path class="b" d="m3554.7 907.4c0 3.9-3.1 7.1-7 7.1-3.9 0-7-3.2-7-7.1 0-3.8 3.1-7 7-7 3.9 0 7 3.2 7 7z"/><path class="b" d="m3609.5 893.4c0 3.9-3.1 7-7 7-3.9 0-7-3.1-7-7 0-3.9 3.1-7 7-7 3.9 0 7 3.1 7 7z"/><path class="b" d="m3484.3 1197.8c0 3.9-3.1 7-7 7-3.9 0-7-3.1-7-7 0-3.9 3.1-7 7-7 3.9 0 7 3.1 7 7z"/><path class="b" d="m3472.1 1254.1c0 3.8-3.1 7-7 7-3.8 0-7-3.2-7-7 0-3.9 3.2-7 7-7 3.9 0 7 3.1 7 7z"/><path class="b" d="m2177.2 971.4c0 3.8-3.2 7-7 7-3.9 0-7.1-3.2-7.1-7 0-3.9 3.2-7 7.1-7 3.8 0 7 3.1 7 7z"/><path class="b" d="m2177.2 1014c0 3.9-3.2 7-7 7-3.9 0-7.1-3.1-7.1-7 0-3.8 3.2-7 7.1-7 3.8 0 7 3.2 7 7z"/><path class="b" d="m2177.2 1062c0 3.9-3.2 7-7 7-3.9 0-7.1-3.1-7.1-7 0-3.8 3.2-7 7.1-7 3.8 0 7 3.2 7 7z"/><path class="b" d="m2231.6 1062c0 3.9-3.1 7-7 7-3.9 0-7-3.1-7-7 0-3.8 3.1-7 7-7 3.9 0 7 3.2 7 7z"/><path class="b" d="m2177.2 1130.2c0 3.9-3.2 7-7 7-3.9 0-7.1-3.1-7.1-7 0-3.9 3.2-7 7.1-7 3.8 0 7 3.1 7 7z"/><path class="b" d="m2722.4 1438.4c0 3.9-3.1 7-7 7-3.9 0-7-3.1-7-7 0-3.9 3.1-7 7-7 3.9 0 7 3.1 7 7z"/><path class="b" d="m2313.5 1210.2c0 3.9-3.1 7-7 7-3.9 0-7-3.1-7-7 0-3.9 3.1-7 7-7 3.9 0 7 3.1 7 7z"/><path class="b" d="m2240.8 1349.2c0 3.9-3.1 7.1-7 7.1-3.9 0-7-3.2-7-7.1 0-3.8 3.1-7 7-7 3.9 0 7 3.2 7 7z"/><path class="b" d="m2240.8 1391.8c0 3.8-3.1 7-7 7-3.9 0-7-3.2-7-7 0-3.9 3.1-7.1 7-7.1 3.9 0 7 3.2 7 7.1z"/><path class="b" d="m2278.5 1492.1c0 3.8-3.1 7-7 7-3.9 0-7-3.2-7-7 0-3.9 3.1-7 7-7 3.9 0 7 3.1 7 7z"/><path class="b" d="m2150.3 1571c0 3.9-3.2 7-7 7-3.9 0-7.1-3.1-7.1-7 0-3.9 3.2-7 7.1-7 3.8 0 7 3.1 7 7z"/><path class="b" d="m2005 1518.8c0 3.9-3.2 7-7 7-3.9 0-7.1-3.1-7.1-7 0-3.9 3.2-7 7.1-7 3.8 0 7 3.1 7 7z"/><path class="b" d="m2332.2 1375.2c0 3.8-3.1 7-7 7-3.9 0-7-3.2-7-7 0-3.9 3.1-7 7-7 3.9 0 7 3.1 7 7z"/><path class="b" d="m2331.6 1578.2c0 3.9-3.1 7-7 7-3.9 0-7-3.1-7-7 0-3.9 3.1-7 7-7 3.9 0 7 3.1 7 7z"/><path class="b" d="m2411.3 1578.2c0 3.9-3.2 7-7 7-3.9 0-7-3.1-7-7 0-3.9 3.1-7 7-7 3.8 0 7 3.1 7 7z"/><path class="b" d="m2753.2 1505.6c0 3.9-3.2 7-7.1 7-3.8 0-7-3.1-7-7 0-3.9 3.2-7 7-7 3.9 0 7.1 3.1 7.1 7z"/><path class="b" d="m2446 1420.9c0 3.9-3.1 7.1-7 7.1-3.9 0-7-3.2-7-7.1 0-3.8 3.1-7 7-7 3.9 0 7 3.2 7 7z"/><path class="b" d="m2684.5 1748.5c0 3.9-3.2 7.1-7 7.1-3.9 0-7.1-3.2-7.1-7.1 0-3.8 3.2-7 7.1-7 3.8 0 7 3.2 7 7z"/><path class="b" d="m2372.5 1838.8c0 3.8-3.1 7-7 7-3.9 0-7-3.2-7-7 0-3.9 3.1-7 7-7 3.9 0 7 3.1 7 7z"/><path class="b" d="m2372.5 1926.8c0 3.9-3.1 7-7 7-3.9 0-7-3.1-7-7 0-3.9 3.1-7 7-7 3.9 0 7 3.1 7 7z"/><path class="b" d="m2352.8 2084c0 3.9-3.2 7.1-7.1 7.1-3.8 0-7-3.2-7-7.1 0-3.8 3.2-7 7-7 3.9 0 7.1 3.2 7.1 7z"/><path class="b" d="m2872.4 1820.1c0 3.9-3.2 7-7.1 7-3.8 0-7-3.1-7-7 0-3.9 3.2-7 7-7 3.9 0 7.1 3.1 7.1 7z"/><path class="b" d="m3858.2 2288.8c0 3.9-3.1 7-7 7-3.9 0-7-3.1-7-7 0-3.9 3.1-7 7-7 3.9 0 7 3.1 7 7z"/><path class="b" d="m3187.9 2315.8c0 3.9-3.1 7-7 7-3.9 0-7-3.1-7-7 0-3.9 3.1-7 7-7 3.9 0 7 3.1 7 7z"/><path class="b" d="m3554.5 1681.6c0 3.8-3.1 7-7 7-3.8 0-7-3.2-7-7 0-3.9 3.2-7.1 7-7.1 3.9 0 7 3.2 7 7.1z"/><path class="b" d="m3572.6 1684.6c0 3.8-3.1 7-7 7-3.9 0-7-3.2-7-7 0-3.9 3.1-7.1 7-7.1 3.9 0 7 3.2 7 7.1z"/><path class="b" d="m3714.6 1589.4c0 3.9-3.1 7-7 7-3.9 0-7-3.1-7-7 0-3.9 3.1-7 7-7 3.9 0 7 3.1 7 7z"/><path class="b" d="m3674.5 1668.2c0 3.9-3.2 7-7 7-3.9 0-7-3.1-7-7 0-3.9 3.1-7 7-7 3.8 0 7 3.1 7 7z"/><path class="b" d="m3389.8 1633.3c0 3.9-3.1 7-7 7-3.9 0-7-3.1-7-7 0-3.9 3.1-7 7-7 3.9 0 7 3.1 7 7z"/><path class="b" d="m3176.6 1335.8c0 3.9-3.1 7-7 7-3.8 0-7-3.1-7-7 0-3.9 3.2-7 7-7 3.9 0 7 3.1 7 7z"/><path class="b" d="m2934.6 1391.8c0 3.9-3.2 7-7.1 7-3.8 0-7-3.1-7-7 0-3.9 3.2-7 7-7 3.9 0 7.1 3.1 7.1 7z"/><path class="b" d="m2914.9 1439c0 3.8-3.1 7-7 7-3.9 0-7-3.2-7-7 0-3.9 3.1-7.1 7-7.1 3.9 0 7 3.2 7 7.1z"/><path class="b" d="m2914.9 1470.9c0 3.9-3.1 7-7 7-3.9 0-7-3.1-7-7 0-3.9 3.1-7 7-7 3.9 0 7 3.1 7 7z"/><path class="b" d="m3263.5 1321.8c0 3.8-3.1 7-7 7-3.9 0-7-3.2-7-7 0-3.9 3.1-7 7-7 3.9 0 7 3.1 7 7z"/><path class="b" d="m4102.2 1377.6c0 3.9-3.1 7-7 7-3.9 0-7-3.1-7-7 0-3.9 3.1-7 7-7 3.9 0 7 3.1 7 7z"/><path class="b" d="m2872.4 1852.1c0 3.9-3.2 7-7.1 7-3.8 0-7-3.1-7-7 0-3.9 3.2-7 7-7 3.9 0 7.1 3.1 7.1 7z"/><path class="b" d="m2498.4 632c0 3.9-3.2 7-7.1 7-3.8 0-7-3.1-7-7 0-3.9 3.2-7 7-7 3.9 0 7.1 3.1 7.1 7z"/><path class="b" d="m2571.1 570.7c0 3.9-3.1 7-7 7-3.9 0-7-3.1-7-7 0-3.9 3.1-7 7-7 3.9 0 7 3.1 7 7z"/><path class="b" d="m2482.1 720c0 3.9-3.1 7-7 7-3.9 0-7-3.1-7-7 0-3.9 3.1-7 7-7 3.9 0 7 3.1 7 7z"/><path class="b" d="m2402.6 748.9c0 3.9-3.1 7-7 7-3.9 0-7-3.1-7-7 0-3.9 3.1-7 7-7 3.9 0 7 3.1 7 7z"/><path class="b" d="m2353.9 777.2c0 3.9-3.2 7-7.1 7-3.8 0-7-3.1-7-7 0-3.9 3.2-7 7-7 3.9 0 7.1 3.1 7.1 7z"/><path class="b" d="m2626.7 528.6c0 3.8-3.2 7-7.1 7-3.8 0-7-3.2-7-7 0-3.9 3.2-7.1 7-7.1 3.9 0 7.1 3.2 7.1 7.1z"/><path class="b" d="m2726.1 521.5c0 3.9-3.2 7.1-7 7.1-3.9 0-7.1-3.2-7.1-7.1 0-3.8 3.2-7 7.1-7 3.8 0 7 3.2 7 7z"/><path class="b" d="m2364.7 896.9c0 4.8-3.9 8.6-8.6 8.6-4.8 0-8.7-3.8-8.7-8.6 0-4.8 3.9-8.7 8.7-8.7 4.7 0 8.6 3.9 8.6 8.7z"/><path class="b" d="m2423.9 896.9c0 4.8-3.8 8.6-8.6 8.6-4.8 0-8.7-3.8-8.7-8.6 0-4.8 3.9-8.7 8.7-8.7 4.8 0 8.6 3.9 8.6 8.7z"/><path class="b" d="m2483.2 896.9c0 4.8-3.9 8.6-8.7 8.6-4.8 0-8.7-3.8-8.7-8.6 0-4.8 3.9-8.7 8.7-8.7 4.8 0 8.7 3.9 8.7 8.7z"/><path class="b" d="m2542.4 896.9c0 4.8-3.9 8.6-8.7 8.6-4.8 0-8.6-3.8-8.6-8.6 0-4.8 3.8-8.7 8.6-8.7 4.8 0 8.7 3.9 8.7 8.7z"/><path class="b" d="m2601.6 896.9c0 4.8-3.9 8.6-8.7 8.6-4.7 0-8.6-3.8-8.6-8.6 0-4.8 3.9-8.7 8.6-8.7 4.8 0 8.7 3.9 8.7 8.7z"/><path class="b" d="m2767.8 1252.1c0 7.5-6.2 13.6-13.7 13.6-7.6 0-13.7-6.1-13.7-13.6 0-7.6 6.1-13.7 13.7-13.7 7.5 0 13.7 6.1 13.7 13.7z"/><path class="b" d="m2861.3 1252.1c0 7.5-6.1 13.6-13.6 13.6-7.6 0-13.7-6.1-13.7-13.6 0-7.6 6.1-13.7 13.7-13.7 7.5 0 13.6 6.1 13.6 13.7z"/><path class="b" d="m2954.9 1252.1c0 7.5-6.1 13.6-13.7 13.6-7.5 0-13.6-6.1-13.6-13.6 0-7.6 6.1-13.7 13.6-13.7 7.6 0 13.7 6.1 13.7 13.7z"/><path class="b" d="m2968.6 1570.2c0 7.6-6.1 13.7-13.7 13.7-7.5 0-13.7-6.1-13.7-13.7 0-7.5 6.2-13.6 13.7-13.6 7.6 0 13.7 6.1 13.7 13.6z"/><path class="b" d="m3062.2 1570.2c0 7.6-6.2 13.7-13.7 13.7-7.6 0-13.7-6.1-13.7-13.7 0-7.5 6.1-13.6 13.7-13.6 7.5 0 13.7 6.1 13.7 13.6z"/><path class="b" d="m3155.7 1570.2c0 7.6-6.1 13.7-13.6 13.7-7.6 0-13.7-6.1-13.7-13.7 0-7.5 6.1-13.6 13.7-13.6 7.5 0 13.6 6.1 13.6 13.6z"/><path class="b" d="m2148.9 2391.8c5.5 0 10 4.5 10 10.1 0 5.6-4.5 10.1-10 10.1-5.6 0-10.1-4.5-10.1-10.1 0-5.6 4.5-10.1 10.1-10.1z"/><path class="b" d="m2148.9 2322.9c5.5 0 10 4.5 10 10.1 0 5.5-4.5 10-10 10-5.6 0-10.1-4.5-10.1-10 0-5.6 4.5-10.1 10.1-10.1z"/><path class="b" d="m2148.9 2254c5.5 0 10 4.5 10 10 0 5.6-4.5 10.1-10 10.1-5.6 0-10.1-4.5-10.1-10.1 0-5.5 4.5-10 10.1-10z"/><path class="b" d="m2148.9 2185c5.5 0 10 4.5 10 10.1 0 5.6-4.5 10.1-10 10.1-5.6 0-10.1-4.5-10.1-10.1 0-5.6 4.5-10.1 10.1-10.1z"/><path class="b" d="m2148.9 2116.1c5.5 0 10 4.5 10 10.1 0 5.5-4.5 10.1-10 10.1-5.6 0-10.1-4.6-10.1-10.1 0-5.6 4.5-10.1 10.1-10.1z"/><path class="b" d="m3713.9 1926.6c0 7.6-6.1 13.7-13.7 13.7-7.5 0-13.7-6.1-13.7-13.7 0-7.5 6.2-13.6 13.7-13.6 7.6 0 13.7 6.1 13.7 13.6z"/><path class="b" d="m3807.5 1926.6c0 7.6-6.2 13.7-13.7 13.7-7.6 0-13.7-6.1-13.7-13.7 0-7.5 6.1-13.6 13.7-13.6 7.5 0 13.7 6.1 13.7 13.6z"/><path class="b" d="m3901 1926.6c0 7.6-6.1 13.7-13.6 13.7-7.6 0-13.7-6.1-13.7-13.7 0-7.5 6.1-13.6 13.7-13.6 7.5 0 13.6 6.1 13.6 13.6z"/><path class="b" d="m3994.6 1926.6c0 7.6-6.1 13.7-13.7 13.7-7.5 0-13.6-6.1-13.6-13.7 0-7.5 6.1-13.6 13.6-13.6 7.6 0 13.7 6.1 13.7 13.6z"/><path class="b" d="m4088.2 1926.6c0 7.6-6.1 13.7-13.7 13.7-7.5 0-13.7-6.1-13.7-13.7 0-7.5 6.2-13.6 13.7-13.6 7.6 0 13.7 6.1 13.7 13.6z"/><path class="b" d="m3382.8 861.8c0 5.1-4.2 9.3-9.3 9.3-5.2 0-9.3-4.2-9.3-9.3 0-5.2 4.1-9.4 9.3-9.4 5.1 0 9.3 4.2 9.3 9.4z"/><path class="b" d="m3432.1 861.8c0 5.1-4.2 9.3-9.4 9.3-5.1 0-9.3-4.2-9.3-9.3 0-5.2 4.2-9.4 9.3-9.4 5.2 0 9.4 4.2 9.4 9.4z"/><path class="b" d="m3481.3 861.8c0 5.1-4.1 9.3-9.3 9.3-5.1 0-9.3-4.2-9.3-9.3 0-5.2 4.2-9.4 9.3-9.4 5.2 0 9.3 4.2 9.3 9.4z"/><path class="b" d="m3382.8 911c0 5.2-4.2 9.4-9.3 9.4-5.2 0-9.3-4.2-9.3-9.4 0-5.1 4.1-9.3 9.3-9.3 5.1 0 9.3 4.2 9.3 9.3z"/><path class="b" d="m3432.1 911c0 5.2-4.2 9.4-9.4 9.4-5.1 0-9.3-4.2-9.3-9.4 0-5.1 4.2-9.3 9.3-9.3 5.2 0 9.4 4.2 9.4 9.3z"/><path class="b" d="m3481.3 911c0 5.2-4.1 9.4-9.3 9.4-5.1 0-9.3-4.2-9.3-9.4 0-5.1 4.2-9.3 9.3-9.3 5.2 0 9.3 4.2 9.3 9.3z"/><path class="b" d="m3382.8 960.3c0 5.1-4.2 9.3-9.3 9.3-5.2 0-9.3-4.2-9.3-9.3 0-5.2 4.1-9.3 9.3-9.3 5.1 0 9.3 4.1 9.3 9.3z"/><path class="b" d="m3432.1 960.3c0 5.1-4.2 9.3-9.4 9.3-5.1 0-9.3-4.2-9.3-9.3 0-5.2 4.2-9.3 9.3-9.3 5.2 0 9.4 4.1 9.4 9.3z"/><path class="b" d="m3481.3 960.3c0 5.1-4.1 9.3-9.3 9.3-5.1 0-9.3-4.2-9.3-9.3 0-5.2 4.2-9.3 9.3-9.3 5.2 0 9.3 4.1 9.3 9.3z"/><path class="b" d="m3194.5 394.1c0 3.5-2.9 6.3-6.4 6.3-3.5 0-6.3-2.8-6.3-6.3 0-3.5 2.8-6.4 6.3-6.4 3.5 0 6.4 2.9 6.4 6.4z"/><path class="b" d="m3228.1 394.1c0 3.5-2.9 6.3-6.4 6.3-3.5 0-6.3-2.8-6.3-6.3 0-3.5 2.8-6.4 6.3-6.4 3.5 0 6.4 2.9 6.4 6.4z"/><path class="b" d="m3261.6 394.1c0 3.5-2.8 6.3-6.3 6.3-3.5 0-6.4-2.8-6.4-6.3 0-3.5 2.9-6.4 6.4-6.4 3.5 0 6.3 2.9 6.3 6.4z"/><path class="b" d="m3194.5 427.6c0 3.6-2.9 6.4-6.4 6.4-3.5 0-6.3-2.8-6.3-6.4 0-3.5 2.8-6.3 6.3-6.3 3.5 0 6.4 2.8 6.4 6.3z"/><path class="b" d="m3228.1 427.6c0 3.6-2.9 6.4-6.4 6.4-3.5 0-6.3-2.8-6.3-6.4 0-3.5 2.8-6.3 6.3-6.3 3.5 0 6.4 2.8 6.4 6.3z"/><path class="b" d="m3261.6 427.6c0 3.6-2.8 6.4-6.3 6.4-3.5 0-6.4-2.8-6.4-6.4 0-3.5 2.9-6.3 6.4-6.3 3.5 0 6.3 2.8 6.3 6.3z"/><path class="b" d="m3194.5 461.2c0 3.5-2.9 6.4-6.4 6.4-3.5 0-6.3-2.9-6.3-6.4 0-3.5 2.8-6.3 6.3-6.3 3.5 0 6.4 2.8 6.4 6.3z"/><path class="b" d="m3228.1 461.2c0 3.5-2.9 6.4-6.4 6.4-3.5 0-6.3-2.9-6.3-6.4 0-3.5 2.8-6.3 6.3-6.3 3.5 0 6.4 2.8 6.4 6.3z"/><path class="b" d="m3261.6 461.2c0 3.5-2.8 6.4-6.3 6.4-3.5 0-6.4-2.9-6.4-6.4 0-3.5 2.9-6.3 6.4-6.3 3.5 0 6.3 2.8 6.3 6.3z"/><path class="b" d="m-230.8 1018.5h-162.3l-0.4-0.3-410-410 1.7-1.7 409.7 409.6h160.3l92.6-92.6h241.3l66-65.9 1.7 1.7-66.7 66.6h-241.3z"/><path class="b" d="m-753.1 1465.3l-4.2-4.2 431.7-431.8h100l94.1-94.1h240.5l75.8-75.9 4.3 4.3-77.6 77.6h-240.5l-94.1 94.1h-100z"/><path class="b" d="m-702.6 1436l-1.7-1.7 388.2-388.2h102.3l93.8-93.7h146.9v2.4h-145.9l-93.8 93.8h-102.3z"/><path class="b" d="m1525 112.8h-6v-207.2h6z"/><path class="b" d="m1585.4 636.3l-1.7-1.7 26.8-26.8h49.7l36.4-36.4v-198l-51.8-51.8v-469h2.4v468l51.8 51.8v200l-37.8 37.8h-49.7z"/><path class="b" d="m1740.2 734.4l-58.6-58.6 1.7-1.7 58.6 58.6z"/><path class="b" d="m1716.1 734.4l-58.6-58.6 1.7-1.7 58.6 58.6z"/><path class="b" d="m1692 734.4l-58.6-58.6 1.7-1.7 58.6 58.6z"/><path class="b" d="m1667.9 734.4l-58.6-58.6 1.7-1.7 58.6 58.6z"/><path class="b" d="m1643.9 734.4l-58.7-58.6 1.7-1.7 58.7 58.6z"/><path class="b" d="m1582.9 1106.2l-86.9-87v-140.3l-347.4-347.4v-105.5l-510.9-510.9 4.3-4.2 512.6 512.6v105.5l347.4 347.4v140.3l85.1 85.2z"/><path class="b" d="m1500.7 1152.4h-51.8l-0.3-0.3-81.5-81.4v-110.5l-336.7-336.7v-89.9l-662.6-662.5 1.7-1.7 663.3 663.3v89.8l336.7 336.7v110.5l80.4 80.3h50.8z"/><path class="b" d="m1329.4 965.7l-330.3-330.3v-91l-642.1-642.1 1.7-1.8 642.8 642.9v91l329.6 329.6z"/><path class="b" d="m1407.8 967l-353-353v-92.3l-666.4-666.5 4.2-4.2 668.2 668.2v92.3l351.2 351.2z"/><path class="b" d="m350.9 2553.9l-4.3-4.2 815.4-815.4h235.4l164.8-164.8 4.3 4.3-166.6 166.5h-235.4z"/><path class="b" d="m-85.6 2586.4l-1.7-1.7 332.2-332.2h349l550.8-550.7h245.1l173.7-173.7 1.7 1.7-174.4 174.4h-245.1l-550.8 550.7h-349z"/><path class="b" d="m-256.5 2022h-318.4v-2.4h317.4l144.6-144.6h591l345-345h362l72.6 72.6h183.3l122.5-122.5 1.7 1.7-123.2 123.2h-185.3l-72.6-72.5h-360.1l-344.9 344.9h-591z"/><path class="b" d="m347.2 2140.7l-4.3-4.3 110.8-110.8h203l406.8-406.8 4.3 4.3-408.6 408.6h-203z"/><path class="b" d="m1564.3 1444.7h-75.6l-30.7-30.7h-223.4l-28.9 28.9h-269.8l-85.8-85.8h-409.8v-6h412.3l85.8 85.8h264.8l28.9-28.9h228.3l30.8 30.7h73.1z"/><path class="b" d="m1563.5 1413.7l-112.6-112.6h-321l-106.1-106.1h-317.9l-66.8 66.8h-400.6l-146.6 146.5h-695.7v-2.4h694.7l146.6-146.5h400.6l66.8-66.8h319.9l106.1 106.1h321l113.3 113.3z"/><path class="b" d="m765.3 2598.4l-1.7-1.7 283.5-283.4v-325.4l0.3-0.4 194.6-194.6h96.9v2.4h-95.9l-193.5 193.6v325.4l-0.4 0.3z"/><path class="b" d="m823.9 2582.4l-1.7-1.7 252.4-252.3v-322.3l0.3-0.3 183.6-183.6 1.7 1.7-183.2 183.2v322.3l-0.4 0.3z"/><path class="b" d="m1252.2 2613.1h-2.4v-232.5l-136.2-136.2v-230h2.5v229l136.1 136.2z"/><path class="b" d="m1633.4 2386.7h-194.6l-171.7-171.6v-285.6h6.1v283.1l168.1 168.1h192.1z"/><path class="b" d="m-270.5 1991h-333.3v-6.1h330.8l137.7-137.6h585.7l320.4-320.5 4.3 4.3-322.2 322.2h-585.7z"/><path class="b" d="m-289.6 1953.3h-337.7v-2.5h336.7l132.5-132.4h594.5l290.3-290.3 1.7 1.7-291 291h-594.5z"/><path class="b" d="m-310.6 1918.2h-316.7v-2.4h315.7l128.2-128.2h605.4l259.5-259.5 1.7 1.7-260.2 260.2h-605.4z"/><path class="b" d="m-327.2 1887.1h-300.1v-6h297.6l127.5-127.5h612.3l226.8-226.8 4.3 4.3-228.6 228.5h-612.3z"/><path class="b" d="m-349.5 1859.3h-277.8v-2.4h276.8l130.9-131h616.6l197.8-197.8 1.7 1.7-198.5 198.5h-616.6z"/><path class="b" d="m124 1603.9h-717v-6h714.5l71.9-71.9h326.5v6h-324z"/><path class="b" d="m1449.8 1545.3h-148.3l-64.4-64.4h-365.9l-57.9-57.9h-482.6l-75.6-75.7 4.2-4.2 73.9 73.9h482.6l57.9 57.9h365.9l64.4 64.4h143.3l60.5-60.5 4.2 4.3z"/><path class="b" d="m1500.7 1228.6h-258.8l-316.6-316.6 4.2-4.3 314.9 314.9h256.3z"/><path class="b" d="m1428 1334h-316.1l-108.6-108.6h-275.2l-64.8 64.7h-393.9v-2.4h392.9l64.8-64.7h277.2l108.6 108.6h315.1z"/><path class="b" d="m-217.2 1228.4h-410.1v-2.4h409.1l94.5-94.5h346.4l217.1-217.1h427.2l120 120-1.7 1.7-119.3-119.3h-425.2l-217.1 217.1h-346.4z"/><path class="b" d="m1500.7 1195h-247.9l-315.4-315.4h-497.6l-0.3-0.3-348.5-348.5h-173.3l-173.2-173.2h-339.3v-2.4h340.3l0.4 0.3 172.8 172.9h173.3l0.3 0.4 348.5 348.4h497.6l0.4 0.4 315 315h246.9z"/><path class="b" d="m1409.3 1170.8h-140.4l-320-320h-497.2l-0.9-0.9-344.8-344.8h-177.5l-0.9-0.9-481.3-481.3 4.2-4.3 480.5 480.5h177.4l0.9 0.8 344.9 344.9h497.2l0.9 0.9 319.1 319.1h137.9z"/><path class="b" d="m1296.7 1122.1h-2.4v-69.4l-157.9-157.9v-70.9l-347.1-347.2h-173.6l-0.3-0.3-217-217h-237.9l-0.4-0.4-267.8-267.8 1.7-1.7 267.5 267.5h237.8l0.4 0.3 217 217h173.6l0.4 0.4 348.1 348.2v70.9l157.9 157.9z"/><path class="b" d="m934.7 797.5h-455.7l-0.9-0.9-307.4-307.4 4.2-4.3 306.6 306.5h453.2z"/><path class="b" d="m1056.2 795.3l-284.7-284.6h-177.7l-0.3-0.4-219.3-219.3h-237.8l-0.4-0.3-356.5-356.5 1.7-1.7 356.2 356.1h237.8l0.4 0.4 219.2 219.2h177.7l0.4 0.4 285 285z"/><path class="b" d="m785.3 410.8l-97.8-97.8h-154.3l-0.9-0.9-140.1-140.1h-220.6l-244.7-244.8 4.2-4.2 243 242.9h220.6l0.9 0.9 140.1 140.2h154.3l99.5 99.5z"/><path class="b" d="m-95.4 1320.5h-456.2v-12h451.2l125.4-125.4h374.1l152.2-152.2h293.5l86.9 86.9-8.6 8.5-83.3-83.3h-283.6l-152.1 152.1h-374.1z"/><path class="b" d="m230.9 797.5h-268.7l-71.5-71.6h-465.6v-6h468l71.6 71.5h266.2z"/><path class="b" d="m-200 2140.7h-427.3v-6h424.8l164.7-164.7h382.9v6.1h-380.4z"/><path class="b" d="m-141.4 2582.4l-1.7-1.7 337.4-337.3v-72.4l0.3-0.4 73.6-73.5v-76.3h2.4v77.3l-0.4 0.4-73.5 73.5v72.4l-0.4 0.3z"/><path class="b" d="m-215 2607.2l-1.7-1.7 375.9-375.9v-71.7l0.3-0.3 74.9-74.9v-61.9h2.4v62.9l-0.3 0.3-74.9 74.9v71.7l-0.4 0.4z"/><path class="b" d="m-488.6 2565.5l-1.7-1.7 135.3-135.3h72.5l245.4-245.4h97.5l126.7-126.7 1.7 1.7-127.4 127.4h-97.5l-245.4 245.4h-72.5z"/><path class="b" d="m869.2 725.9h-357.8l-299.1-299h-197.1l-142.3-142.3h-81.1v-185l-171.9-172 4.2-4.2 173.7 173.7v181.4h77.6l142.3 142.3h197.1l0.9 0.9 298.2 298.2h355.3z"/><path class="b" d="m869.2 692.1h-349.8l-0.4-0.4-294-294h-198.6l-0.4-0.4-143-143.1 1.7-1.7 142.7 142.8h198.6l0.3 0.3 294.1 294.1h348.8z"/><path class="b" d="m826.1 637.6l-33-32.9h-240.6l-0.9-0.9-226.4-226.5 4.2-4.2 225.6 225.5h240.6l34.7 34.8z"/><path class="b" d="m1368.1 705.1l-190-190v-105.9l-437.6-437.7 1.7-1.7 438.3 438.4v105.9l189.3 189.3z"/><path class="b" d="m1370.2 616.2h-2.4v-106l46.9-46.9v-80.2l-196.7-196.7v-300.1h2.4v299.1l196.7 196.7v82.2l-46.9 46.9z"/><path class="b" d="m1387.9 459.8l-239-239h-92.4l-0.3-0.3-334.1-334.2 1.7-1.7 333.7 333.8h92.4l0.3 0.3 239.4 239.4z"/><path class="b" d="m1328.1 596.4l-56.5-56.4v-115.2l-150.1-150.2 4.2-4.3 152 152v115.2l54.7 54.7z"/><path class="b" d="m1157.5 172.9h-103.6l-202.9-202.8 8.5-8.5 199.3 199.3h98.7z"/><path class="b" d="m631 1944.7h-178.1v-2.4h177.1l97.1-97h72.7l225.3-225.2 1.7 1.7-226 225.9h-72.7z"/><path class="b" d="m630 1787.4l-1.7-1.7 215.2-215.3h294.4v2.4h-293.4z"/><path class="b" d="m598 1873.3l-1.7-1.7 251.9-251.9h138v2.4h-137z"/><path class="b" d="m548.1 2609.8l-1.7-1.7 268.6-268.6v-120l0.3-0.3 199.3-199.3 1.7 1.7-198.9 198.9v120l-0.4 0.4z"/><path class="b" d="m581.1 2215.9h-309.3v-2.4h308.3l405.2-405.2 1.7 1.7z"/><path class="b" d="m-29.7 2592.4l-1.8-1.7 302.8-302.7h248.6v2.4h-247.6z"/><path class="b" d="m112.5 2552.6l-1.7-1.7 193.3-193.2h85.9l35.8-35.8 1.7 1.7-36.5 36.5h-85.9z"/><path class="b" d="m205.3 1099.3h-335.8v-6h333.3l185.6-185.6 4.2 4.3z"/><path class="b" d="m-258.2 1168.7h-103.6v-6h101.1l152.6-152.7h275.5l103.2-103.1h81.1v6h-78.6l-103.2 103.2h-275.5z"/><path class="b" d="m69.4 875.2h-130.5l-43.2-43.2h-152l-47.1-47.1h-214.9v-2.5h215.9l47.1 47.2h152l43.2 43.1h129.5z"/><path class="b" d="m-305.5 942.4h-150.2v-6h147.7l53.4-53.4h82.6v6h-80.1z"/><path class="b" d="m552.9 228.4l-134.7-134.8h-173.1l-0.4-0.3-194.1-194.1 1.7-1.7 193.8 193.7h173.1l0.3 0.4 135.1 135.1z"/><path class="b" d="m783.6 1484h-478.2l-44.4-44.4h-779.3v-6h781.8l44.4 44.4h475.7z"/><path class="b" d="m112.4 1573.2h-680.1v-2.4h679.1l42.6-42.7 1.7 1.7z"/><path class="b" d="m54 1513.2h-161.3l-39.1-39.1h-435.8v-2.4h436.8l39.1 39.1h159.3l31.1-31h173.1v2.4h-172.1z"/><path class="b" d="m960.8 2610.6l-8.5-8.5 171.9-171.9v-89.3h12v94.3z"/><path class="b" d="m-362.2 1751.1h-180.2v-2.4h179.2l69.6-69.6h434.8l44.9-44.9 1.7 1.7-45.6 45.6h-434.8z"/><path class="b" d="m132.6 1650.7h-157.1l-18-18.1h-489.1v-2.4h490.1l18 18.1h156.1z"/><path class="b" d="m-65.2 1344.4h-430.3v-2.4h429.3l126.7-126.7h371.7l145.1-145.1h250.9v2.4h-249.9l-145.1 145.1h-371.7z"/><path class="b" d="m478.1 1222l-1.7-1.7 117.4-117.5h234.4v2.4h-233.4z"/><path class="b" d="m564.9 1209l-1.7-1.7 76.2-76.2h47.6l18.9 18.9h99.3v2.4h-100.3l-18.9-18.9h-45.6z"/><path class="b" d="m1613.8 2551.2l-88.2-88.1h-97.6l-215.5-215.5v-235.7h6v233.2l211.9 211.9h97.7l89.9 89.9z"/><path class="b" d="m1541.5 2630.8l-371.9-371.8v-286h2.5v285l371.1 371.1z"/><path class="b" d="m666.5 1852.1l-4.3-4.2 201.4-201.5h78.9v6.1h-76.4z"/><path class="b" d="m-240.8 2051.2h-319.7v-2.4h318.7l154.9-154.9h539.8v2.5h-538.8z"/><path class="b" d="m-323.1 2312.7h-280.7v-2.4h279.7l299.6-299.6h164.9v2.4h-163.9z"/><path class="b" d="m-314.1 2334.2h-289.7v-2.4h288.7l298.8-298.8h128v2.5h-127z"/><path class="b" d="m-368.7 2535.9l-4.2-4.3 57.1-57.1h82.9l227.2-227.2h69.3v6h-66.8l-227.3 227.2h-82.8z"/><path class="b" d="m638.3 2603.6l-4.3-4.3 292-292v-96.7l72.5-72.4 4.2 4.2-70.7 70.7v96.7l-0.8 0.8z"/><path class="b" d="m513.8 2533.7h-6v-76.1h86.6l138.8-138.8v-108.2l447.6-447.6h206.1v6h-203.6l-444.1 444.1v108.2l-0.9 0.9-141.4 141.4h-83.1z"/><path class="b" d="m1718.6 1552.2l-101.4-101.4v-243.9l-155.1-155.1 1.7-1.7 155.8 155.8v243.9l100.7 100.7z"/><path class="b" d="m1571.3 1370.2h-2.4v-151.8h2.4z"/><path class="b" d="m1533.1 1318l-53.8-53.8h-302.3l-158.7-158.8 1.7-1.7 158 158.1h302.3l54.5 54.5z"/><path class="b" d="m1733.5 1209.2l-196.7-196.6 4.2-4.3 196.7 196.7z"/><path class="b" d="m1735.6 1025.4h-92.7l-0.3-0.4-52.2-52.2 1.7-1.7 51.8 51.9h91.7z"/><path class="b" d="m1780.5 999.5h-120.1l-30.7-30.7 4.2-4.3 29 29h117.6z"/><path class="b" d="m1719.5 1053.9h-57.8v-6h57.8z"/><path class="b" d="m1734 733.6c0-3.9 3.2-7.1 7.1-7.1 3.8 0 7 3.2 7 7.1 0 3.8-3.2 7-7 7-3.9 0-7.1-3.2-7.1-7z"/><path class="b" d="m1675.4 674.9c0-3.9 3.1-7 7-7 3.9 0 7 3.1 7 7 0 3.9-3.1 7-7 7-3.9 0-7-3.1-7-7z"/><path class="b" d="m1651.3 674.9c0-3.9 3.2-7 7-7 3.9 0 7 3.1 7 7 0 3.9-3.1 7-7 7-3.8 0-7-3.1-7-7z"/><path class="b" d="m1627.2 674.9c0-3.9 3.2-7 7-7 3.9 0 7.1 3.1 7.1 7 0 3.9-3.2 7-7.1 7-3.8 0-7-3.1-7-7z"/><path class="b" d="m1603.1 674.9c0-3.9 3.2-7 7-7 3.9 0 7.1 3.1 7.1 7 0 3.9-3.2 7-7.1 7-3.8 0-7-3.1-7-7z"/><path class="b" d="m1579 674.9c0-3.9 3.2-7 7.1-7 3.8 0 7 3.1 7 7 0 3.9-3.2 7-7 7-3.9 0-7.1-3.1-7.1-7z"/><path class="b" d="m1710 733.6c0-3.9 3.1-7.1 7-7.1 3.8 0 7 3.2 7 7.1 0 3.8-3.2 7-7 7-3.9 0-7-3.2-7-7z"/><path class="b" d="m1685.9 733.6c0-3.9 3.1-7.1 7-7.1 3.9 0 7 3.2 7 7.1 0 3.8-3.1 7-7 7-3.9 0-7-3.2-7-7z"/><path class="b" d="m1661.8 733.6c0-3.9 3.1-7.1 7-7.1 3.9 0 7 3.2 7 7.1 0 3.8-3.1 7-7 7-3.9 0-7-3.2-7-7z"/><path class="b" d="m1637.7 733.6c0-3.9 3.1-7.1 7-7.1 3.9 0 7 3.2 7 7.1 0 3.8-3.1 7-7 7-3.9 0-7-3.2-7-7z"/><path class="b" d="m1577.6 635.5c0-3.9 3.1-7 7-7 3.8 0 7 3.1 7 7 0 3.9-3.2 7-7 7-3.9 0-7-3.1-7-7z"/><path class="b" d="m1258.9 1929.5c0-6.2 5-11.3 11.3-11.3 6.2 0 11.2 5.1 11.2 11.3 0 6.2-5 11.2-11.2 11.2-6.3 0-11.3-5-11.3-11.2z"/><path class="b" d="m1204.1 2010.2c0-6.2 5-11.2 11.3-11.2 6.2 0 11.2 5 11.2 11.2 0 6.2-5 11.3-11.2 11.3-6.3 0-11.3-5.1-11.3-11.3z"/><path class="b" d="m990.4 2140.4c0-6.2 5-11.3 11.2-11.3 6.2 0 11.3 5.1 11.3 11.3 0 6.2-5.1 11.2-11.3 11.2-6.2 0-11.2-5-11.2-11.2z"/><path class="b" d="m1622.1 2383.7c0-6.2 5.1-11.2 11.3-11.2 6.2 0 11.2 5 11.2 11.2 0 6.2-5 11.3-11.2 11.3-6.2 0-11.3-5.1-11.3-11.3z"/><path class="b" d="m1724.4 1207.2c0-6.2 5-11.2 11.2-11.2 6.2 0 11.2 5 11.2 11.2 0 6.2-5 11.2-11.2 11.2-6.2 0-11.2-5-11.2-11.2z"/><path class="b" d="m1522.7 1004.5c0-6.2 5.1-11.2 11.3-11.2 6.2 0 11.2 5 11.2 11.2 0 6.2-5 11.2-11.2 11.2-6.2 0-11.3-5-11.3-11.2z"/><path class="b" d="m1705.7 1050.9c0-6.2 5.1-11.2 11.3-11.2 6.2 0 11.2 5 11.2 11.2 0 6.2-5 11.3-11.2 11.3-6.2 0-11.3-5.1-11.3-11.3z"/><path class="b" d="m1654.1 1050.9c0-6.2 5-11.2 11.2-11.2 6.3 0 11.3 5 11.3 11.2 0 6.2-5 11.3-11.3 11.3-6.2 0-11.2-5.1-11.2-11.3z"/><path class="b" d="m1620.5 966.6c0-6.2 5.1-11.2 11.3-11.2 6.2 0 11.2 5 11.2 11.2 0 6.3-5 11.3-11.2 11.3-6.2 0-11.3-5-11.3-11.3z"/><path class="b" d="m1767.5 996.5c0-6.2 5-11.2 11.2-11.2 6.2 0 11.3 5 11.3 11.2 0 6.2-5.1 11.2-11.3 11.2-6.2 0-11.2-5-11.2-11.2z"/><path class="b" d="m1573.8 1104c0-6.2 5-11.2 11.2-11.2 6.2 0 11.3 5 11.3 11.2 0 6.2-5.1 11.3-11.3 11.3-6.2 0-11.2-5.1-11.2-11.3z"/><path class="b" d="m909.4 1122.1c0-10 8-18.1 18-18.1 9.9 0 18 8.1 18 18.1 0 9.9-8.1 18-18 18-10 0-18-8.1-18-18z"/><path class="b" d="m1138.5 166.3c0-9.9 8-18 18-18 9.9 0 18 8.1 18 18 0 10-8.1 18-18 18-10 0-18-8-18-18z"/><path class="b" d="m1528 966.6c0-9.9 8-18 18-18 9.9 0 18 8.1 18 18 0 10-8.1 18.1-18 18.1-10 0-18-8.1-18-18.1z"/><path class="b" d="m1112.9 2341.3c0-10 8.1-18.1 18-18.1 10 0 18 8.1 18 18.1 0 9.9-8 18-18 18-9.9 0-18-8.1-18-18z"/><path class="b" d="m915.8 908.5c0-6.2 5-11.2 11.3-11.2 6.2 0 11.2 5 11.2 11.2 0 6.2-5 11.3-11.2 11.3-6.3 0-11.3-5.1-11.3-11.3z"/><path class="b" d="m817 635.5c0-6.2 5-11.3 11.2-11.3 6.2 0 11.2 5.1 11.2 11.3 0 6.2-5 11.2-11.2 11.2-6.2 0-11.2-5-11.2-11.2z"/><path class="b" d="m923.4 794.5c0-6.2 5.1-11.3 11.3-11.3 6.2 0 11.2 5.1 11.2 11.3 0 6.2-5 11.2-11.2 11.2-6.2 0-11.3-5-11.3-11.2z"/><path class="b" d="m1319 594.3c0-6.2 5-11.2 11.2-11.2 6.2 0 11.3 5 11.3 11.2 0 6.2-5.1 11.2-11.3 11.2-6.2 0-11.2-5-11.2-11.2z"/><path class="b" d="m1112.4 272.5c0-6.2 5-11.3 11.2-11.3 6.2 0 11.3 5.1 11.3 11.3 0 6.2-5.1 11.2-11.3 11.2-6.2 0-11.2-5-11.2-11.2z"/><path class="b" d="m776.2 409c0-6.2 5-11.3 11.2-11.3 6.2 0 11.3 5.1 11.3 11.3 0 6.2-5.1 11.2-11.3 11.2-6.2 0-11.2-5-11.2-11.2z"/><path class="b" d="m316.1 375.2c0-6.2 5-11.3 11.2-11.3 6.2 0 11.3 5.1 11.3 11.3 0 6.2-5.1 11.2-11.3 11.2-6.2 0-11.2-5-11.2-11.2z"/><path class="b" d="m161.6 487c0-6.2 5-11.2 11.2-11.2 6.2 0 11.3 5 11.3 11.2 0 6.2-5.1 11.3-11.3 11.3-6.2 0-11.2-5.1-11.2-11.3z"/><path class="b" d="m219.7 794.5c0-6.2 5-11.3 11.2-11.3 6.2 0 11.3 5.1 11.3 11.3 0 6.2-5.1 11.2-11.3 11.2-6.2 0-11.2-5-11.2-11.2z"/><path class="b" d="m-187.5 886c0-6.2 5-11.2 11.2-11.2 6.2 0 11.3 5 11.3 11.2 0 6.2-5.1 11.3-11.3 11.3-6.2 0-11.2-5.1-11.2-11.3z"/><path class="b" d="m380.3 908.5c0-6.2 5-11.2 11.2-11.2 6.3 0 11.3 5 11.3 11.2 0 6.2-5 11.3-11.3 11.3-6.2 0-11.2-5.1-11.2-11.3z"/><path class="b" d="m-139.2 1096.4c0-6.2 5-11.2 11.3-11.2 6.2 0 11.2 5 11.2 11.2 0 6.2-5 11.3-11.2 11.3-6.3 0-11.3-5.1-11.3-11.3z"/><path class="b" d="m1489.5 1225.6c0-6.2 5-11.2 11.2-11.2 6.2 0 11.2 5 11.2 11.2 0 6.2-5 11.3-11.2 11.3-6.2 0-11.2-5.1-11.2-11.3z"/><path class="b" d="m1553.1 1441.7c0-6.2 5-11.2 11.2-11.2 6.2 0 11.3 5 11.3 11.2 0 6.2-5.1 11.3-11.3 11.3-6.2 0-11.2-5.1-11.2-11.3z"/><path class="b" d="m1054.4 1619.1c0-6.2 5-11.2 11.3-11.2 6.2 0 11.2 5 11.2 11.2 0 6.2-5 11.3-11.2 11.3-6.3 0-11.3-5.1-11.3-11.3z"/><path class="b" d="m930.1 1649.6c0-6.2 5-11.3 11.3-11.3 6.2 0 11.2 5.1 11.2 11.3 0 6.2-5 11.2-11.2 11.2-6.3 0-11.3-5-11.3-11.2z"/><path class="b" d="m652.9 1851.4c0-6.2 5-11.3 11.2-11.3 6.2 0 11.3 5.1 11.3 11.3 0 6.2-5.1 11.2-11.3 11.2-6.2 0-11.2-5-11.2-11.2z"/><path class="b" d="m508.6 1529c0-6.2 5.1-11.3 11.3-11.3 6.2 0 11.2 5.1 11.2 11.3 0 6.2-5 11.2-11.2 11.2-6.2 0-11.3-5-11.3-11.2z"/><path class="b" d="m429.1 1354.1c0-6.2 5-11.2 11.2-11.2 6.2 0 11.3 5 11.3 11.2 0 6.2-5.1 11.2-11.3 11.2-6.2 0-11.2-5-11.2-11.2z"/><path class="b" d="m333.8 1973c0-6.2 5.1-11.2 11.3-11.2 6.2 0 11.2 5 11.2 11.2 0 6.3-5 11.3-11.2 11.3-6.2 0-11.3-5-11.3-11.3z"/><path class="b" d="m333.8 2138.5c0-6.2 5.1-11.2 11.3-11.2 6.2 0 11.2 5 11.2 11.2 0 6.3-5 11.3-11.2 11.3-6.2 0-11.3-5-11.3-11.3z"/><path class="b" d="m54.4 2251c0-6.3 5-11.3 11.2-11.3 6.2 0 11.3 5 11.3 11.3 0 6.2-5.1 11.2-11.3 11.2-6.2 0-11.2-5-11.2-11.2z"/><path class="b" d="m1712.4 1551.3c0-3.9 3.2-7 7.1-7 3.8 0 7 3.1 7 7 0 3.9-3.2 7-7 7-3.9 0-7.1-3.1-7.1-7z"/><path class="b" d="m1563.1 1370.2c0-3.9 3.1-7 7-7 3.9 0 7 3.1 7 7 0 3.8-3.1 7-7 7-3.9 0-7-3.2-7-7z"/><path class="b" d="m1527 1317.2c0-3.9 3.1-7 7-7 3.9 0 7 3.1 7 7 0 3.8-3.1 7-7 7-3.9 0-7-3.2-7-7z"/><path class="b" d="m1563.1 1218.4c0-3.9 3.1-7 7-7 3.9 0 7 3.1 7 7 0 3.9-3.1 7-7 7-3.9 0-7-3.1-7-7z"/><path class="b" d="m1130.9 1571.6c0-3.8 3.2-7 7-7 3.9 0 7 3.2 7 7 0 3.9-3.1 7-7 7-3.8 0-7-3.1-7-7z"/><path class="b" d="m1018.9 1620.9c0-3.8 3.1-7 7-7 3.9 0 7 3.2 7 7 0 3.9-3.1 7.1-7 7.1-3.9 0-7-3.2-7-7.1z"/><path class="b" d="m979.1 1620.9c0-3.8 3.2-7 7.1-7 3.8 0 7 3.2 7 7 0 3.9-3.2 7.1-7 7.1-3.9 0-7.1-3.2-7.1-7.1z"/><path class="b" d="m979.1 1809c0-3.9 3.2-7 7.1-7 3.8 0 7 3.1 7 7 0 3.9-3.2 7-7 7-3.9 0-7.1-3.1-7.1-7z"/><path class="b" d="m588.7 1872.5c0-3.9 3.1-7.1 7-7.1 3.9 0 7 3.2 7 7.1 0 3.8-3.1 7-7 7-3.9 0-7-3.2-7-7z"/><path class="b" d="m445.9 1943.5c0-3.8 3.2-7 7-7 3.9 0 7.1 3.2 7.1 7 0 3.9-3.2 7.1-7.1 7.1-3.8 0-7-3.2-7-7.1z"/><path class="b" d="m445.9 1896.1c0-3.9 3.2-7 7-7 3.9 0 7.1 3.1 7.1 7 0 3.9-3.2 7-7.1 7-3.8 0-7-3.1-7-7z"/><path class="b" d="m133.2 2012.6c0-3.9 3.1-7.1 7-7.1 3.9 0 7 3.2 7 7.1 0 3.8-3.1 7-7 7-3.9 0-7-3.2-7-7z"/><path class="b" d="m104.4 2034.8c0-3.9 3.1-7 7-7 3.8 0 7 3.1 7 7 0 3.9-3.2 7-7 7-3.9 0-7-3.1-7-7z"/><path class="b" d="m513.5 2289.7c0-3.8 3.1-7 7-7 3.9 0 7 3.2 7 7 0 3.9-3.1 7-7 7-3.9 0-7-3.1-7-7z"/><path class="b" d="m420.1 2323.2c0-3.8 3.2-7 7-7 3.9 0 7.1 3.2 7.1 7 0 3.9-3.2 7.1-7.1 7.1-3.8 0-7-3.2-7-7.1z"/><path class="b" d="m262.3 2213.9c0-3.9 3.2-7.1 7.1-7.1 3.8 0 7 3.2 7 7.1 0 3.8-3.2 7-7 7-3.9 0-7.1-3.2-7.1-7z"/><path class="b" d="m262.3 2020.8c0-3.9 3.2-7 7.1-7 3.8 0 7 3.1 7 7 0 3.9-3.2 7-7 7-3.9 0-7.1-3.1-7.1-7z"/><path class="b" d="m228.6 2020.8c0-3.9 3.2-7 7-7 3.9 0 7.1 3.1 7.1 7 0 3.9-3.2 7-7.1 7-3.8 0-7-3.1-7-7z"/><path class="b" d="m180.9 2057.3c0-3.9 3.1-7.1 7-7.1 3.9 0 7 3.2 7 7.1 0 3.8-3.1 7-7 7-3.9 0-7-3.2-7-7z"/><path class="b" d="m622.1 1786.5c0-3.8 3.1-7 7-7 3.9 0 7 3.2 7 7 0 3.9-3.1 7.1-7 7.1-3.9 0-7-3.2-7-7.1z"/><path class="b" d="m765.9 1529c0-3.9 3.2-7 7.1-7 3.8 0 7 3.1 7 7 0 3.8-3.2 7-7 7-3.9 0-7.1-3.2-7.1-7z"/><path class="b" d="m720.5 1529c0-3.9 3.2-7 7.1-7 3.8 0 7 3.1 7 7 0 3.8-3.2 7-7 7-3.9 0-7.1-3.2-7.1-7z"/><path class="b" d="m675.4 1529c0-3.9 3.1-7 7-7 3.9 0 7 3.1 7 7 0 3.8-3.1 7-7 7-3.9 0-7-3.2-7-7z"/><path class="b" d="m632 1529c0-3.9 3.2-7 7-7 3.9 0 7.1 3.1 7.1 7 0 3.8-3.2 7-7.1 7-3.8 0-7-3.2-7-7z"/><path class="b" d="m588.7 1529c0-3.9 3.1-7 7-7 3.9 0 7 3.1 7 7 0 3.8-3.1 7-7 7-3.9 0-7-3.2-7-7z"/><path class="b" d="m773 1481.5c0-3.9 3.1-7.1 7-7.1 3.9 0 7 3.2 7 7.1 0 3.8-3.1 7-7 7-3.9 0-7-3.2-7-7z"/><path class="b" d="m250.2 1481.5c0-3.9 3.1-7.1 7-7.1 3.9 0 7 3.2 7 7.1 0 3.8-3.1 7-7 7-3.9 0-7-3.2-7-7z"/><path class="b" d="m147.9 1529c0-3.9 3.1-7 7-7 3.9 0 7 3.1 7 7 0 3.8-3.1 7-7 7-3.9 0-7-3.2-7-7z"/><path class="b" d="m179.8 1635.6c0-3.9 3.1-7.1 7-7.1 3.9 0 7 3.2 7 7.1 0 3.8-3.1 7-7 7-3.9 0-7-3.2-7-7z"/><path class="b" d="m125 1649.6c0-3.9 3.1-7 7-7 3.9 0 7 3.1 7 7 0 3.9-3.1 7-7 7-3.9 0-7-3.1-7-7z"/><path class="b" d="m250.2 1345.2c0-3.9 3.1-7 7-7 3.9 0 7 3.1 7 7 0 3.9-3.1 7-7 7-3.9 0-7-3.1-7-7z"/><path class="b" d="m262.3 1288.9c0-3.8 3.2-7 7.1-7 3.8 0 7 3.2 7 7 0 3.9-3.2 7-7 7-3.9 0-7.1-3.1-7.1-7z"/><path class="b" d="m1557.3 1571.6c0-3.8 3.2-7 7-7 3.9 0 7 3.2 7 7 0 3.9-3.1 7-7 7-3.8 0-7-3.1-7-7z"/><path class="b" d="m1557.3 1529c0-3.9 3.2-7 7-7 3.9 0 7 3.1 7 7 0 3.8-3.1 7-7 7-3.8 0-7-3.2-7-7z"/><path class="b" d="m1557.3 1481c0-3.9 3.2-7 7-7 3.9 0 7 3.1 7 7 0 3.8-3.1 7-7 7-3.8 0-7-3.2-7-7z"/><path class="b" d="m1502.9 1481c0-3.9 3.1-7 7-7 3.9 0 7 3.1 7 7 0 3.8-3.1 7-7 7-3.9 0-7-3.2-7-7z"/><path class="b" d="m1557.3 1412.8c0-3.9 3.2-7 7-7 3.9 0 7 3.1 7 7 0 3.9-3.1 7-7 7-3.8 0-7-3.1-7-7z"/><path class="b" d="m1012.1 1104.6c0-3.9 3.1-7 7-7 3.9 0 7 3.1 7 7 0 3.9-3.1 7-7 7-3.9 0-7-3.1-7-7z"/><path class="b" d="m1421 1332.8c0-3.9 3.1-7 7-7 3.9 0 7 3.1 7 7 0 3.9-3.1 7-7 7-3.9 0-7-3.1-7-7z"/><path class="b" d="m1493.7 1193.8c0-3.9 3.1-7.1 7-7.1 3.9 0 7 3.2 7 7.1 0 3.8-3.1 7-7 7-3.9 0-7-3.2-7-7z"/><path class="b" d="m1493.7 1151.2c0-3.8 3.1-7 7-7 3.9 0 7 3.2 7 7 0 3.9-3.1 7.1-7 7.1-3.9 0-7-3.2-7-7.1z"/><path class="b" d="m1456 1050.9c0-3.8 3.1-7 7-7 3.9 0 7 3.2 7 7 0 3.9-3.1 7-7 7-3.9 0-7-3.1-7-7z"/><path class="b" d="m1584.2 972c0-3.9 3.2-7 7-7 3.9 0 7 3.1 7 7 0 3.9-3.1 7-7 7-3.8 0-7-3.1-7-7z"/><path class="b" d="m1729.5 1024.2c0-3.9 3.2-7 7-7 3.9 0 7.1 3.1 7.1 7 0 3.9-3.2 7-7.1 7-3.8 0-7-3.1-7-7z"/><path class="b" d="m1402.3 1167.8c0-3.8 3.1-7 7-7 3.8 0 7 3.2 7 7 0 3.9-3.2 7-7 7-3.9 0-7-3.1-7-7z"/><path class="b" d="m1402.9 964.8c0-3.9 3.1-7 7-7 3.9 0 7 3.1 7 7 0 3.9-3.1 7-7 7-3.9 0-7-3.1-7-7z"/><path class="b" d="m1323.2 964.8c0-3.9 3.1-7 7-7 3.9 0 7 3.1 7 7 0 3.9-3.1 7-7 7-3.9 0-7-3.1-7-7z"/><path class="b" d="m981.3 1037.4c0-3.9 3.2-7 7.1-7 3.8 0 7 3.1 7 7 0 3.9-3.2 7-7 7-3.9 0-7.1-3.1-7.1-7z"/><path class="b" d="m1288.5 1122.1c0-3.9 3.1-7.1 7-7.1 3.9 0 7 3.2 7 7.1 0 3.8-3.1 7-7 7-3.9 0-7-3.2-7-7z"/><path class="b" d="m1050 794.5c0-3.9 3.2-7.1 7-7.1 3.9 0 7.1 3.2 7.1 7.1 0 3.8-3.2 7-7.1 7-3.8 0-7-3.2-7-7z"/><path class="b" d="m1362 704.2c0-3.8 3.1-7 7-7 3.9 0 7 3.2 7 7 0 3.9-3.1 7-7 7-3.9 0-7-3.1-7-7z"/><path class="b" d="m1362 616.2c0-3.9 3.1-7 7-7 3.9 0 7 3.1 7 7 0 3.9-3.1 7-7 7-3.9 0-7-3.1-7-7z"/><path class="b" d="m1381.7 459c0-3.9 3.2-7.1 7-7.1 3.9 0 7.1 3.2 7.1 7.1 0 3.8-3.2 7-7.1 7-3.8 0-7-3.2-7-7z"/><path class="b" d="m862.1 722.9c0-3.9 3.2-7 7.1-7 3.8 0 7 3.1 7 7 0 3.9-3.2 7-7 7-3.9 0-7.1-3.1-7.1-7z"/><path class="b" d="m-123.7 254.2c0-3.9 3.1-7 7-7 3.9 0 7 3.1 7 7 0 3.9-3.1 7-7 7-3.9 0-7-3.1-7-7z"/><path class="b" d="m546.6 227.2c0-3.9 3.1-7 7-7 3.9 0 7 3.1 7 7 0 3.9-3.1 7-7 7-3.9 0-7-3.1-7-7z"/><path class="b" d="m179.9 861.4c0-3.8 3.2-7 7.1-7 3.8 0 7 3.2 7 7 0 3.9-3.2 7.1-7 7.1-3.9 0-7.1-3.2-7.1-7.1z"/><path class="b" d="m161.9 858.4c0-3.8 3.1-7 7-7 3.9 0 7 3.2 7 7 0 3.9-3.1 7.1-7 7.1-3.9 0-7-3.2-7-7.1z"/><path class="b" d="m19.9 953.6c0-3.9 3.1-7 7-7 3.8 0 7 3.1 7 7 0 3.9-3.2 7-7 7-3.9 0-7-3.1-7-7z"/><path class="b" d="m60 874.8c0-3.9 3.1-7 7-7 3.9 0 7 3.1 7 7 0 3.9-3.1 7-7 7-3.9 0-7-3.1-7-7z"/><path class="b" d="m344.7 909.7c0-3.9 3.1-7 7-7 3.9 0 7 3.1 7 7 0 3.9-3.1 7-7 7-3.9 0-7-3.1-7-7z"/><path class="b" d="m557.9 1207.2c0-3.9 3.1-7 7-7 3.8 0 7 3.1 7 7 0 3.9-3.2 7-7 7-3.9 0-7-3.1-7-7z"/><path class="b" d="m799.9 1151.2c0-3.9 3.2-7 7.1-7 3.8 0 7 3.1 7 7 0 3.9-3.2 7-7 7-3.9 0-7.1-3.1-7.1-7z"/><path class="b" d="m819.6 1104c0-3.8 3.1-7 7-7 3.9 0 7 3.2 7 7 0 3.9-3.1 7.1-7 7.1-3.9 0-7-3.2-7-7.1z"/><path class="b" d="m819.6 1072.1c0-3.9 3.1-7 7-7 3.9 0 7 3.1 7 7 0 3.9-3.1 7-7 7-3.9 0-7-3.1-7-7z"/><path class="b" d="m471 1221.2c0-3.8 3.1-7 7-7 3.9 0 7 3.2 7 7 0 3.9-3.1 7-7 7-3.9 0-7-3.1-7-7z"/><path class="b" d="m-367.7 1165.4c0-3.9 3.1-7 7-7 3.9 0 7 3.1 7 7 0 3.9-3.1 7-7 7-3.9 0-7-3.1-7-7z"/><path class="b" d="m862.1 690.9c0-3.9 3.2-7 7.1-7 3.8 0 7 3.1 7 7 0 3.9-3.2 7-7 7-3.9 0-7.1-3.1-7.1-7z"/><path class="b" d="m1236.1 1911c0-3.9 3.2-7 7.1-7 3.8 0 7 3.1 7 7 0 3.9-3.2 7-7 7-3.9 0-7.1-3.1-7.1-7z"/><path class="b" d="m1163.4 1972.3c0-3.9 3.1-7 7-7 3.9 0 7 3.1 7 7 0 3.9-3.1 7-7 7-3.9 0-7-3.1-7-7z"/><path class="b" d="m1252.4 1823c0-3.9 3.1-7 7-7 3.9 0 7 3.1 7 7 0 3.9-3.1 7-7 7-3.9 0-7-3.1-7-7z"/><path class="b" d="m1331.9 1794.1c0-3.9 3.1-7 7-7 3.8 0 7 3.1 7 7 0 3.9-3.2 7-7 7-3.9 0-7-3.1-7-7z"/><path class="b" d="m1380.6 1765.8c0-3.9 3.2-7 7.1-7 3.8 0 7 3.1 7 7 0 3.9-3.2 7-7 7-3.9 0-7.1-3.1-7.1-7z"/><path class="b" d="m1107.8 2014.4c0-3.8 3.2-7 7.1-7 3.8 0 7 3.2 7 7 0 3.9-3.2 7.1-7 7.1-3.9 0-7.1-3.2-7.1-7.1z"/><path class="b" d="m1008.4 2021.5c0-3.9 3.2-7.1 7-7.1 3.9 0 7 3.2 7 7.1 0 3.8-3.1 7-7 7-3.8 0-7-3.2-7-7z"/><path class="b" d="m1369.8 1646.1c0-4.8 3.9-8.6 8.6-8.6 4.8 0 8.7 3.8 8.7 8.6 0 4.8-3.9 8.7-8.7 8.7-4.7 0-8.6-3.9-8.6-8.7z"/><path class="b" d="m1310.6 1646.1c0-4.8 3.8-8.6 8.6-8.6 4.8 0 8.7 3.8 8.7 8.6 0 4.8-3.9 8.7-8.7 8.7-4.8 0-8.6-3.9-8.6-8.7z"/><path class="b" d="m1251.3 1646.1c0-4.8 3.9-8.6 8.7-8.6 4.8 0 8.6 3.8 8.6 8.6 0 4.8-3.8 8.7-8.6 8.7-4.8 0-8.7-3.9-8.7-8.7z"/><path class="b" d="m1192.1 1646.1c0-4.8 3.9-8.6 8.7-8.6 4.7 0 8.6 3.8 8.6 8.6 0 4.8-3.9 8.7-8.6 8.7-4.8 0-8.7-3.9-8.7-8.7z"/><path class="b" d="m1132.9 1646.1c0-4.8 3.9-8.6 8.6-8.6 4.8 0 8.7 3.8 8.7 8.6 0 4.8-3.9 8.7-8.7 8.7-4.7 0-8.6-3.9-8.6-8.7z"/><path class="b" d="m966.7 1290.9c0-7.5 6.2-13.6 13.7-13.6 7.6 0 13.7 6.1 13.7 13.6 0 7.6-6.1 13.7-13.7 13.7-7.5 0-13.7-6.1-13.7-13.7z"/><path class="b" d="m873.2 1290.9c0-7.5 6.1-13.6 13.6-13.6 7.6 0 13.7 6.1 13.7 13.6 0 7.6-6.1 13.7-13.7 13.7-7.5 0-13.6-6.1-13.6-13.7z"/><path class="b" d="m779.6 1290.9c0-7.5 6.1-13.6 13.7-13.6 7.5 0 13.6 6.1 13.6 13.6 0 7.6-6.1 13.7-13.6 13.7-7.6 0-13.7-6.1-13.7-13.7z"/><path class="b" d="m765.9 972.8c0-7.6 6.1-13.7 13.7-13.7 7.5 0 13.7 6.1 13.7 13.7 0 7.5-6.2 13.6-13.7 13.6-7.6 0-13.7-6.1-13.7-13.6z"/><path class="b" d="m672.3 972.8c0-7.6 6.1-13.7 13.7-13.7 7.6 0 13.7 6.1 13.7 13.7 0 7.5-6.1 13.6-13.7 13.6-7.6 0-13.7-6.1-13.7-13.6z"/><path class="b" d="m578.7 972.8c0-7.6 6.2-13.7 13.7-13.7 7.6 0 13.7 6.1 13.7 13.7 0 7.5-6.1 13.6-13.7 13.6-7.5 0-13.7-6.1-13.7-13.6z"/><path class="b" d="m1585.6 151.2c-5.5 0-10-4.5-10-10.1 0-5.6 4.5-10.1 10-10.1 5.6 0 10.1 4.5 10.1 10.1 0 5.6-4.5 10.1-10.1 10.1z"/><path class="b" d="m1585.6 220.1c-5.5 0-10-4.5-10-10.1 0-5.5 4.5-10 10-10 5.6 0 10.1 4.5 10.1 10 0 5.6-4.5 10.1-10.1 10.1z"/><path class="b" d="m1585.6 289c-5.5 0-10-4.5-10-10 0-5.6 4.5-10.1 10-10.1 5.6 0 10.1 4.5 10.1 10.1 0 5.5-4.5 10-10.1 10z"/><path class="b" d="m1585.6 358c-5.5 0-10-4.5-10-10.1 0-5.6 4.5-10.1 10-10.1 5.6 0 10.1 4.5 10.1 10.1 0 5.6-4.5 10.1-10.1 10.1z"/><path class="b" d="m1585.6 426.9c-5.5 0-10-4.5-10-10.1 0-5.5 4.5-10.1 10-10.1 5.6 0 10.1 4.6 10.1 10.1 0 5.6-4.5 10.1-10.1 10.1z"/><path class="b" d="m20.6 616.4c0-7.6 6.1-13.7 13.7-13.7 7.5 0 13.7 6.1 13.7 13.7 0 7.5-6.2 13.6-13.7 13.6-7.6 0-13.7-6.1-13.7-13.6z"/><path class="b" d="m-73 616.4c0-7.6 6.2-13.7 13.7-13.7 7.6 0 13.7 6.1 13.7 13.7 0 7.5-6.1 13.6-13.7 13.6-7.5 0-13.7-6.1-13.7-13.6z"/><path class="b" d="m-166.5 616.4c0-7.6 6.1-13.7 13.6-13.7 7.6 0 13.7 6.1 13.7 13.7 0 7.5-6.1 13.6-13.7 13.6-7.5 0-13.6-6.1-13.6-13.6z"/><path class="b" d="m-260.1 616.4c0-7.6 6.1-13.7 13.7-13.7 7.5 0 13.6 6.1 13.6 13.7 0 7.5-6.1 13.6-13.6 13.6-7.6 0-13.7-6.1-13.7-13.6z"/><path class="b" d="m-353.7 616.4c0-7.6 6.1-13.7 13.7-13.7 7.5 0 13.7 6.1 13.7 13.7 0 7.5-6.2 13.6-13.7 13.6-7.6 0-13.7-6.1-13.7-13.6z"/><path class="b" d="m351.7 1681.2c0-5.1 4.2-9.3 9.3-9.3 5.2 0 9.3 4.2 9.3 9.3 0 5.2-4.1 9.4-9.3 9.4-5.1 0-9.3-4.2-9.3-9.4z"/><path class="b" d="m302.4 1681.2c0-5.1 4.2-9.3 9.4-9.3 5.1 0 9.3 4.2 9.3 9.3 0 5.2-4.2 9.4-9.3 9.4-5.2 0-9.4-4.2-9.4-9.4z"/><path class="b" d="m253.2 1681.2c0-5.1 4.1-9.3 9.3-9.3 5.1 0 9.3 4.2 9.3 9.3 0 5.2-4.2 9.4-9.3 9.4-5.2 0-9.3-4.2-9.3-9.4z"/><path class="b" d="m351.7 1632c0-5.2 4.2-9.4 9.3-9.4 5.2 0 9.3 4.2 9.3 9.4 0 5.1-4.1 9.3-9.3 9.3-5.1 0-9.3-4.2-9.3-9.3z"/><path class="b" d="m302.4 1632c0-5.2 4.2-9.4 9.4-9.4 5.1 0 9.3 4.2 9.3 9.4 0 5.1-4.2 9.3-9.3 9.3-5.2 0-9.4-4.2-9.4-9.3z"/><path class="b" d="m253.2 1632c0-5.2 4.1-9.4 9.3-9.4 5.1 0 9.3 4.2 9.3 9.4 0 5.1-4.2 9.3-9.3 9.3-5.2 0-9.3-4.2-9.3-9.3z"/><path class="b" d="m351.7 1582.7c0-5.1 4.2-9.3 9.3-9.3 5.2 0 9.3 4.2 9.3 9.3 0 5.2-4.1 9.3-9.3 9.3-5.1 0-9.3-4.1-9.3-9.3z"/><path class="b" d="m302.4 1582.7c0-5.1 4.2-9.3 9.4-9.3 5.1 0 9.3 4.2 9.3 9.3 0 5.2-4.2 9.3-9.3 9.3-5.2 0-9.4-4.1-9.4-9.3z"/><path class="b" d="m253.2 1582.7c0-5.1 4.1-9.3 9.3-9.3 5.1 0 9.3 4.2 9.3 9.3 0 5.2-4.2 9.3-9.3 9.3-5.2 0-9.3-4.1-9.3-9.3z"/><path class="b" d="m540 2148.9c0-3.5 2.9-6.3 6.4-6.3 3.5 0 6.3 2.8 6.3 6.3 0 3.5-2.8 6.4-6.3 6.4-3.5 0-6.4-2.9-6.4-6.4z"/><path class="b" d="m506.4 2148.9c0-3.5 2.9-6.3 6.4-6.3 3.5 0 6.3 2.8 6.3 6.3 0 3.5-2.8 6.4-6.3 6.4-3.5 0-6.4-2.9-6.4-6.4z"/><path class="b" d="m472.8 2148.9c0-3.5 2.9-6.3 6.4-6.3 3.5 0 6.4 2.8 6.4 6.3 0 3.5-2.9 6.4-6.4 6.4-3.5 0-6.4-2.9-6.4-6.4z"/><path class="b" d="m540 2115.4c0-3.6 2.9-6.4 6.4-6.4 3.5 0 6.3 2.8 6.3 6.4 0 3.5-2.8 6.3-6.3 6.3-3.5 0-6.4-2.8-6.4-6.3z"/><path class="b" d="m506.4 2115.4c0-3.6 2.9-6.4 6.4-6.4 3.5 0 6.3 2.8 6.3 6.4 0 3.5-2.8 6.3-6.3 6.3-3.5 0-6.4-2.8-6.4-6.3z"/><path class="b" d="m472.8 2115.4c0-3.6 2.9-6.4 6.4-6.4 3.5 0 6.4 2.8 6.4 6.4 0 3.5-2.9 6.3-6.4 6.3-3.5 0-6.4-2.8-6.4-6.3z"/><path class="b" d="m540 2081.8c0-3.5 2.9-6.4 6.4-6.4 3.5 0 6.3 2.9 6.3 6.4 0 3.5-2.8 6.3-6.3 6.3-3.5 0-6.4-2.8-6.4-6.3z"/><path class="b" d="m506.4 2081.8c0-3.5 2.9-6.4 6.4-6.4 3.5 0 6.3 2.9 6.3 6.4 0 3.5-2.8 6.3-6.3 6.3-3.5 0-6.4-2.8-6.4-6.3z"/><path class="b" d="m472.8 2081.8c0-3.5 2.9-6.4 6.4-6.4 3.5 0 6.4 2.9 6.4 6.4 0 3.5-2.9 6.3-6.4 6.3-3.5 0-6.4-2.8-6.4-6.3z"/><path class="b" d="m2112 950.8h-156.2v-6h153.7l254.8-254.8h74.7v6h-72.2z"/><path class="b" d="m1902.5 861.3l-4.3-4.2 117.8-117.8v-283l-151.8-151.8v-343.1h6.1v340.6l151.7 151.8v288z"/><path class="b" d="m1618.7 873.9l-145.7-145.7v-486.7l-89.1-89.1v-218.4h6v215.9l89.1 89.1v486.7l143.9 143.9z"/><path class="b" d="m2105.9 872l-4.2-4.3 285.9-285.9v-227.7l-125.2-125.2 4.2-4.3 127 127.1v232.6z"/><path class="b" d="m1722.8 913.2l-1.7-1.7 99.7-99.7v-394.4l-124.2-124.2v-348.6h2.4v347.6l124.2 124.2v396.4z"/><path class="b" d="m2100 770.2h-2.4v-161l78.6-78.6v-188.5l-128.1-128.2h-123.8v-2.4h124.8l0.4 0.4 129.2 129.2v190.5l-78.7 78.6z"/><path class="b" d="m2166 693.4l-1.7-1.7 109.2-109.1v-228.4l-80.9-80.9 1.7-1.7 81.6 81.6v230.4z"/><path class="b" d="m1903.1 787.4h-2.4v-89l-45.1-45v-246.2l-125.2-125.2v-311.3h2.4v310.3l125.3 125.2v246.2l45 45z"/><path class="b" d="m1609.5 871.8c0-6.2 5.1-11.3 11.3-11.3 6.2 0 11.2 5.1 11.2 11.3 0 6.2-5 11.2-11.2 11.2-6.2 0-11.3-5-11.3-11.2z"/><path class="b" d="m1889.1 859.2c0-6.2 5-11.3 11.3-11.3 6.2 0 11.2 5.1 11.2 11.3 0 6.2-5 11.2-11.2 11.2-6.3 0-11.3-5-11.3-11.2z"/><path class="b" d="m1510.8 112.8c0-6.2 5-11.3 11.2-11.3 6.2 0 11.3 5.1 11.3 11.3 0 6.2-5.1 11.2-11.3 11.2-6.2 0-11.2-5-11.2-11.2z"/><path class="b" d="m2252.2 226.8c0-6.2 5-11.3 11.3-11.3 6.2 0 11.2 5.1 11.2 11.3 0 6.2-5 11.2-11.2 11.2-6.3 0-11.3-5-11.3-11.2z"/><path class="b" d="m1944.5 947.8c0-6.2 5.1-11.3 11.3-11.3 6.2 0 11.2 5.1 11.2 11.3 0 6.2-5 11.2-11.2 11.2-6.2 0-11.3-5-11.3-11.2z"/><path class="b" d="m2092.6 869.9c0-6.3 5-11.3 11.2-11.3 6.2 0 11.3 5 11.3 11.3 0 6.2-5.1 11.2-11.3 11.2-6.2 0-11.2-5-11.2-11.2z"/><path class="b" d="m2427.7 693c0-6.2 5.1-11.2 11.3-11.2 6.2 0 11.2 5 11.2 11.2 0 6.2-5 11.3-11.2 11.3-6.2 0-11.3-5.1-11.3-11.3z"/><path class="b" d="m1917.3 212.7c0-3.8 3.2-7 7-7 3.9 0 7 3.2 7 7 0 3.9-3.1 7.1-7 7.1-3.8 0-7-3.2-7-7.1z"/><path class="b" d="m2186.4 272.5c0-3.9 3.2-7.1 7.1-7.1 3.8 0 7 3.2 7 7.1 0 3.8-3.2 7-7 7-3.9 0-7.1-3.2-7.1-7z"/><path class="b" d="m2091.8 770.2c0-3.9 3.2-7 7-7 3.9 0 7.1 3.1 7.1 7 0 3.8-3.2 7-7.1 7-3.8 0-7-3.2-7-7z"/><path class="b" d="m1894.8 790.3c0-3.9 3.2-7 7.1-7 3.8 0 7 3.1 7 7 0 3.9-3.2 7-7 7-3.9 0-7.1-3.1-7.1-7z"/><path class="b" d="m1715.1 912.4c0-3.9 3.1-7 7-7 3.9 0 7 3.1 7 7 0 3.9-3.1 7-7 7-3.9 0-7-3.1-7-7z"/><path class="b" d="m2158.7 692.6c0-3.9 3.1-7 7-7 3.9 0 7 3.1 7 7 0 3.9-3.1 7-7 7-3.9 0-7-3.1-7-7z"/><path class="b" d="m1370.9 1845.6h-74.7v-6.1h72.2l254.8-254.7h156.2v6h-153.7z"/><path class="b" d="m1871 2574.2h-6.1v-340.7l-151.7-151.7v-288l119.5-119.5 4.3 4.2-117.8 117.8v283l151.8 151.7z"/><path class="b" d="m2351.3 2601.5h-6.1v-215.9l-89-89v-486.8l-143.9-143.9 4.2-4.2 145.7 145.6v486.8l89.1 89z"/><path class="b" d="m1468.6 2310.9l-127-127v-232.6l0.8-0.9 286.8-286.8 4.3 4.3-285.9 285.9v227.6l125.2 125.3z"/><path class="b" d="m2038.6 2591h-2.5v-347.7l-124.1-124.1v-396.4l100.4-100.5 1.7 1.7-99.7 99.8v394.4l124.2 124.2z"/><path class="b" d="m1810.9 2324h-124.8l-129.6-129.5v-190.5l0.4-0.3 78.2-78.3v-160h2.5v161l-0.4 0.4-78.3 78.2v188.5l128.2 128.1h123.8z"/><path class="b" d="m1540.8 2264l-81.5-81.6v-230.4l0.3-0.3 109.6-109.6 1.7 1.8-109.2 109.1v228.4l80.8 80.9z"/><path class="b" d="m2004.8 2564.9h-2.4v-310.3l-125.3-125.3v-246.1l-45-45v-90.1h2.4v89.1l45 45v246.1l125.3 125.3z"/><path class="b" d="m2125.6 1663.8c0 6.2-5 11.2-11.2 11.2-6.2 0-11.2-5-11.2-11.2 0-6.2 5-11.2 11.2-11.2 6.2 0 11.2 5 11.2 11.2z"/><path class="b" d="m1846.1 1676.4c0 6.2-5.1 11.2-11.3 11.2-6.2 0-11.2-5-11.2-11.2 0-6.2 5-11.3 11.2-11.3 6.2 0 11.3 5.1 11.3 11.3z"/><path class="b" d="m2224.4 2422.8c0 6.2-5 11.3-11.2 11.3-6.3 0-11.3-5.1-11.3-11.3 0-6.2 5-11.2 11.3-11.2 6.2 0 11.2 5 11.2 11.2z"/><path class="b" d="m1483 2308.8c0 6.2-5.1 11.2-11.3 11.2-6.2 0-11.2-5-11.2-11.2 0-6.2 5-11.2 11.2-11.2 6.2 0 11.3 5 11.3 11.2z"/><path class="b" d="m1790.7 1587.8c0 6.2-5.1 11.2-11.3 11.2-6.2 0-11.2-5-11.2-11.2 0-6.2 5-11.2 11.2-11.2 6.2 0 11.3 5 11.3 11.2z"/><path class="b" d="m1642.6 1665.7c0 6.2-5 11.3-11.2 11.3-6.2 0-11.3-5.1-11.3-11.3 0-6.2 5.1-11.2 11.3-11.2 6.2 0 11.2 5 11.2 11.2z"/><path class="b" d="m1307.5 1842.6c0 6.2-5.1 11.2-11.3 11.2-6.2 0-11.2-5-11.2-11.2 0-6.3 5-11.3 11.2-11.3 6.2 0 11.3 5 11.3 11.3z"/><path class="b" d="m1817.9 2322.8c0 3.9-3.2 7-7 7-3.9 0-7.1-3.1-7.1-7 0-3.8 3.2-7 7.1-7 3.8 0 7 3.2 7 7z"/><path class="b" d="m1548.7 2263.1c0 3.9-3.1 7-7 7-3.8 0-7-3.1-7-7 0-3.9 3.2-7 7-7 3.9 0 7 3.1 7 7z"/><path class="b" d="m1643.4 1765.4c0 3.9-3.2 7-7.1 7-3.8 0-7-3.1-7-7 0-3.9 3.2-7 7-7 3.9 0 7.1 3.1 7.1 7z"/><path class="b" d="m1840.3 1745.3c0 3.9-3.1 7-7 7-3.8 0-7-3.1-7-7 0-3.9 3.2-7 7-7 3.9 0 7 3.1 7 7z"/><path class="b" d="m2020.1 1623.2c0 3.9-3.2 7-7 7-3.9 0-7-3.1-7-7 0-3.9 3.1-7 7-7 3.8 0 7 3.1 7 7z"/><path class="b" d="m1576.5 1843c0 3.9-3.1 7-7 7-3.9 0-7-3.1-7-7 0-3.9 3.1-7 7-7 3.9 0 7 3.1 7 7z"/><path class="b" d="m1954 503.2c-7.6 0-13.7-6.2-13.7-13.7 0-7.6 6.1-13.7 13.7-13.7 7.5 0 13.7 6.1 13.7 13.7 0 7.5-6.2 13.7-13.7 13.7z"/><path class="b" d="m1954 596.7c-7.6 0-13.7-6.1-13.7-13.6 0-7.6 6.1-13.7 13.7-13.7 7.5 0 13.7 6.1 13.7 13.7 0 7.5-6.2 13.6-13.7 13.6z"/><path class="b" d="m1954 690.3c-7.6 0-13.7-6.1-13.7-13.7 0-7.5 6.1-13.6 13.7-13.6 7.5 0 13.7 6.1 13.7 13.6 0 7.6-6.2 13.7-13.7 13.7z"/><path class="b" d="m1778.7 1853.9c-7.5 0-13.7-6.1-13.7-13.7 0-7.5 6.2-13.6 13.7-13.6 7.6 0 13.7 6.1 13.7 13.6 0 7.6-6.1 13.7-13.7 13.7z"/><path class="b" d="m1778.7 1947.5c-7.5 0-13.7-6.1-13.7-13.7 0-7.5 6.2-13.7 13.7-13.7 7.6 0 13.7 6.2 13.7 13.7 0 7.6-6.1 13.7-13.7 13.7z"/><path class="b" d="m1778.7 2041.1c-7.5 0-13.7-6.2-13.7-13.7 0-7.6 6.2-13.7 13.7-13.7 7.6 0 13.7 6.1 13.7 13.7 0 7.5-6.1 13.7-13.7 13.7z"/><path class="b" d="m2026.1 125.4c0-3.5 2.9-6.3 6.4-6.3 3.5 0 6.3 2.8 6.3 6.3 0 3.5-2.8 6.4-6.3 6.4-3.5 0-6.4-2.9-6.4-6.4z"/><path class="b" d="m1992.5 125.4c0-3.5 2.9-6.3 6.4-6.3 3.5 0 6.4 2.8 6.4 6.3 0 3.5-2.9 6.4-6.4 6.4-3.5 0-6.4-2.9-6.4-6.4z"/><path class="b" d="m1959 125.4c0-3.5 2.8-6.3 6.3-6.3 3.5 0 6.4 2.8 6.4 6.3 0 3.5-2.9 6.4-6.4 6.4-3.5 0-6.3-2.9-6.3-6.4z"/><path class="b" d="m2026.1 91.8c0-3.5 2.9-6.3 6.4-6.3 3.5 0 6.3 2.8 6.3 6.3 0 3.5-2.8 6.4-6.3 6.4-3.5 0-6.4-2.9-6.4-6.4z"/><path class="b" d="m1992.5 91.8c0-3.5 2.9-6.3 6.4-6.3 3.5 0 6.4 2.8 6.4 6.3 0 3.5-2.9 6.4-6.4 6.4-3.5 0-6.4-2.9-6.4-6.4z"/><path class="b" d="m1959 91.8c0-3.5 2.8-6.3 6.3-6.3 3.5 0 6.4 2.8 6.4 6.3 0 3.5-2.9 6.4-6.4 6.4-3.5 0-6.3-2.9-6.3-6.4z"/><path class="b" d="m2026.1 58.3c0-3.6 2.9-6.4 6.4-6.4 3.5 0 6.3 2.8 6.3 6.4 0 3.5-2.8 6.3-6.3 6.3-3.5 0-6.4-2.8-6.4-6.3z"/><path class="b" d="m1992.5 58.3c0-3.6 2.9-6.4 6.4-6.4 3.5 0 6.4 2.8 6.4 6.4 0 3.5-2.9 6.3-6.4 6.3-3.5 0-6.4-2.8-6.4-6.3z"/><path class="b" d="m1959 58.3c0-3.6 2.8-6.4 6.3-6.4 3.5 0 6.4 2.8 6.4 6.4 0 3.5-2.9 6.3-6.4 6.3-3.5 0-6.3-2.8-6.3-6.3z"/><path class="b" d="m1787.1 2474c0-3.5 2.9-6.4 6.4-6.4 3.5 0 6.3 2.9 6.3 6.4 0 3.5-2.8 6.3-6.3 6.3-3.5 0-6.4-2.8-6.4-6.3z"/><path class="b" d="m1753.6 2474c0-3.5 2.8-6.4 6.3-6.4 3.5 0 6.4 2.9 6.4 6.4 0 3.5-2.9 6.3-6.4 6.3-3.5 0-6.3-2.8-6.3-6.3z"/><path class="b" d="m1720 2474c0-3.5 2.8-6.4 6.3-6.4 3.5 0 6.4 2.9 6.4 6.4 0 3.5-2.9 6.3-6.4 6.3-3.5 0-6.3-2.8-6.3-6.3z"/><path class="b" d="m1787.1 2440.4c0-3.5 2.9-6.4 6.4-6.4 3.5 0 6.3 2.9 6.3 6.4 0 3.5-2.8 6.3-6.3 6.3-3.5 0-6.4-2.8-6.4-6.3z"/><path class="b" d="m1753.6 2440.4c0-3.5 2.8-6.4 6.3-6.4 3.5 0 6.4 2.9 6.4 6.4 0 3.5-2.9 6.3-6.4 6.3-3.5 0-6.3-2.8-6.3-6.3z"/><path class="b" d="m1720 2440.4c0-3.5 2.8-6.4 6.3-6.4 3.5 0 6.4 2.9 6.4 6.4 0 3.5-2.9 6.3-6.4 6.3-3.5 0-6.3-2.8-6.3-6.3z"/><path class="b" d="m1787.1 2406.8c0-3.5 2.9-6.3 6.4-6.3 3.5 0 6.3 2.8 6.3 6.3 0 3.5-2.8 6.4-6.3 6.4-3.5 0-6.4-2.9-6.4-6.4z"/><path class="b" d="m1753.6 2406.8c0-3.5 2.8-6.3 6.3-6.3 3.5 0 6.4 2.8 6.4 6.3 0 3.5-2.9 6.4-6.4 6.4-3.5 0-6.3-2.9-6.3-6.4z"/><path class="b" d="m1720 2406.8c0-3.5 2.8-6.3 6.3-6.3 3.5 0 6.4 2.8 6.4 6.3 0 3.5-2.9 6.4-6.4 6.4-3.5 0-6.3-2.9-6.3-6.4z"/><path class="b" d="m2083.4 1356.3h-6v-253.4l-103.4-103.4h-139.2v-6h141.7l106.9 106.9z"/><path class="b" d="m2026.3 1301.4l-69.9-70h-105.2l-117.7-117.7 4.2-4.2 115.9 115.9h105.3l71.7 71.7z"/><path class="b" d="m1918.5 1543.6h-171.7l-93-93v-267l-37.6-37.6 4.3-4.2 39.3 39.3v267l89.5 89.4h169.2z"/><path class="b" d="m1864.1 1485.3l-47.4-47.4v-67.1l-77.8-77.7 4.3-4.3 79.5 79.5v67.1l45.7 45.6z"/><path class="b" d="m2026.6 1164.7l-69.3-69.3h-89.4v-6h91.9l71.1 71.1z"/><path class="b" d="m2024.5 1409.5h-61.8l-159.6-159.6h-110.2v-2.4h111.2l159.6 159.6h60.8z"/><path class="b" d="m1967 1174.1h-96.1l-0.4-0.3-103.9-103.9 1.7-1.7 103.6 103.5h95.1z"/><path class="b" d="m2053.3 1248.7h-2.4v-120.7l-81.3-81.3h-143.3v-2.4h144.3l0.3 0.3 82.4 82.4z"/><path class="b" d="m1924.3 1512h-155.4l-77.2-77.3v-143.8h2.4v142.8l75.8 75.9h154.4z"/><path class="b" d="m1943.8 1345.1c-3.3 3.3-3.3 8.7 0 12 3.3 3.3 8.7 3.3 12 0 3.3-3.3 3.3-8.7 0-12-3.3-3.3-8.7-3.3-12 0z"/><path class="b" d="m1902.9 1304.2c-3.3 3.3-3.3 8.6 0 11.9 3.3 3.3 8.7 3.3 12 0 3.3-3.3 3.3-8.6 0-11.9-3.3-3.3-8.7-3.3-12 0z"/><path class="b" d="m1862 1263.2c-3.3 3.4-3.3 8.7 0 12 3.3 3.3 8.6 3.3 11.9 0 3.3-3.3 3.3-8.6 0-12-3.3-3.3-8.6-3.3-11.9 0z"/><path class="b" d="m1893.7 1392.6c-3.4 3.3-3.4 8.7 0 12 3.3 3.3 8.6 3.3 11.9 0 3.3-3.3 3.3-8.7 0-12-3.3-3.3-8.6-3.3-11.9 0z"/><path class="b" d="m1852.7 1351.7c-3.3 3.3-3.3 8.7 0 12 3.3 3.3 8.7 3.3 12 0 3.3-3.3 3.3-8.7 0-12-3.3-3.3-8.7-3.3-12 0z"/><path class="b" d="m1811.8 1310.8c-3.3 3.3-3.3 8.6 0 12 3.3 3.3 8.7 3.3 12 0 3.3-3.4 3.3-8.7 0-12-3.3-3.3-8.7-3.3-12 0z"/><path class="b" d="m1846.1 996.5c0 6.2-5.1 11.2-11.3 11.2-6.2 0-11.2-5-11.2-11.2 0-6.2 5-11.2 11.2-11.2 6.2 0 11.3 5 11.3 11.2z"/><path class="b" d="m2040 1162.6c0 6.2-5 11.2-11.2 11.2-6.2 0-11.3-5-11.3-11.2 0-6.2 5.1-11.3 11.3-11.3 6.2 0 11.2 5.1 11.2 11.3z"/><path class="b" d="m1879.2 1092.8c0 6.2-5 11.2-11.2 11.2-6.3 0-11.3-5-11.3-11.2 0-6.2 5-11.2 11.3-11.2 6.2 0 11.2 5 11.2 11.2z"/><path class="b" d="m1746.8 1112.5c0 6.2-5 11.3-11.2 11.3-6.2 0-11.2-5.1-11.2-11.3 0-6.2 5-11.2 11.2-11.2 6.2 0 11.2 5 11.2 11.2z"/><path class="b" d="m2040 1301.7c0 6.2-5 11.2-11.2 11.2-6.2 0-11.3-5-11.3-11.2 0-6.2 5.1-11.2 11.3-11.2 6.2 0 11.2 5 11.2 11.2z"/><path class="b" d="m2091.6 1357.7c0 6.2-5 11.2-11.2 11.2-6.2 0-11.2-5-11.2-11.2 0-6.2 5-11.2 11.2-11.2 6.2 0 11.2 5 11.2 11.2z"/><path class="b" d="m1629.6 1143.9c0 6.2-5.1 11.2-11.3 11.2-6.2 0-11.2-5-11.2-11.2 0-6.2 5-11.3 11.2-11.3 6.2 0 11.3 5.1 11.3 11.3z"/><path class="b" d="m1752.3 1294.3c0 6.2-5 11.2-11.2 11.2-6.3 0-11.3-5-11.3-11.2 0-6.2 5-11.3 11.3-11.3 6.2 0 11.2 5.1 11.2 11.3z"/><path class="b" d="m1877.5 1483.2c0 6.2-5.1 11.2-11.3 11.2-6.2 0-11.2-5-11.2-11.2 0-6.2 5-11.3 11.2-11.3 6.2 0 11.3 5.1 11.3 11.3z"/><path class="b" d="m1931.4 1540.6c0 6.2-5.1 11.2-11.3 11.2-6.2 0-11.2-5-11.2-11.2 0-6.3 5-11.3 11.2-11.3 6.2 0 11.3 5 11.3 11.3z"/><path class="b" d="m1774.5 1069c0 3.9-3.2 7.1-7 7.1-3.9 0-7-3.2-7-7.1 0-3.8 3.1-7 7-7 3.8 0 7 3.2 7 7z"/><path class="b" d="m1699.9 1248.7c0 3.9-3.1 7-7 7-3.9 0-7-3.1-7-7 0-3.9 3.1-7 7-7 3.9 0 7 3.1 7 7z"/><path class="b" d="m2031.6 1408.3c0 3.9-3.2 7-7.1 7-3.8 0-7-3.1-7-7 0-3.9 3.2-7 7-7 3.9 0 7.1 3.1 7.1 7z"/><path class="b" d="m1931.3 1510.8c0 3.8-3.1 7-7 7-3.8 0-7-3.2-7-7 0-3.9 3.2-7 7-7 3.9 0 7 3.1 7 7z"/><path class="b" d="m1699.9 1290.9c0 3.9-3.1 7.1-7 7.1-3.9 0-7-3.2-7-7.1 0-3.8 3.1-7 7-7 3.9 0 7 3.2 7 7z"/><path class="b" d="m1974 1172.9c0 3.9-3.1 7.1-7 7.1-3.9 0-7-3.2-7-7.1 0-3.8 3.1-7 7-7 3.9 0 7 3.2 7 7z"/><path class="b" d="m1833.3 1045.5c0 3.9-3.1 7-7 7-3.9 0-7-3.1-7-7 0-3.9 3.1-7 7-7 3.9 0 7 3.1 7 7z"/><path class="b" d="m2059.1 1248.7c0 3.9-3.1 7-7 7-3.9 0-7-3.1-7-7 0-3.9 3.1-7 7-7 3.9 0 7 3.1 7 7z"/></g><g style="mix-blend-mode:color-dodge"><g style="opacity:.2"><path class="c" d="m1544.1 901.6h464.3l50.5 50.4h205.2l52.8-52.8h204.5l63.9-63.8v-484.3"/><path class="d" d="m1461.9 856.6h1022.8l52.5-52.5v-373.3"/><path class="c" d="m2451 810.7h-296l-75.7-75.7h-307.5l-96.9-96.9"/><path class="c" d="m2337.6 1567.8h-338l-63.5 63.4h-190.3l-74 74v331"/><path class="c" d="m1568.6 1757.4h-125.6l-69.3-69.3h-566.3"/><path class="d" d="m1323.5 1757.4h-588.3l-78.4 78.4h-179.8"/><path class="d" d="m2603.9 901.6l67.8 67.8h392.7l68.8-68.8h310.4"/><path class="c" d="m2650.1 856.6l54.9 54.9h318.8l70.4-70.4"/><path class="d" d="m1771.8 1678h383.2l59.3 59.4h123.3l135.6 135.6"/><path class="c" d="m1834.2 1722.8h276.7l89 89"/><path class="c" d="m1963.8 810.7h-625l-57.1-57.1"/><path class="c" d="m2884.9 1059.5h230.9l77.6-77.6h118.4"/><path class="c" d="m1602.3 1811.8v301l-76.6 76.6"/><path class="d" d="m1544.1 1956.5v116.5l-126.2 126.1v103.7"/><path class="c" d="m937.4 1558.9h-253.5l-83.2 83.2"/><path class="c" d="m2925.9 1599.5h211.4l100.7 100.7h205.6"/><path class="d" d="m3002.4 1661.9l152.8 152.8v160.2"/><path class="d" d="m3115.8 1663.6l141.3 141.3v84.2l104 104"/><path class="d" d="m2451 753.6h-251.1l-144.7-144.6"/><path class="d" d="m961.9 966.5h-192.8l-245.5-245.4h-192.8"/><path class="c" d="m1212.4 911.5h-405l-110-110"/><path class="c" d="m2273.3 1678h263.9l78.1 78.1h269.6l109.6 109.6"/><path class="c" d="m2650.1 753.6v-476"/><path class="c" d="m2735.9 801.5h217.5l168.6-168.5h189.8"/><path class="d" d="m3023.8 822.9l71.9-71.9h265.4l166.1-166.2"/><path class="c" d="m1504.2 1828.4h-352.3l-189.6 189.6h-307.3"/><path class="c" d="m3016.9 1873c0-8-6.5-14.4-14.5-14.4-7.9 0-14.4 6.4-14.4 14.4 0 8 6.5 14.4 14.4 14.4 8 0 14.5-6.4 14.5-14.4z"/><path class="c" d="m655 2018c0-8-6.5-14.4-14.4-14.4-8 0-14.4 6.4-14.4 14.4 0 7.9 6.4 14.4 14.4 14.4 7.9 0 14.4-6.5 14.4-14.4z"/><path class="c" d="m355.6 2190.3c0-7.9-6.5-14.4-14.4-14.4-8 0-14.5 6.5-14.5 14.4 0 8 6.5 14.5 14.5 14.5 7.9 0 14.4-6.5 14.4-14.5z"/><path class="c" d="m1211 1952.3c0-8-6.5-14.4-14.5-14.4-7.9 0-14.4 6.4-14.4 14.4 0 8 6.5 14.4 14.4 14.4 8 0 14.5-6.4 14.5-14.4z"/><path class="c" d="m807.4 1688.1c0-8-6.4-14.4-14.4-14.4-8 0-14.4 6.4-14.4 14.4 0 8 6.4 14.4 14.4 14.4 8 0 14.4-6.4 14.4-14.4z"/><path class="c" d="m966.3 1558.9c0-8-6.5-14.4-14.4-14.4-8 0-14.5 6.4-14.5 14.4 0 8 6.5 14.4 14.5 14.4 7.9 0 14.4-6.4 14.4-14.4z"/><path class="c" d="m469.1 1737.2c0-8-6.5-14.4-14.5-14.4-7.9 0-14.4 6.4-14.4 14.4 0 7.9 6.5 14.4 14.4 14.4 8 0 14.5-6.5 14.5-14.4z"/><path class="c" d="m3472.5 1700.2c0-8-6.5-14.5-14.4-14.5-8 0-14.5 6.5-14.5 14.5 0 7.9 6.5 14.4 14.5 14.4 7.9 0 14.4-6.5 14.4-14.4z"/><path class="c" d="m2513.5 1714.6c0-8-6.5-14.4-14.5-14.4-7.9 0-14.4 6.4-14.4 14.4 0 8 6.5 14.4 14.4 14.4 8 0 14.5-6.4 14.5-14.4z"/><path class="c" d="m2651.5 847.7c0-8-6.5-14.4-14.4-14.4-8 0-14.5 6.4-14.5 14.4 0 8 6.5 14.4 14.5 14.4 7.9 0 14.4-6.4 14.4-14.4z"/><path class="c" d="m3341.7 633.8c0-8-6.5-14.5-14.4-14.5-8 0-14.5 6.5-14.5 14.5 0 7.9 6.5 14.4 14.5 14.4 7.9 0 14.4-6.5 14.4-14.4z"/><path class="c" d="m2743 693.7c0-7.9-6.4-14.4-14.4-14.4-8 0-14.4 6.5-14.4 14.4 0 8 6.4 14.5 14.4 14.5 8 0 14.4-6.5 14.4-14.5z"/><path class="c" d="m2599.7 336.7c0-8-6.5-14.5-14.4-14.5-8 0-14.4 6.5-14.4 14.5 0 7.9 6.4 14.4 14.4 14.4 7.9 0 14.4-6.5 14.4-14.4z"/><path class="c" d="m1681.3 633c0-8-6.4-14.4-14.4-14.4-8 0-14.4 6.4-14.4 14.4 0 8 6.4 14.4 14.4 14.4 8 0 14.4-6.4 14.4-14.4z"/><path class="c" d="m1287.6 743.9c0-8-6.4-14.4-14.4-14.4-7.9 0-14.4 6.4-14.4 14.4 0 8 6.5 14.4 14.4 14.4 8 0 14.4-6.4 14.4-14.4z"/><path class="c" d="m704.2 791.6c0-8-6.4-14.4-14.4-14.4-8 0-14.4 6.4-14.4 14.4 0 8 6.4 14.4 14.4 14.4 8 0 14.4-6.4 14.4-14.4z"/><path class="c" d="m1188 856.6c0-7.9-6.4-14.4-14.4-14.4-8 0-14.4 6.5-14.4 14.4 0 8 6.4 14.5 14.4 14.5 8 0 14.4-6.5 14.4-14.5z"/><path class="c" d="m858.3 593.1c0-8-6.4-14.5-14.4-14.5-8 0-14.4 6.5-14.4 14.5 0 7.9 6.4 14.4 14.4 14.4 8 0 14.4-6.5 14.4-14.4z"/><path class="c" d="m1544.1 900.6c0-8-6.5-14.4-14.5-14.4-7.9 0-14.4 6.4-14.4 14.4 0 8 6.5 14.4 14.4 14.4 8 0 14.5-6.4 14.5-14.4z"/><path class="c" d="m2664.5 768.1c0-8-6.4-14.5-14.4-14.5-8 0-14.4 6.5-14.4 14.5 0 7.9 6.4 14.4 14.4 14.4 8 0 14.4-6.5 14.4-14.4z"/><path class="c" d="m3340.7 981.9c0-8-6.5-14.4-14.4-14.4-8 0-14.5 6.4-14.5 14.4 0 8 6.5 14.4 14.5 14.4 7.9 0 14.4-6.4 14.4-14.4z"/><path class="c" d="m1527.1 2202.8c0-7.9-6.5-14.4-14.4-14.4-8 0-14.5 6.5-14.5 14.4 0 8 6.5 14.4 14.5 14.4 7.9 0 14.4-6.4 14.4-14.4z"/><path class="c" d="m1616.7 1796.6c0-8-6.5-14.4-14.4-14.4-8 0-14.4 6.4-14.4 14.4 0 8 6.4 14.4 14.4 14.4 7.9 0 14.4-6.4 14.4-14.4z"/><path class="c" d="m2366.4 1567.8c0-8-6.4-14.5-14.4-14.5-7.9 0-14.4 6.5-14.4 14.5 0 7.9 6.5 14.4 14.4 14.4 8 0 14.4-6.5 14.4-14.4z"/><path class="c" d="m2654.2 2131.5c0-7.9-6.4-14.4-14.4-14.4-7.9 0-14.4 6.5-14.4 14.4 0 8 6.5 14.5 14.4 14.5 8 0 14.4-6.5 14.4-14.5z"/><path class="c" d="m1834.2 1722.8c0-8-6.4-14.5-14.4-14.5-7.9 0-14.4 6.5-14.4 14.5 0 7.9 6.5 14.4 14.4 14.4 8 0 14.4-6.5 14.4-14.4z"/><path class="e" d="m2291.1 1678c0-9.8-8-17.8-17.8-17.8-9.9 0-17.9 8-17.9 17.8 0 9.9 8 17.9 17.9 17.9 9.8 0 17.8-8 17.8-17.9z"/><path class="e" d="m2217.7 1811.8c0-9.9-8-17.8-17.8-17.8-9.8 0-17.8 7.9-17.8 17.8 0 9.8 8 17.8 17.8 17.8 9.8 0 17.8-8 17.8-17.8z"/><path class="e" d="m2347 1945.5c0-9.8-8-17.8-17.8-17.8-9.9 0-17.8 8-17.8 17.8 0 9.8 7.9 17.8 17.8 17.8 9.8 0 17.8-8 17.8-17.8z"/><path class="e" d="m618.5 1642.1c0-9.9-8-17.8-17.8-17.8-9.9 0-17.8 7.9-17.8 17.8 0 9.8 7.9 17.8 17.8 17.8 9.8 0 17.8-8 17.8-17.8z"/><path class="e" d="m166.9 1866.1c0-9.8-7.9-17.8-17.8-17.8-9.8 0-17.8 8-17.8 17.8 0 9.9 8 17.8 17.8 17.8 9.9 0 17.8-7.9 17.8-17.8z"/><path class="e" d="m936 2068.6c0-9.9-8-17.8-17.8-17.8-9.9 0-17.8 7.9-17.8 17.8 0 9.8 7.9 17.8 17.8 17.8 9.8 0 17.8-8 17.8-17.8z"/><path class="e" d="m847.1 2232.8c0-9.9-8-17.8-17.8-17.8-9.8 0-17.8 7.9-17.8 17.8 0 9.8 8 17.8 17.8 17.8 9.8 0 17.8-8 17.8-17.8z"/><path class="e" d="m1522 1828.4c0-9.9-7.9-17.8-17.8-17.8-9.8 0-17.8 7.9-17.8 17.8 0 9.8 8 17.8 17.8 17.8 9.9 0 17.8-8 17.8-17.8z"/><path class="e" d="m2943.7 1599.5c0-9.9-8-17.9-17.8-17.9-9.9 0-17.9 8-17.9 17.9 0 9.8 8 17.8 17.9 17.8 9.8 0 17.8-8 17.8-17.8z"/><path class="e" d="m3018.1 2163.5c0-9.8-8-17.8-17.8-17.8-9.8 0-17.8 8-17.8 17.8 0 9.9 8 17.9 17.8 17.9 9.8 0 17.8-8 17.8-17.9z"/><path class="e" d="m2902.7 1059.5c0-9.9-7.9-17.9-17.8-17.9-9.8 0-17.8 8-17.8 17.9 0 9.8 8 17.8 17.8 17.8 9.9 0 17.8-8 17.8-17.8z"/><path class="e" d="m2753.7 801.5c0-9.8-8-17.8-17.8-17.8-9.8 0-17.8 8-17.8 17.8 0 9.9 8 17.8 17.8 17.8 9.8 0 17.8-7.9 17.8-17.8z"/><path class="e" d="m3201.6 416.3c0-9.8-7.9-17.8-17.8-17.8-9.8 0-17.8 8-17.8 17.8 0 9.9 8 17.8 17.8 17.8 9.9 0 17.8-7.9 17.8-17.8z"/><path class="e" d="m2669.3 277.6c0-9.9-8-17.8-17.8-17.8-9.8 0-17.8 7.9-17.8 17.8 0 9.8 8 17.8 17.8 17.8 9.8 0 17.8-8 17.8-17.8z"/><path class="e" d="m2468.8 810.7c0-9.9-8-17.8-17.8-17.8-9.9 0-17.9 7.9-17.9 17.8 0 9.8 8 17.8 17.9 17.8 9.8 0 17.8-8 17.8-17.8z"/><path class="e" d="m1981.6 810.7c0-9.9-8-17.8-17.8-17.8-9.8 0-17.8 7.9-17.8 17.8 0 9.8 8 17.8 17.8 17.8 9.8 0 17.8-8 17.8-17.8z"/><path class="e" d="m1230.2 911.5c0-9.8-8-17.8-17.8-17.8-9.9 0-17.9 8-17.9 17.8 0 9.9 8 17.8 17.9 17.8 9.8 0 17.8-7.9 17.8-17.8z"/><path class="e" d="m328.8 465c0-9.9-8-17.8-17.8-17.8-9.8 0-17.8 7.9-17.8 17.8 0 9.8 8 17.8 17.8 17.8 9.8 0 17.8-8 17.8-17.8z"/><path class="e" d="m1026.5 758.3c0-9.8-8-17.8-17.8-17.8-9.9 0-17.8 8-17.8 17.8 0 9.8 7.9 17.8 17.8 17.8 9.8 0 17.8-8 17.8-17.8z"/><path class="e" d="m3111.4 839.7c0-9.8-8-17.8-17.8-17.8-9.8 0-17.8 8-17.8 17.8 0 9.9 8 17.8 17.8 17.8 9.8 0 17.8-7.9 17.8-17.8z"/><path class="e" d="m1581.8 1757.4c0-9.8-8-17.8-17.8-17.8-9.9 0-17.8 8-17.8 17.8 0 9.8 7.9 17.8 17.8 17.8 9.8 0 17.8-8 17.8-17.8z"/><path class="e" d="m1689.6 2036.2c0-9.8-7.9-17.8-17.8-17.8-9.8 0-17.8 8-17.8 17.8 0 9.8 8 17.8 17.8 17.8 9.9 0 17.8-8 17.8-17.8z"/><path class="d" d="m1352.3 1757.4c0-8-6.4-14.4-14.4-14.4-8 0-14.4 6.4-14.4 14.4 0 8 6.4 14.4 14.4 14.4 8 0 14.4-6.4 14.4-14.4z"/><path class="d" d="m258.6 1819.4c0-8-6.5-14.5-14.5-14.5-7.9 0-14.4 6.5-14.4 14.5 0 7.9 6.5 14.4 14.4 14.4 8 0 14.5-6.5 14.5-14.4z"/><path class="d" d="m739.9 1846.8c0-8-6.5-14.4-14.4-14.4-8 0-14.5 6.4-14.5 14.4 0 8 6.5 14.4 14.5 14.4 7.9 0 14.4-6.4 14.4-14.4z"/><path class="d" d="m1211 1875.7c0-8-6.5-14.5-14.5-14.5-7.9 0-14.4 6.5-14.4 14.5 0 7.9 6.5 14.4 14.4 14.4 8 0 14.5-6.5 14.5-14.4z"/><path class="d" d="m3006 1649.8c0-8-6.4-14.4-14.4-14.4-8 0-14.4 6.4-14.4 14.4 0 8 6.4 14.4 14.4 14.4 8 0 14.4-6.4 14.4-14.4z"/><path class="d" d="m2794.5 1902.6c0-8-6.5-14.4-14.4-14.4-8 0-14.5 6.4-14.5 14.4 0 7.9 6.5 14.4 14.5 14.4 7.9 0 14.4-6.5 14.4-14.4z"/><path class="d" d="m3121.5 1653c0-7.9-6.5-14.4-14.5-14.4-7.9 0-14.4 6.5-14.4 14.4 0 8 6.5 14.5 14.4 14.5 8 0 14.5-6.5 14.5-14.5z"/><path class="d" d="m3660.4 1849.2c0-7.9-6.5-14.4-14.5-14.4-7.9 0-14.4 6.5-14.4 14.4 0 8 6.5 14.5 14.4 14.5 8 0 14.5-6.5 14.5-14.5z"/><path class="d" d="m3552.6 575.4c0-8-6.4-14.5-14.4-14.5-7.9 0-14.4 6.5-14.4 14.5 0 7.9 6.5 14.4 14.4 14.4 8 0 14.4-6.5 14.4-14.4z"/><path class="d" d="m3027.9 648.2c0-8-6.5-14.4-14.5-14.4-7.9 0-14.4 6.4-14.4 14.4 0 8 6.5 14.4 14.4 14.4 8 0 14.5-6.4 14.5-14.4z"/><path class="d" d="m2479.8 753.6c0-7.9-6.4-14.4-14.4-14.4-8 0-14.4 6.5-14.4 14.4 0 8 6.4 14.5 14.4 14.5 8 0 14.4-6.5 14.4-14.5z"/><path class="d" d="m330.8 721.1c0-8-6.5-14.5-14.4-14.5-8 0-14.5 6.5-14.5 14.5 0 7.9 6.5 14.4 14.5 14.4 7.9 0 14.4-6.5 14.4-14.4z"/><path class="d" d="m1140 810.7c0-8-6.4-14.5-14.4-14.5-8 0-14.4 6.5-14.4 14.5 0 7.9 6.4 14.4 14.4 14.4 8 0 14.4-6.5 14.4-14.4z"/><path class="d" d="m1725.2 754c0-7.9-6.4-14.4-14.4-14.4-8 0-14.4 6.5-14.4 14.4 0 8 6.4 14.5 14.4 14.5 8 0 14.4-6.5 14.4-14.5z"/><path class="d" d="m1558.5 1942.1c0-7.9-6.5-14.4-14.4-14.4-8 0-14.5 6.5-14.5 14.4 0 8 6.5 14.4 14.5 14.4 7.9 0 14.4-6.4 14.4-14.4z"/><path class="d" d="m2499 1885.4c0-7.9-6.4-14.4-14.4-14.4-8 0-14.4 6.5-14.4 14.4 0 8 6.4 14.5 14.4 14.5 8 0 14.4-6.5 14.4-14.5z"/><path class="d" d="m2510.1 2027.5c0-8-6.5-14.4-14.5-14.4-7.9 0-14.4 6.4-14.4 14.4 0 8 6.5 14.4 14.4 14.4 8 0 14.5-6.4 14.5-14.4z"/><path class="e" d="m1786.2 1678c0-7.9-6.5-14.4-14.4-14.4-8 0-14.5 6.5-14.5 14.4 0 8 6.5 14.5 14.5 14.5 7.9 0 14.4-6.5 14.4-14.5z"/><path class="e" d="m1876.2 1757.4c0-8-6.4-14.4-14.4-14.4-7.9 0-14.4 6.4-14.4 14.4 0 8 6.5 14.4 14.4 14.4 8 0 14.4-6.4 14.4-14.4z"/><path class="e" d="m491.4 1835.8c0-8-6.4-14.4-14.4-14.4-8 0-14.4 6.4-14.4 14.4 0 8 6.4 14.4 14.4 14.4 8 0 14.4-6.4 14.4-14.4z"/><path class="e" d="m1055.1 1796.6c0-8-6.4-14.4-14.4-14.4-8 0-14.4 6.4-14.4 14.4 0 8 6.4 14.4 14.4 14.4 8 0 14.4-6.4 14.4-14.4z"/><path class="e" d="m706 2282.8c0-8-6.5-14.4-14.5-14.4-7.9 0-14.4 6.4-14.4 14.4 0 8 6.5 14.4 14.4 14.4 8 0 14.5-6.4 14.5-14.4z"/><path class="e" d="m714 1600.5c0-8-6.4-14.4-14.4-14.4-8 0-14.4 6.4-14.4 14.4 0 7.9 6.4 14.4 14.4 14.4 8 0 14.4-6.5 14.4-14.4z"/><path class="e" d="m3375.5 1993.1c0-7.9-6.4-14.4-14.4-14.4-8 0-14.4 6.5-14.4 14.4 0 8 6.4 14.4 14.4 14.4 8 0 14.4-6.4 14.4-14.4z"/><path class="e" d="m3169.6 1974.9c0-7.9-6.4-14.4-14.4-14.4-8 0-14.4 6.5-14.4 14.4 0 8 6.4 14.5 14.4 14.5 8 0 14.4-6.5 14.4-14.5z"/><path class="e" d="m3313.2 1743c0-8-6.5-14.5-14.4-14.5-8 0-14.5 6.5-14.5 14.5 0 7.9 6.5 14.4 14.5 14.4 7.9 0 14.4-6.5 14.4-14.4z"/><path class="e" d="m2513.5 1767.3c0-8-6.5-14.5-14.5-14.5-7.9 0-14.4 6.5-14.4 14.5 0 7.9 6.5 14.4 14.4 14.4 8 0 14.5-6.5 14.5-14.4z"/><path class="e" d="m2618.3 900.6c0-8-6.4-14.4-14.4-14.4-8 0-14.4 6.4-14.4 14.4 0 8 6.4 14.4 14.4 14.4 8 0 14.4-6.4 14.4-14.4z"/><path class="e" d="m3038.2 822.9c0-7.9-6.5-14.4-14.4-14.4-8 0-14.5 6.5-14.5 14.4 0 8 6.5 14.5 14.5 14.5 7.9 0 14.4-6.5 14.4-14.5z"/><path class="e" d="m2734.1 735.5c0-8-6.4-14.4-14.4-14.4-8 0-14.4 6.4-14.4 14.4 0 8 6.4 14.4 14.4 14.4 8 0 14.4-6.4 14.4-14.4z"/><path class="e" d="m2551.7 430.8c0-8-6.5-14.5-14.5-14.5-7.9 0-14.4 6.5-14.4 14.5 0 7.9 6.5 14.4 14.4 14.4 8 0 14.5-6.5 14.5-14.4z"/><path class="e" d="m2069.6 609c0-8-6.4-14.5-14.4-14.5-7.9 0-14.4 6.5-14.4 14.5 0 7.9 6.5 14.4 14.4 14.4 8 0 14.4-6.5 14.4-14.4z"/><path class="e" d="m1476.3 856.6c0-7.9-6.5-14.4-14.4-14.4-8 0-14.5 6.5-14.5 14.4 0 8 6.5 14.5 14.5 14.5 7.9 0 14.4-6.5 14.4-14.5z"/><path class="e" d="m800.2 697.4c0-8-6.4-14.4-14.4-14.4-8 0-14.4 6.4-14.4 14.4 0 8 6.4 14.4 14.4 14.4 8 0 14.4-6.4 14.4-14.4z"/><path class="e" d="m1150.1 611.7c0-8-6.4-14.4-14.4-14.4-8 0-14.4 6.4-14.4 14.4 0 8 6.4 14.4 14.4 14.4 8 0 14.4-6.4 14.4-14.4z"/><path class="e" d="m976.4 966.5c0-8-6.5-14.4-14.5-14.4-7.9 0-14.4 6.4-14.4 14.4 0 8 6.5 14.4 14.4 14.4 8 0 14.5-6.4 14.5-14.4z"/><path class="e" d="m3458.1 900.6c0-8-6.5-14.4-14.5-14.4-7.9 0-14.4 6.4-14.4 14.4 0 8 6.5 14.4 14.4 14.4 8 0 14.5-6.4 14.5-14.4z"/><path class="e" d="m1432.3 2302.8c0-8-6.4-14.5-14.4-14.5-8 0-14.4 6.5-14.4 14.5 0 7.9 6.4 14.4 14.4 14.4 8 0 14.4-6.5 14.4-14.4z"/><path class="c" d="m1159.2 856.5h-326.8l-315.5-315.5h-129.8l-76.1-76"/><path class="d" d="m1861.8 1757.4h223.7l141.6 141.6h139.3l118.1 118.1"/><path class="d" d="m1111.2 810.7h-119.5l-113.3-113.3h-85.4"/><path class="d" d="m1040.7 1796.6h-271.6l-36.6 36.6"/><path class="c" d="m2507.2 1722.8l135.2 135.1h163.1l194.8 194.9v110.7"/><path class="d" d="m3298.8 1743h239.4l96.3 96.2"/><path class="d" d="m2499 1767.3l135.4 135.3h131.2"/><path class="d" d="m704.2 1600.5l-97.7 97.8h-242.9l-108.9 108.9"/><path class="c" d="m440.2 1737.2h-49l-129 128.9h-113.1"/><path class="d" d="m1696.4 754h-292.9l-142.3-142.3h-125.5"/><path class="d" d="m2719.7 735.5h206.2l79.1-79.1"/><path class="d" d="m1188 1885.4l-295.9 295.9h-99.1l-101.5 101.5"/><path class="c" d="m1188 1960.5l-272.3 272.3h-86.4"/><path class="c" d="m918.2 2068.6h-455.6l-113.4 113.4"/><path class="c" d="m2329.2 1943.5l188 188h113.3"/><path class="c" d="m2735.9 681.3l203.5-203.5h182.1l62.3-62.4"/><path class="c" d="m1008.7 758.3l-155.8-155.7"/></g><path class="c" d="m1515.5 1658.4h464.3l50.5-50.4h205.2l52.8 52.8h204.5l63.9 63.8v484.3"/><path class="d" d="m1433.3 1703.3h1022.8l52.5 52.6v373.3"/><path class="c" d="m2422.4 1749.3h-296l-75.7 75.7h-307.5l-96.9 96.8"/><path class="c" d="m2309 992.2h-338l-63.5-63.5h-190.3l-74-74v-330.9"/><path class="c" d="m1540 802.6h-125.6l-69.3 69.3h-566.3"/><path class="d" d="m1294.9 802.6h-588.3l-78.4-78.4h-179.8"/><path class="d" d="m2575.3 1658.4l67.8-67.8h392.7l68.8 68.8h310.4"/><path class="c" d="m2621.5 1703.3l54.9-54.9h318.8l70.4 70.4"/><path class="d" d="m1743.2 881.9h383.2l59.3-59.3h123.3l135.6-135.6"/><path class="c" d="m1805.6 837.2h276.7l89-89"/><path class="c" d="m1935.2 1749.3h-625l-57.1 57"/><path class="c" d="m2856.3 1500.5h230.9l77.6 77.6h118.4"/><path class="c" d="m1573.7 748.2v-301l-76.6-76.6"/><path class="d" d="m1515.5 603.4v-116.4l-126.2-126.2v-103.6"/><path class="c" d="m908.8 1001.1h-253.5l-83.2-83.2"/><path class="c" d="m2897.3 960.5h211.4l100.7-100.7h205.6"/><path class="d" d="m2973.9 898.1l152.7-152.8v-160.3"/><path class="d" d="m3087.2 896.4l141.3-141.4v-84.2l104-104"/><path class="d" d="m2422.4 1806.3h-251.1l-144.7 144.7"/><path class="d" d="m933.3 1593.5h-192.8l-245.5 245.4h-192.8"/><path class="c" d="m1183.8 1648.4h-405l-110 110"/><path class="c" d="m2244.7 881.9h263.9l78.1-78.1h269.6l109.6-109.5"/><path class="c" d="m2621.5 1806.3v476.1"/><path class="c" d="m2707.3 1758.4h217.5l168.6 168.6h189.8"/><path class="d" d="m2995.2 1737l71.9 72h265.4l166.1 166.1"/><path class="c" d="m1475.6 731.6h-352.3l-189.6-189.6h-307.3"/><path class="c" d="m2988.3 687c0 7.9-6.5 14.4-14.4 14.4-8 0-14.5-6.5-14.5-14.4 0-8 6.5-14.5 14.5-14.5 7.9 0 14.4 6.5 14.4 14.5z"/><path class="c" d="m626.4 542c0 8-6.4 14.4-14.4 14.4-8 0-14.4-6.4-14.4-14.4 0-8 6.4-14.4 14.4-14.4 8 0 14.4 6.4 14.4 14.4z"/><path class="c" d="m327 369.6c0 8-6.5 14.5-14.4 14.5-8 0-14.4-6.5-14.4-14.5 0-7.9 6.4-14.4 14.4-14.4 7.9 0 14.4 6.5 14.4 14.4z"/><path class="c" d="m1182.4 607.7c0 8-6.5 14.4-14.5 14.4-7.9 0-14.4-6.4-14.4-14.4 0-8 6.5-14.4 14.4-14.4 8 0 14.5 6.4 14.5 14.4z"/><path class="c" d="m778.8 871.9c0 7.9-6.4 14.4-14.4 14.4-7.9 0-14.4-6.5-14.4-14.4 0-8 6.5-14.5 14.4-14.5 8 0 14.4 6.5 14.4 14.5z"/><path class="c" d="m937.7 1001.1c0 7.9-6.5 14.4-14.4 14.4-8 0-14.5-6.5-14.5-14.4 0-8 6.5-14.4 14.5-14.4 7.9 0 14.4 6.4 14.4 14.4z"/><path class="c" d="m440.5 822.8c0 8-6.5 14.4-14.5 14.4-7.9 0-14.4-6.4-14.4-14.4 0-8 6.5-14.4 14.4-14.4 8 0 14.5 6.4 14.5 14.4z"/><path class="c" d="m3443.9 859.8c0 8-6.5 14.4-14.4 14.4-8 0-14.5-6.4-14.5-14.4 0-8 6.5-14.4 14.5-14.4 7.9 0 14.4 6.4 14.4 14.4z"/><path class="c" d="m2484.9 845.4c0 8-6.5 14.4-14.5 14.4-7.9 0-14.4-6.4-14.4-14.4 0-8 6.5-14.4 14.4-14.4 8 0 14.5 6.4 14.5 14.4z"/><path class="c" d="m2622.9 1712.3c0 7.9-6.5 14.4-14.4 14.4-8 0-14.5-6.5-14.5-14.4 0-8 6.5-14.5 14.5-14.5 7.9 0 14.4 6.5 14.4 14.5z"/><path class="c" d="m3313.1 1926.2c0 8-6.5 14.4-14.4 14.4-8 0-14.5-6.4-14.5-14.4 0-8 6.5-14.4 14.5-14.4 7.9 0 14.4 6.4 14.4 14.4z"/><path class="c" d="m2714.4 1866.2c0 8-6.4 14.5-14.4 14.5-8 0-14.4-6.5-14.4-14.5 0-7.9 6.4-14.4 14.4-14.4 8 0 14.4 6.5 14.4 14.4z"/><path class="c" d="m2571.1 2223.3c0 8-6.4 14.4-14.4 14.4-8 0-14.4-6.4-14.4-14.4 0-8 6.4-14.4 14.4-14.4 8 0 14.4 6.4 14.4 14.4z"/><path class="c" d="m1652.7 1927c0 7.9-6.4 14.4-14.4 14.4-8 0-14.4-6.5-14.4-14.4 0-8 6.4-14.5 14.4-14.5 8 0 14.4 6.5 14.4 14.5z"/><path class="c" d="m1259.1 1816.1c0 8-6.5 14.4-14.5 14.4-7.9 0-14.4-6.4-14.4-14.4 0-8 6.5-14.4 14.4-14.4 8 0 14.5 6.4 14.5 14.4z"/><path class="c" d="m675.6 1768.4c0 7.9-6.4 14.4-14.4 14.4-7.9 0-14.4-6.5-14.4-14.4 0-8 6.5-14.5 14.4-14.5 8 0 14.4 6.5 14.4 14.5z"/><path class="c" d="m1159.4 1703.3c0 8-6.4 14.5-14.4 14.5-8 0-14.4-6.5-14.4-14.5 0-7.9 6.4-14.4 14.4-14.4 8 0 14.4 6.5 14.4 14.4z"/><path class="c" d="m829.7 1966.9c0 8-6.4 14.4-14.4 14.4-8 0-14.4-6.4-14.4-14.4 0-8 6.4-14.4 14.4-14.4 8 0 14.4 6.4 14.4 14.4z"/><path class="c" d="m1515.5 1659.4c0 7.9-6.5 14.4-14.5 14.4-7.9 0-14.4-6.5-14.4-14.4 0-8 6.5-14.5 14.4-14.5 8 0 14.5 6.5 14.5 14.5z"/><path class="c" d="m2635.9 1791.9c0 8-6.4 14.4-14.4 14.4-8 0-14.4-6.4-14.4-14.4 0-7.9 6.4-14.4 14.4-14.4 8 0 14.4 6.5 14.4 14.4z"/><path class="c" d="m3312.1 1578.1c0 7.9-6.5 14.4-14.4 14.4-8 0-14.5-6.5-14.5-14.4 0-8 6.5-14.4 14.5-14.4 7.9 0 14.4 6.4 14.4 14.4z"/><path class="c" d="m1498.5 357.1c0 8-6.5 14.5-14.4 14.5-8 0-14.5-6.5-14.5-14.5 0-7.9 6.5-14.4 14.5-14.4 7.9 0 14.4 6.5 14.4 14.4z"/><path class="c" d="m1588.1 763.4c0 7.9-6.5 14.4-14.4 14.4-8 0-14.4-6.5-14.4-14.4 0-8 6.4-14.5 14.4-14.5 7.9 0 14.4 6.5 14.4 14.5z"/><path class="c" d="m2337.9 992.2c0 8-6.5 14.4-14.5 14.4-7.9 0-14.4-6.4-14.4-14.4 0-8 6.5-14.4 14.4-14.4 8 0 14.5 6.4 14.5 14.4z"/><path class="c" d="m2625.7 428.4c0 8-6.5 14.5-14.5 14.5-7.9 0-14.4-6.5-14.4-14.5 0-7.9 6.5-14.4 14.4-14.4 8 0 14.5 6.5 14.5 14.4z"/><path class="c" d="m1805.6 837.2c0 8-6.4 14.4-14.4 14.4-7.9 0-14.4-6.4-14.4-14.4 0-7.9 6.5-14.4 14.4-14.4 8 0 14.4 6.5 14.4 14.4z"/><path class="e" d="m2262.5 881.9c0 9.9-8 17.8-17.8 17.8-9.9 0-17.8-7.9-17.8-17.8 0-9.8 7.9-17.8 17.8-17.8 9.8 0 17.8 8 17.8 17.8z"/><path class="e" d="m2189.1 748.2c0 9.8-8 17.8-17.8 17.8-9.8 0-17.8-8-17.8-17.8 0-9.8 8-17.8 17.8-17.8 9.8 0 17.8 8 17.8 17.8z"/><path class="e" d="m2318.4 614.5c0 9.8-8 17.8-17.8 17.8-9.9 0-17.8-8-17.8-17.8 0-9.9 7.9-17.8 17.8-17.8 9.8 0 17.8 7.9 17.8 17.8z"/><path class="e" d="m589.9 917.9c0 9.8-8 17.8-17.8 17.8-9.8 0-17.8-8-17.8-17.8 0-9.8 8-17.8 17.8-17.8 9.8 0 17.8 8 17.8 17.8z"/><path class="e" d="m138.4 693.8c0 9.9-8 17.9-17.9 17.9-9.8 0-17.8-8-17.8-17.9 0-9.8 8-17.8 17.8-17.8 9.9 0 17.9 8 17.9 17.8z"/><path class="e" d="m907.4 491.4c0 9.8-8 17.8-17.8 17.8-9.9 0-17.8-8-17.8-17.8 0-9.8 7.9-17.8 17.8-17.8 9.8 0 17.8 8 17.8 17.8z"/><path class="e" d="m818.5 327.2c0 9.8-8 17.8-17.8 17.8-9.8 0-17.8-8-17.8-17.8 0-9.8 8-17.8 17.8-17.8 9.8 0 17.8 8 17.8 17.8z"/><path class="e" d="m1493.4 731.6c0 9.8-7.9 17.8-17.8 17.8-9.8 0-17.8-8-17.8-17.8 0-9.8 8-17.8 17.8-17.8 9.9 0 17.8 8 17.8 17.8z"/><path class="e" d="m2915.1 960.5c0 9.8-8 17.8-17.8 17.8-9.9 0-17.9-8-17.9-17.8 0-9.8 8-17.8 17.9-17.8 9.8 0 17.8 8 17.8 17.8z"/><path class="e" d="m2989.5 396.4c0 9.9-8 17.8-17.8 17.8-9.8 0-17.8-7.9-17.8-17.8 0-9.8 8-17.8 17.8-17.8 9.8 0 17.8 8 17.8 17.8z"/><path class="e" d="m2874.1 1500.5c0 9.8-7.9 17.8-17.8 17.8-9.8 0-17.8-8-17.8-17.8 0-9.8 8-17.8 17.8-17.8 9.9 0 17.8 8 17.8 17.8z"/><path class="e" d="m2725.1 1758.4c0 9.9-8 17.8-17.8 17.8-9.8 0-17.8-7.9-17.8-17.8 0-9.8 8-17.8 17.8-17.8 9.8 0 17.8 8 17.8 17.8z"/><path class="e" d="m3173 2143.6c0 9.9-7.9 17.8-17.8 17.8-9.8 0-17.8-7.9-17.8-17.8 0-9.8 8-17.8 17.8-17.8 9.9 0 17.8 8 17.8 17.8z"/><path class="e" d="m2640.7 2282.4c0 9.8-8 17.8-17.8 17.8-9.8 0-17.8-8-17.8-17.8 0-9.8 8-17.8 17.8-17.8 9.8 0 17.8 8 17.8 17.8z"/><path class="e" d="m2440.2 1749.3c0 9.8-8 17.8-17.8 17.8-9.9 0-17.8-8-17.8-17.8 0-9.8 7.9-17.8 17.8-17.8 9.8 0 17.8 8 17.8 17.8z"/><path class="e" d="m1953 1749.3c0 9.8-8 17.8-17.8 17.8-9.8 0-17.8-8-17.8-17.8 0-9.8 8-17.8 17.8-17.8 9.8 0 17.8 8 17.8 17.8z"/><path class="e" d="m1201.6 1648.4c0 9.9-8 17.8-17.8 17.8-9.9 0-17.9-7.9-17.9-17.8 0-9.8 8-17.8 17.9-17.8 9.8 0 17.8 8 17.8 17.8z"/><path class="e" d="m300.2 2095c0 9.8-7.9 17.8-17.8 17.8-9.8 0-17.8-8-17.8-17.8 0-9.8 8-17.8 17.8-17.8 9.9 0 17.8 8 17.8 17.8z"/><path class="e" d="m997.9 1801.7c0 9.8-8 17.8-17.8 17.8-9.9 0-17.8-8-17.8-17.8 0-9.9 7.9-17.9 17.8-17.9 9.8 0 17.8 8 17.8 17.9z"/><path class="e" d="m3082.8 1720.2c0 9.9-8 17.9-17.8 17.9-9.8 0-17.8-8-17.8-17.9 0-9.8 8-17.8 17.8-17.8 9.8 0 17.8 8 17.8 17.8z"/><path class="e" d="m1553.2 802.6c0 9.8-8 17.8-17.8 17.8-9.9 0-17.8-8-17.8-17.8 0-9.9 7.9-17.8 17.8-17.8 9.8 0 17.8 7.9 17.8 17.8z"/><path class="e" d="m1661.1 523.8c0 9.8-8 17.8-17.9 17.8-9.8 0-17.8-8-17.8-17.8 0-9.9 8-17.8 17.8-17.8 9.9 0 17.9 7.9 17.9 17.8z"/><path class="d" d="m1323.7 802.6c0 7.9-6.4 14.4-14.4 14.4-8 0-14.4-6.5-14.4-14.4 0-8 6.4-14.5 14.4-14.5 8 0 14.4 6.5 14.4 14.5z"/><path class="d" d="m230 740.6c0 8-6.5 14.4-14.5 14.4-7.9 0-14.4-6.4-14.4-14.4 0-8 6.5-14.4 14.4-14.4 8 0 14.5 6.4 14.5 14.4z"/><path class="d" d="m711.3 713.2c0 7.9-6.5 14.4-14.4 14.4-8 0-14.5-6.5-14.5-14.4 0-8 6.5-14.5 14.5-14.5 7.9 0 14.4 6.5 14.4 14.5z"/><path class="d" d="m1182.4 684.3c0 8-6.5 14.4-14.5 14.4-7.9 0-14.4-6.4-14.4-14.4 0-7.9 6.5-14.4 14.4-14.4 8 0 14.5 6.5 14.5 14.4z"/><path class="d" d="m2977.4 910.2c0 7.9-6.4 14.4-14.4 14.4-7.9 0-14.4-6.5-14.4-14.4 0-8 6.5-14.5 14.4-14.5 8 0 14.4 6.5 14.4 14.5z"/><path class="d" d="m2765.9 657.4c0 8-6.5 14.4-14.4 14.4-8 0-14.4-6.4-14.4-14.4 0-8 6.4-14.4 14.4-14.4 7.9 0 14.4 6.4 14.4 14.4z"/><path class="d" d="m3092.9 906.9c0 8-6.5 14.5-14.5 14.5-7.9 0-14.4-6.5-14.4-14.5 0-7.9 6.5-14.4 14.4-14.4 8 0 14.5 6.5 14.5 14.4z"/><path class="d" d="m3631.8 710.7c0 8-6.5 14.5-14.5 14.5-7.9 0-14.4-6.5-14.4-14.5 0-7.9 6.5-14.4 14.4-14.4 8 0 14.5 6.5 14.5 14.4z"/><path class="d" d="m3524 1984.6c0 8-6.4 14.4-14.4 14.4-7.9 0-14.4-6.4-14.4-14.4 0-7.9 6.5-14.4 14.4-14.4 8 0 14.4 6.5 14.4 14.4z"/><path class="d" d="m2999.3 1911.8c0 7.9-6.5 14.4-14.5 14.4-7.9 0-14.4-6.5-14.4-14.4 0-8 6.5-14.4 14.4-14.4 8 0 14.5 6.4 14.5 14.4z"/><path class="d" d="m2451.2 1806.3c0 8-6.4 14.5-14.4 14.5-8 0-14.4-6.5-14.4-14.5 0-7.9 6.4-14.4 14.4-14.4 8 0 14.4 6.5 14.4 14.4z"/><path class="d" d="m302.2 1838.9c0 8-6.5 14.4-14.4 14.4-8 0-14.5-6.4-14.5-14.4 0-8 6.5-14.4 14.5-14.4 7.9 0 14.4 6.4 14.4 14.4z"/><path class="d" d="m1111.4 1749.3c0 8-6.4 14.4-14.4 14.4-8 0-14.4-6.4-14.4-14.4 0-8 6.4-14.4 14.4-14.4 8 0 14.4 6.4 14.4 14.4z"/><path class="d" d="m1696.6 1805.9c0 8-6.4 14.5-14.4 14.5-8 0-14.4-6.5-14.4-14.5 0-7.9 6.4-14.4 14.4-14.4 8 0 14.4 6.5 14.4 14.4z"/><path class="d" d="m1529.9 617.9c0 7.9-6.5 14.4-14.4 14.4-8 0-14.5-6.5-14.5-14.4 0-8 6.5-14.5 14.5-14.5 7.9 0 14.4 6.5 14.4 14.5z"/><path class="d" d="m2470.4 674.5c0 8-6.4 14.5-14.4 14.5-7.9 0-14.4-6.5-14.4-14.5 0-7.9 6.5-14.4 14.4-14.4 8 0 14.4 6.5 14.4 14.4z"/><path class="d" d="m2481.5 532.5c0 7.9-6.5 14.4-14.5 14.4-7.9 0-14.4-6.5-14.4-14.4 0-8 6.5-14.5 14.4-14.5 8 0 14.5 6.5 14.5 14.5z"/><path class="e" d="m1757.6 881.9c0 8-6.5 14.5-14.4 14.5-8 0-14.5-6.5-14.5-14.5 0-7.9 6.5-14.4 14.5-14.4 7.9 0 14.4 6.5 14.4 14.4z"/><path class="e" d="m1847.7 802.6c0 7.9-6.5 14.4-14.5 14.4-7.9 0-14.4-6.5-14.4-14.4 0-8 6.5-14.5 14.4-14.5 8 0 14.5 6.5 14.5 14.5z"/><path class="e" d="m462.8 724.2c0 7.9-6.4 14.4-14.4 14.4-8 0-14.4-6.5-14.4-14.4 0-8 6.4-14.5 14.4-14.5 8 0 14.4 6.5 14.4 14.5z"/><path class="e" d="m1026.5 763.4c0 7.9-6.4 14.4-14.4 14.4-7.9 0-14.4-6.5-14.4-14.4 0-8 6.5-14.5 14.4-14.5 8 0 14.4 6.5 14.4 14.5z"/><path class="e" d="m677.4 277.2c0 7.9-6.5 14.4-14.5 14.4-7.9 0-14.4-6.5-14.4-14.4 0-8 6.5-14.4 14.4-14.4 8 0 14.5 6.4 14.5 14.4z"/><path class="e" d="m685.4 959.5c0 8-6.4 14.4-14.4 14.4-8 0-14.4-6.4-14.4-14.4 0-8 6.4-14.4 14.4-14.4 8 0 14.4 6.4 14.4 14.4z"/><path class="e" d="m3346.9 566.8c0 8-6.4 14.5-14.4 14.5-8 0-14.4-6.5-14.4-14.5 0-7.9 6.4-14.4 14.4-14.4 8 0 14.4 6.5 14.4 14.4z"/><path class="e" d="m3141 585c0 8-6.4 14.5-14.4 14.5-8 0-14.4-6.5-14.4-14.5 0-7.9 6.4-14.4 14.4-14.4 8 0 14.4 6.5 14.4 14.4z"/><path class="e" d="m3284.6 817c0 8-6.5 14.4-14.4 14.4-8 0-14.5-6.4-14.5-14.4 0-8 6.5-14.4 14.5-14.4 7.9 0 14.4 6.4 14.4 14.4z"/><path class="e" d="m2484.9 792.7c0 8-6.5 14.4-14.5 14.4-7.9 0-14.4-6.4-14.4-14.4 0-8 6.5-14.4 14.4-14.4 8 0 14.5 6.4 14.5 14.4z"/><path class="e" d="m2589.7 1659.4c0 7.9-6.4 14.4-14.4 14.4-8 0-14.4-6.5-14.4-14.4 0-8 6.4-14.5 14.4-14.5 8 0 14.4 6.5 14.4 14.5z"/><path class="e" d="m3009.6 1737c0 8-6.5 14.5-14.4 14.5-8 0-14.5-6.5-14.5-14.5 0-7.9 6.5-14.4 14.5-14.4 7.9 0 14.4 6.5 14.4 14.4z"/><path class="e" d="m2705.5 1824.5c0 7.9-6.4 14.4-14.4 14.4-8 0-14.4-6.5-14.4-14.4 0-8 6.4-14.5 14.4-14.5 8 0 14.4 6.5 14.4 14.5z"/><path class="e" d="m2523.1 2129.2c0 8-6.5 14.4-14.5 14.4-7.9 0-14.4-6.4-14.4-14.4 0-8 6.5-14.4 14.4-14.4 8 0 14.5 6.4 14.5 14.4z"/><path class="e" d="m2041.1 1951c0 8-6.5 14.4-14.5 14.4-7.9 0-14.4-6.4-14.4-14.4 0-8 6.5-14.4 14.4-14.4 8 0 14.5 6.4 14.5 14.4z"/><path class="e" d="m1447.7 1703.3c0 8-6.5 14.5-14.4 14.5-8 0-14.4-6.5-14.4-14.5 0-7.9 6.4-14.4 14.4-14.4 7.9 0 14.4 6.5 14.4 14.4z"/><path class="e" d="m771.6 1862.6c0 7.9-6.4 14.4-14.4 14.4-8 0-14.4-6.5-14.4-14.4 0-8 6.4-14.5 14.4-14.5 8 0 14.4 6.5 14.4 14.5z"/><path class="e" d="m1121.5 1948.3c0 7.9-6.4 14.4-14.4 14.4-8 0-14.4-6.5-14.4-14.4 0-8 6.4-14.5 14.4-14.5 8 0 14.4 6.5 14.4 14.5z"/><path class="e" d="m947.8 1593.5c0 7.9-6.5 14.4-14.5 14.4-7.9 0-14.4-6.5-14.4-14.4 0-8 6.5-14.5 14.4-14.5 8 0 14.5 6.5 14.5 14.5z"/><path class="e" d="m3429.5 1659.4c0 7.9-6.5 14.4-14.5 14.4-7.9 0-14.4-6.5-14.4-14.4 0-8 6.5-14.5 14.4-14.5 8 0 14.5 6.5 14.5 14.5z"/><path class="e" d="m1403.7 257.2c0 8-6.4 14.4-14.4 14.4-8 0-14.4-6.4-14.4-14.4 0-8 6.4-14.4 14.4-14.4 8 0 14.4 6.4 14.4 14.4z"/><path class="c" d="m1130.6 1703.4h-326.8l-315.5 315.5h-129.8l-76.1 76.1"/><path class="d" d="m1833.2 802.6h223.7l141.6-141.6h139.4l118-118.1"/><path class="d" d="m1082.6 1749.3h-119.5l-113.3 113.3h-85.4"/><path class="d" d="m1012.1 763.4h-271.6l-36.6-36.6"/><path class="c" d="m2478.6 837.2l135.2-135.2h163.1l194.8-194.8v-110.8"/><path class="d" d="m3270.2 817h239.4l96.3-96.3"/><path class="d" d="m2470.4 792.7l135.4-135.3h131.3"/><path class="d" d="m675.6 959.5l-97.7-97.8h-242.9l-108.9-108.9"/><path class="c" d="m411.6 822.8h-49l-129-129h-113.1"/><path class="d" d="m1667.8 1805.9h-292.9l-142.3 142.4h-125.5"/><path class="d" d="m2691.1 1824.5h206.2l79.1 79.1"/><path class="d" d="m1159.4 674.5l-295.8-295.8h-99.2l-101.5-101.5"/><path class="c" d="m1159.4 599.5l-272.2-272.3h-86.5"/><path class="c" d="m889.6 491.4h-455.6l-113.4-113.4"/><path class="c" d="m2300.6 616.5l188-188.1h113.3"/><path class="c" d="m2707.3 1878.7l203.5 203.5h182.1l62.3 62.4"/><path class="c" d="m980.1 1801.7l-155.8 155.7"/></g></svg>