<svg xmlns="http://www.w3.org/2000/svg" xmlns:xlink="http://www.w3.org/1999/xlink" xmlns:inkscape="http://www.inkscape.org/namespaces/inkscape" version="1.1" width="596" height="842" viewBox="0 0 596 842">
<defs>
<clipPath id="clip_0">
<path d="M783.4414 294.8867 542.18008 195.3104 596.7142 63.16736 837.9755 162.74365 783.4414 294.8867Z"/>
</clipPath>
<clipPath id="clip_1">
<path d="M546.9813 156.60051 412.67707 89.00843 545.95498-175.83931 680.2592-108.24724 546.9813 156.60051Z"/>
</clipPath>
<clipPath id="clip_2">
<path d="M774.3471 224.45407 532.7506 125.69378 586.8378-6.6328127 828.4343 92.12747 774.3471 224.45407Z"/>
</clipPath>
<clipPath id="clip_3">
<path d="M793.6398 214.56526 552.0433 115.80497 606.1305-16.521622 847.727 82.23866 793.6398 214.56526Z"/>
</clipPath>
<clipPath id="clip_4">
<path d="M793.6398 214.56526 552.0433 115.80497 606.1305-16.521622 847.727 82.23866 793.6398 214.56526Z"/>
</clipPath>
<clipPath id="clip_5">
<path d="M793.6398 214.56526 552.0433 115.80497 606.1305-16.521622 847.727 82.23866 793.6398 214.56526Z"/>
</clipPath>
<clipPath id="clip_6">
<path d="M556.71499-163.84598 436.82075 67.9995 341.16368 18.527329 461.0579-213.31815 556.71499-163.84598Z"/>
</clipPath>
<clipPath id="clip_7">
<path d="M637.5527-106.514087 529.53988 111.97592 448.51899 71.91832 556.5318-146.57169 637.5527-106.514087Z"/>
</clipPath>
<clipPath id="clip_8">
<path d="M637.5527-106.514087 529.53988 111.97592 448.51899 71.91832 556.5318-146.57169 637.5527-106.514087Z"/>
</clipPath>
<clipPath id="clip_9">
<path d="M-257.40129 742.57138-65.32152 547.7851 41.35544 652.9905-150.72434 847.77676-257.40129 742.57138Z"/>
</clipPath>
<clipPath id="clip_10">
<path d="M49.72731 901.5842 239.15497 704.21768 347.24507 807.97048 157.81742 1005.33706 49.72731 901.5842Z"/>
</clipPath>
<clipPath id="clip_11">
<path d="M60.891786 641.1157 175.3859 749.3985-38.125818 975.18069-152.61992 866.8979 60.891786 641.1157Z"/>
</clipPath>
<clipPath id="clip_12">
<path d="M-36.338029 949.04727 153.08963 751.68069 261.17976 855.4335 71.75207 1052.8-36.338029 949.04727Z"/>
</clipPath>
<clipPath id="clip_13">
<path d="M-34.142808 971.6642 155.28485 774.2976 263.37495 878.0504 73.94729 1075.417-34.142808 971.6642Z"/>
</clipPath>
<clipPath id="clip_14">
<path d="M-34.142808 971.6642 155.28485 774.2976 263.37495 878.0504 73.94729 1075.417-34.142808 971.6642Z"/>
</clipPath>
<clipPath id="clip_15">
<path d="M-34.142808 971.6642 155.28485 774.2976 263.37495 878.0504 73.94729 1075.417-34.142808 971.6642Z"/>
</clipPath>
<clipPath id="clip_16">
<path d="M-233.78415 809.6786-41.70439 614.89236 38.662416 694.1505-153.41733 888.93679-233.78415 809.6786Z"/>
</clipPath>
<clipPath id="clip_17">
<path d="M-130.78742 875.61306 48.57524 693.723 116.02402 760.24148-63.33864 942.1314-130.78742 875.61306Z"/>
</clipPath>
<clipPath id="clip_18">
<path d="M-130.78742 875.61306 48.57524 693.723 116.02402 760.24148-63.33864 942.1314-130.78742 875.61306Z"/>
</clipPath>
</defs>
<path transform="matrix(.7502827,0,0,.7503209,0,0)" d="M0 0H793.7008V1122.5197H0Z" fill="#00000000"/>
<g clip-path="url(#clip_0)">
<path transform="matrix(-2.4243379,-1.000602,1.0005511,-2.4244614,783.4414,294.8867)" d="M0 0H99.516399V54.504079H0Z" fill="#004580"/>
</g>
<g clip-path="url(#clip_1)">
<path transform="matrix(-2.3427542,-1.1790514,1.1789913,-2.3428734,546.9813,156.60051)" d="M0 0H57.327508V113.04399H0Z" fill="#fea200"/>
</g>
<g clip-path="url(#clip_2)">
<path transform="matrix(-2.4277056,-.99240228,.9923516,-2.4278293,774.3471,224.45407)" d="M0 0H99.516399V54.504079H0Z" fill="#004580"/>
</g>
<g clip-path="url(#clip_3)">
<path transform="matrix(-2.4277056,-.99240228,.9923516,-2.4278293,793.6398,214.56526)" d="M0 0H99.516399V54.504079H0Z" fill="#004580"/>
</g>
<g clip-path="url(#clip_4)">
<g clip-path="url(#clip_5)">
<path transform="matrix(-2.4277056,-.99240228,.9923516,-2.4278293,793.6398,214.56526)" stroke-width="5.721469" stroke-linecap="butt" stroke-miterlimit="4" stroke-linejoin="miter" fill="none" stroke="#fea200" d="M0 0H99.516399V54.504079H0Z"/>
</g>
</g>
<g clip-path="url(#clip_6)">
<path transform="matrix(-1.2047687,2.3297215,-2.329603,-1.20483,556.71499,-163.84598)" d="M0 0H99.516399V41.061536H0Z" fill="#0248a9"/>
</g>
<g clip-path="url(#clip_7)">
<g clip-path="url(#clip_8)">
<path transform="matrix(-1.1623322,2.3511835,-2.351064,-1.1623913,637.5527,-106.514087)" stroke-width="5.721469" stroke-linecap="butt" stroke-miterlimit="4" stroke-linejoin="miter" fill="none" stroke="#0248a9" d="M0 0H92.92767V34.46137H0Z"/>
</g>
</g>
<g clip-path="url(#clip_9)">
<path transform="matrix(1.9301318,-1.9573284,1.9572287,1.9302302,-257.40129,742.57138)" d="M0 0H99.516399V54.504079H0Z" fill="#004580"/>
</g>
<g clip-path="url(#clip_10)">
<path transform="matrix(1.903482,-1.9832572,1.9831561,1.9035791,49.72731,901.5842)" d="M0 0H99.516399V54.504079H0Z" fill="#004580"/>
</g>
<g clip-path="url(#clip_11)">
<path transform="matrix(1.9971931,1.888845,-1.8887488,1.9972948,60.891786,641.1157)" d="M0 0H57.327508V113.04399H0Z" fill="#fea200"/>
</g>
<g clip-path="url(#clip_12)">
<path transform="matrix(1.903482,-1.9832572,1.9831561,1.9035791,-36.338029,949.04727)" d="M0 0H99.516399V54.504079H0Z" fill="#004580"/>
</g>
<g clip-path="url(#clip_13)">
<path transform="matrix(1.903482,-1.9832572,1.9831561,1.9035791,-34.142808,971.6642)" d="M0 0H99.516399V54.504079H0Z" fill="#004580"/>
</g>
<g clip-path="url(#clip_14)">
<g clip-path="url(#clip_15)">
<path transform="matrix(1.903482,-1.9832572,1.9831561,1.9035791,-34.142808,971.6642)" stroke-width="5.4588925" stroke-linecap="butt" stroke-miterlimit="4" stroke-linejoin="miter" fill="none" stroke="#fea200" d="M0 0H99.516399V54.504079H0Z"/>
</g>
</g>
<g clip-path="url(#clip_16)">
<path transform="matrix(1.9301318,-1.9573284,1.9572287,1.9302302,-233.78415,809.6786)" d="M0 0H99.516399V41.061536H0Z" fill="#0248a9"/>
</g>
<g clip-path="url(#clip_17)">
<g clip-path="url(#clip_18)">
<path transform="matrix(1.9301318,-1.9573284,1.9572287,1.9302302,-130.78742,875.61306)" stroke-width="5.4588925" stroke-linecap="butt" stroke-miterlimit="4" stroke-linejoin="miter" fill="none" stroke="#0248a9" d="M0 0H92.92767V34.46137H0Z"/>
</g>
</g>
<path transform="matrix(1,0,0,-1,0,842)" d="M341.03514 773.91946H556.5052V1055.1167H341.03514Z" fill-opacity="0"/>
<path transform="matrix(1,0,0,-1,0,842)" d="M412.52168 685.35629H680.0029V1017.65396H412.52168Z" fill-opacity="0"/>
<path transform="matrix(1,0,0,-1,0,842)" d="M448.35014 729.9618H637.31259V988.3988H448.35014Z" fill-opacity="0"/>
<path transform="matrix(1,0,0,-1,0,842)" d="M541.97567 547.1293H837.65969V778.7495H541.97567Z" fill-opacity="0"/>
<path transform="matrix(1,0,0,-1,0,842)" d="M532.54989 617.53176H828.1222V848.5198H532.54989Z" fill-opacity="0"/>
<path transform="matrix(1,0,0,-1,0,842)" d="M551.8353 627.4163H847.40768V858.40438H551.8353Z" fill-opacity="0"/>
<path transform="matrix(1,0,0,-1,0,842)" d="M-257.3043-5.524448H41.339876V294.33897H-257.3043Z" fill-opacity="0"/>
<path transform="matrix(1,0,0,-1,0,842)" d="M-233.69609-46.666849H38.647844V227.26044H-233.69609Z" fill-opacity="0"/>
<path transform="matrix(1,0,0,-1,0,842)" d="M-152.56244-132.87384H175.3198V201.04828H-152.56244Z" fill-opacity="0"/>
<path transform="matrix(1,0,0,-1,0,842)" d="M-130.73813-99.838779H115.980319V148.46334H-130.73813Z" fill-opacity="0"/>
<path transform="matrix(1,0,0,-1,0,842)" d="M49.70858-163.01721H347.1143V137.97345H49.70858Z" fill-opacity="0"/>
<path transform="matrix(1,0,0,-1,0,842)" d="M-36.324346-210.46012H261.08137V90.53055H-36.324346Z" fill-opacity="0"/>
<path transform="matrix(1,0,0,-1,0,842)" d="M-34.12996-233.06729H263.27577V67.92337H-34.12996Z" fill-opacity="0"/>
</svg>
